<mxfile host="app.diagrams.net" modified="2020-05-27T20:54:50.558Z" agent="5.0 (X11)" etag="aft-9wjcTFYh8rP82com" version="13.1.3" type="github">
  <diagram id="H_0iEllEv8X58anA-5SX" name="Page-1">
    <mxGraphModel dx="1422" dy="766" grid="1" gridSize="10" guides="1" tooltips="1" connect="1" arrows="1" fold="1" page="1" pageScale="1" pageWidth="850" pageHeight="1100" math="0" shadow="0">
      <root>
        <mxCell id="0" />
        <mxCell id="1" parent="0" />
        <mxCell id="2P2w4gMl4hyvQ_OGWpci-1" style="edgeStyle=orthogonalEdgeStyle;rounded=0;orthogonalLoop=1;jettySize=auto;html=1;exitX=1;exitY=0.5;exitDx=0;exitDy=0;entryX=0;entryY=0.5;entryDx=0;entryDy=0;" edge="1" parent="1" source="2P2w4gMl4hyvQ_OGWpci-3" target="2P2w4gMl4hyvQ_OGWpci-8">
          <mxGeometry relative="1" as="geometry" />
        </mxCell>
        <mxCell id="2P2w4gMl4hyvQ_OGWpci-2" style="edgeStyle=orthogonalEdgeStyle;rounded=0;orthogonalLoop=1;jettySize=auto;html=1;exitX=1;exitY=0.75;exitDx=0;exitDy=0;" edge="1" parent="1" source="2P2w4gMl4hyvQ_OGWpci-3">
          <mxGeometry relative="1" as="geometry">
            <mxPoint x="750" y="509" as="targetPoint" />
          </mxGeometry>
        </mxCell>
        <mxCell id="2P2w4gMl4hyvQ_OGWpci-3" value="" style="shape=image;verticalLabelPosition=bottom;verticalAlign=top;imageAspect=0;aspect=fixed;image=data:image/png,iVBORw0KGgoAAAANSUhEUgAAAJoAAAD6CAQAAADzApbGAAAABGdBTUEAALGPC/xhBQAAACBjSFJNAAB6JgAAgIQAAPoAAACA6AAAdTAAAOpgAAA6mAAAF3CculE8AAAAAmJLR0QA/4ePzL8AABL8SURBVHja7Z1nmFXV1cd/MzAwMMxQpYoivUVEMJRIJBFfUANRFAUVQxCJLYhJDPKI5X0TohIUMcRXLBjASsAYRKUoGEBEQEAQcQbpICB1GnWYmw8T+r13r13O5exL1v408+y71t7/c84uq6bggqrQiRY0pQnVqEgGaeSRRx455PA1n7Ke/9JJ1IoRLOUokbhtPa9wNaX+C1cFBvOlAqxT23eM5MJzF7DKPMouLcCOtcO8SuNzD7AUbud7I8COtSOMJutcgqwZC6wAO9a20ONcgawv+U4gK2ljKZPsgJXmRYeAlbTPqZnMkJVlinPIIkRYR6PkPV7MCwSyCBG20zIZIUtjemCQRYiwlXrJBlkqbwUKWYQI31AtuUAbGjhkESJ8nEyXrPYcTghoER5OFsgy2ZQgyCIcoV1ygDYqYZBFiPCFL59oqbhqn5dJ1eRXxCbWso08ypOm+dta7GSR7+/Zh1rvyQoeou1JF6MUGnEnMyjS4LGLCn5D1kZjsrP5cUw+TZhCsZjTg36DJr025XObklcHcoTctlHOX8hqCz+rzbQRqi1nCWG7xV/QHhRNcBXVNbQkr4l4TvcXtBWiZbuBpqbkUwHXImr5CVk90eR+os23BpsFnO/wE7T+gqmNM+J8vYDzRD9Bm6ic2AHqGvKeLzD1eUmrlRMbbcy7h+BdO98/yEoLNBuXWHDfoeR+ZdhVjGdSfeWtcQvLjSUWMUPZp7F/oF0oWJdsaK5g9/YONLX1e7XliqmiLP9Ay1T+apuVzO3KHpn+gVZe+asDVjILlD0y/APtkPJX6VYy1Q/loH+gFSp/Vd1KpvrXhf6Blqv8VRMrmepf5/oH2kblrzpaybxc2WODfzeCcgL1dGOLx6Q2C/7MvzftgOBd+4WxxM6Cq/43Pl7Y31S+C3nGm8FsJe+dpPj3psFCwfFzqJG87gLV5QIiPr5pzQTqm0O00uabSbaA86/xlFYLJrdB8xNN5Z8CrsXG6s2zTsNFlqP5gtP9CRoh4umxY0J9ZehOSVsujEEpyzih3fPO8IMTe5+aTlehzuI2PlY+gtfoIOK2j/MDuUSVoQFNqUUmFUnlMIXsZiM5bHK76Vyl4csxLY6zcTWe5ZCY01OOwarIzxnNSo7EkFfIJzzK5ZR2JXCuBmxFTOO206ICMujGK+RqcMmlqjO40ujOJA6IfcxH0dqF2E4a3j7H2iY+YQqTmEm2gePpY44AK88gIx/OT7nW/mD9t4R6Qq5x4jFUil8L7F2x21I62w2gGjsTBlmxE8NdO5Y6GMlEu/Cjaww+UbM22sE79riW32V8555rbYbyTEIgW0xZS8hqMcfxm/9n8z016CCfEu+NepaQNWVjAOOapnXjOe2avTRQyHKtN/u2lrHO8YIrjQOQqrM8QMg6WUJ2CfsCXTiMPc6rsCiQIe3iMkvIGrAt4MVjpnkEdHkmOR/OappaX5PWJGCbGmc+wBSGxrzDmbR3Hfhs/D1BB6J+dkvuakcr2R0OLAH3JOzoXUBzOwPfMAosT0CTuMDB6b+u09wNaoWr5UOuwwti/cHpbY5Qs6amKQmELEKEX6qVkCqqySD6afn8H+IfPM0SZ/q+mVr98/kXn5HNXgrIog7N6EQ7rWDJnTQkz4VGoRvj2Kp8RvuZyR1UdqpenKd1RO0dVYNSi6Hs1uDzkMsJdI17RfqJpWtWNLpCPNGNXBeXU2WeEi81O8yvVWdSo7jxU0HQe+KEAlUE3C4TfC0l7W5/QashPC++II5urs1iEceF/oL2G9EEJ2ltc1WEd4umvoK2ULT46yrPW4iMQI/4CVpFgX72gFEiRUkg3Sd+giaJrhphxDmVZQLHn4xU/CO1++k+njTiXMwwga3+hz6C1kLZYyJ7DHm/T46yTzMfQVP7+75tdaNVURP/QEvjIkWPAit3rY/UD80/0CopL9mrOGLBf7myR1X/QFObOewyhe9hn6JHpn+gqSP0bONdcpMPtBC4y/sHmjpssqL1qhmf8v0DLV/Zo74V/6pK0D0EbYdyb2yhne7uZLpE2WO3G9BKxb12lHcKWjFbFT0yrLJLdlH2yLFz0K1MFzrQnkvj9GlILqtYzEJmsMUJbF8rfYxuNs7nkEIvZZ9s04HX5B5maXrVFrOYYXZGVwD+pJS0V6TkjkY/E8yjswnjNkywyn67hIFWppbuAhlPGy4zK5WcD+oqN1O4UZRZTZLG8HfGbslZAgvBQeUNNRoNEBm7tagrS5xarLcw0Gifu4ZCkV+Z7kNpSZ6A7zA5wzq8G4ipfxXttSZWnufFrtNvat0eqrFWtC43kn6U92rFnei1ozwrTl7Slm80C5KkiV8K2Vf0mYxdFaYlIOziYsEi/bDB9jNH5DPbju+E/O6SPdv1CfHIKVSkar1IkOEvVomIAXEP31UYyUFxBJXgoN7T2KHKpI2MuQb1Ey3R8VbOW6NOtw4Ps0eDz+/VipaBPJ/gvO3juYOjZ1ygx3KDA96F/3G12kMBmdSlGVfQVkvL8z0NVeqCIQl2mStpk0/zpO4qdk0Jvilzkdx91oY25fjTL8dzCYvMUre5qgNMb2EEezDtOQBasyo0gEXIVzm+dNQInw6mDWHIWR/Dqa2vSn+xNVTDDUN7KT5kpfmXZxNaxZaAJXyoulc84hVgxYwlg0aBfhuLVJbW5uKzcRjad8czhzS3ilqP1+ZF80lPOcWcN98iMKKIZXxJDjsopIgMqtKIZrQPrNTMO/yKXcf/asBUBzrh02kqvVUmw18aPo2DTOb6GMFhaXTiL4b1jeNlb+sfxdr5gWPty5/U96F0o4DmXJ4Q5LYqy12sczadT2NYNksxxNld+Xu6SV7F3xqwnkQN8auexv0OAsCO8GTcvaw5nzvYXibIkpyla0eB7zJId9nYMqw7WxCHnMrtVuqsRQL31OPKFz3WKwxTw6XzhvHz/3+xhrcM9xlFHM8TZvL6D32huaqYB4el8pzBdLZrv9cpXMnb7BcfX57WTdfYXmsCyy39clJ4WROyqca5TsvRlVEsi3n+zOdjhtFRT29Yck57lvvFv9hGG8vU+lCaD7hK3HuNg0oYpahPC6pTiSxKc4gC9rCRbDabP/mNGqeXLrig6lpXn4sIHel8nKOdSb1OQ+qg8IH2uIYzQUWHcuWmwVnhA22WePCDncptJVZmF7rL2eiGSonNYzudl/F4T/y4Lg0TZKm0FJeBed15MtWXxD07hAu0ZuK+E5xL//Ak5Y7qUw4VaNIand+zzLn0I4JIpBKqHy7QpMOZTRAJ72cL+zUIF2j1hD2XBSJ/qbBf3TDtn6nik1cwJTxyhO9vqTBVaE8Ve/lvDUR+vjj8KzNMoFUQTy8YKhD2ywgTaNJ8h4cDGoG0hFuZMIG2/yw/aelnVxgm0KSfR6VA5KeI80KGCjTpYII5XtYWe/sXhAk06UWmWSDym4rfs1C9aeuEPTsGIl9qLltLJEygrRX2bO84brOEfirstw7CBNq3wp5l6e5cei1+JOy5JlygLRf3vd259D5i09liQkbrxJaoFk7lpmk4xdQJG2gTxUMf71Su3BViA6GjgRpWz8ucSc3U8JUdFz7QamlEDSyxSt9wMo3SsHv2IISkU4vMTeG1qzUeVL6TelIOqUQfOlmjZMeDLGaypdRGTNQI5VrtQMNSlZY04zyyyKI8+9lLIevIJsc8G3cNLa/ug+IjaazlYJ2231g9Y1n9eIvtceMQxtDTTMU5QTOk1bzodwO+NfLtvU1TTjq3MlfDhv863XTTVV2m7fs6yCgpV+e4T10VyC9VT1Xij0Ye5dn009vo5mmLeEezYlxZ/tey7NpGrlBKKc8QrXT5Z54Jb5JPqZOBgL0MEpdju0ZUGVt9UnwiruK7k9HHf3qbIU0koeOOcmpKkt9ynmJ1uVmYg116VmwaQ84zzuJUC6X1e1oaFzg6zPsM4gdnrAcX0pfx7A0gt8JdUfbJhY6ljJcpw560FHOYbD5hGu/yESssa/6onZdPfr9bszkAGSIv9nTNDCtnt23j6uMK0ryAZHwl0a9c7qysaGLiPf9COdoEsACcaKslOWSGehdZvDtgCQvVNt8U3jnrQBwK2YP5h/ogn3WWkzvkcSkDA95GdNtg9SdaJ0FpmaK/ZSWxLI2dnu3sRyVQvzYMvNRo9FZ0UnarNIaHaFtaJnErbBHIyUf1PHudcS3aEBrY7j+x7MemC5gekDNCdNrPDUw/478VeV6RW01Gm5nFZ+Swi4NkUovm/Jgrtfwr86jPbom+c17CnuOWONkhb7Eq5VzMNH4aVVeWQX+tN/n/pLbJkQnJLDVbEdF5oXFmmpUKK346vxM/kr3y2LCfB3x8PMJwgaW9FEMNckL+XXTpbiJWWz0g/5pr8lZgkC2njXgcutlH/yDWLlfmI+Fotegah5k1ThxjH9K0o2YwVsx9jBbnCnwp4nqxHmxluNthBqn9jBSlUz2TeohSlszSDteoJ0qz8Uf9AaczyIHaejd/tnBpqSLQz+ZrpFk5Qb0EY19gNugUujDF8FJdzGf0syzH21Mg5zHDmS0UbFsWYSBZ3MQbGpqsQ8zkHs53cEwdoZS1wzgoqLNgJlfZTiCVFvTnxbh529/lATo6LPY8QzmtERbcv0pcGoKcOELq4ZY2Kadl4xD2mJL7X/2r5lOa2ooeueKAyGikjkBt5B9oNQQFBI9a8F+hPggnYwHBDVb8c5UFVT2shad28LMNslR5rGX5B5r607MtMaj6/I8mYy28SpYSVL9PygKCdpkVqitP/B6ClisoIGhzkFYn6NnpH2hFyhC4dHHEVTRSX5JyfCwprq6U3tviWqguIPiNj6B9pezRh1qGvHsJsqp+7ePds6tAEzHWiHMZQaLXQrHDbKhAyxDo8o4YRQw+IHgcM30s9AyFguJqpZmsnYqxPU8IejlMtZjINw3uEvpo61gJaovsH8UuZ5NY0CoLw5KmiFOwSC2fc1xOI7GgwdtiX58LBNy6idX2v/AZtNZiZ4l8nox7MTqfsWKHrk3uMh5dxIC4Zfj+QJsANpwPtZxrHohq0ruY0VplH+5zoUZpwq30oaGg527e4TXmU+wMtPYs0Br9UZaxkBx2cJR06tCcKzS/gU00EefginHd6G7gx/Mt9zpMifJKgp36etoN91qBoSt2iuHBjuLgqwXuDH9y+8BmqI0Edkd1XGU3J7DdnDDIdot24aiUwkAHxWVK2gQnWR5fSFBkzHWmA6zI+06HssZBRpl0zUInZs04Q0TjAILN8hxk3KjpJCw2fhi44YGpVUDV5oocnLEbBBrzMMv0QNtWq4a0boD1QGvYGgcWYTPV9IhU3yLDgQy2Gx18pMsCGNl408NRVaOyVXrtgJUppISyHDtTH2Kw6X0p1fGOGattNa4MdaqezVUBwXX80HwYDyXs+DjdyaW+oYOClYd5yiYVcvOEhqv+ytGdtCdfW4UEWRVXTUlgZFRJEE1NR7Cl0stgYzjKFFrLgIlNt/Ka5mDX8wVr2QuUpx4/oJXmJ/dqlAqx5tSW2+mtSLRyjFYxkdfZYiuytNauuZVhURJVV2EAS7SipBrjlkrTjqHMiBFWcZR1vMmdIo2g6E3rzytCHnmMYFTMbPMp3MRwsSfP69opv6RUhcbUJZMKlCOPAvJZR46dUvFMkq4J8wUrURnGiHeumnhLHYSTfEOcr3GgMPDwEX9Bk8W6vazFs4/IgvStr5ClivQG87RdQYYHERwYFvqRSNd/nsHDmCng/KifoD3sJidK1GuO+o4x20/Q1OVK1xt7ab2o5F0QtmqeMlJrac0j0Vom56pWUXBLO8+CvzpW/Iaw75PRdO7qg+9OC5kzBbpi70BTR/8usZK5SNmjrn+gqePc7CqeqH+d6R9oaq3lHiuZ6l+X9w809YZfZCVTnSg/zT/Q1AXU7AqUqqvfFfgHmjrOzW6hVvvf5PkHmrq2a0srmepf7/MPNLVyppO4SFY06qzssRbvKEXgg9bFmHsFQTLWDv69aRFBcKC5jfIWwZEm28cL+xiBUdUsy0qawJtsddjhiW6XnCP4hEcayRssuNl6qk+rKqogca8230vjJnLyRMcRmz4WmXav1OJZU5BaKUKB5dH5LJKsIuJu2ok5Vhfm4p6It5QpzNJ+QGgRv4SNQkvq/+AxPSf2wHhRkX+xLL8RJ8pf6WWs80n3S7lvWj6PUyUqlzL01XIi7oPn9JKmj+p7DKIjNUgDqtKavryqGb2UbXU9CwXVCLTgS7R2LUlA9yUUsikkBZViQcIg2xN2c4rOdrArIZAVcz1JRD0SUo9gFElGvw8csml+em/Ep5GBQva5TahDmHW5YwKDbGGMY3FS0JCAoikzSWrqx37HkI0Ju1nYBTVjpcNQ7N6cI5TBM8ZFek/NclGfc4ouZq4VYBtsc6n4Spcb1tJez/0Oyzl4SO0Zq6EHOcxUbkzGQ6w+pXM9f2V1XLi28wYDrLx0Q3dsdUM1aUETGlOTClQgjQJy2cNasllt6TcZQvo3rqfDMMd0sKIAAAAldEVYdGRhdGU6Y3JlYXRlADIwMTktMDctMjdUMDc6MTA6NTYrMDA6MDAgJBwwAAAAJXRFWHRkYXRlOm1vZGlmeQAyMDE5LTA3LTI3VDA3OjEwOjU2KzAwOjAwUXmkjAAAAABJRU5ErkJggg==" vertex="1" parent="1">
          <mxGeometry x="610" y="212.29000000000002" width="104.72" height="170" as="geometry" />
        </mxCell>
        <mxCell id="2P2w4gMl4hyvQ_OGWpci-4" style="edgeStyle=orthogonalEdgeStyle;rounded=0;orthogonalLoop=1;jettySize=auto;html=1;exitX=0.5;exitY=0;exitDx=0;exitDy=0;entryX=0;entryY=0.5;entryDx=0;entryDy=0;" edge="1" parent="1" source="2P2w4gMl4hyvQ_OGWpci-5" target="2P2w4gMl4hyvQ_OGWpci-3">
          <mxGeometry relative="1" as="geometry" />
        </mxCell>
        <mxCell id="2P2w4gMl4hyvQ_OGWpci-5" value="Flume" style="shape=cylinder;whiteSpace=wrap;html=1;boundedLbl=1;backgroundOutline=1;rotation=90;" vertex="1" parent="1">
          <mxGeometry x="450" y="257.29" width="40" height="80" as="geometry" />
        </mxCell>
        <mxCell id="2P2w4gMl4hyvQ_OGWpci-6" style="edgeStyle=orthogonalEdgeStyle;rounded=0;orthogonalLoop=1;jettySize=auto;html=1;exitX=0.25;exitY=1;exitDx=0;exitDy=0;" edge="1" parent="1" source="2P2w4gMl4hyvQ_OGWpci-8" target="2P2w4gMl4hyvQ_OGWpci-23">
          <mxGeometry relative="1" as="geometry">
            <mxPoint x="250" y="975" as="targetPoint" />
            <Array as="points">
              <mxPoint x="878" y="660" />
            </Array>
          </mxGeometry>
        </mxCell>
        <mxCell id="2P2w4gMl4hyvQ_OGWpci-7" style="edgeStyle=orthogonalEdgeStyle;rounded=0;orthogonalLoop=1;jettySize=auto;html=1;exitX=0.75;exitY=1;exitDx=0;exitDy=0;" edge="1" parent="1" source="2P2w4gMl4hyvQ_OGWpci-8" target="2P2w4gMl4hyvQ_OGWpci-10">
          <mxGeometry relative="1" as="geometry" />
        </mxCell>
        <mxCell id="2P2w4gMl4hyvQ_OGWpci-8" value="" style="shape=image;verticalLabelPosition=bottom;verticalAlign=top;imageAspect=0;aspect=fixed;image=data:image/png,iVBORw0KGgoAAAANSUhEUgAAAYQAAADKCAYAAAClmDd7AAAABmJLR0QA/wD/AP+gvaeTAAAgAElEQVR4nOydeXxcVdnHf8+ZmSxdadnadJK0lQLSAi8MJczMnckABSkgm0RoCgoqu6Iir+xYEX1BREXZZBEEmqJRQPalhXS2tMUAKhWkhTZbC2VtaUuSmXue94+kJZnMfs+dmYT7/Xz4fMide57nzHTmPPc851kIFhYWFiOYdxqn1jrY9k1JOIaAWQDGAvgAwCsAPWYfp/+l6q4N24s8zREBFXsCFhYWFvmwqWH3cT2OiusAvhiALc2tXQy+srap+8FCzW2kYhkECwuLEcc7jVNr7bA9D2DvrAcx/vhpfOIFs5tX95k3s5GNZRAsLCxGFJ2NzlkMvAjAmcfw5zeN2/P4Q+5qi6me12hAFHsCFhYWFtmyqWH3cQw8ivyMAQAcvcfWd+9SOafRhGUQLCwsRgw9jrK7Acw2JoXO6lhQfZWSCY0yLJeRhYXFiKCjsfpEgB9TJE4CdHhNU2dQkbxRgWUQLCwsSp51Z02vsPXFVwOYqVDsOxWx3gP3aH5/q0KZIxrLZWRhYVHyiL74uVBrDABgZq+j/OeKZY5oLINgYWFR0jBABFxkkuyL1p9edZAZskcilkGwsLAoaboanfORS75BbtiEEH/gRdZaCFgGwcLCotRhnG2yhrmda6rPMlnHiMA6VLawsChZuAG2TodzE4DJJqv6UNh5H+cD3R+arKeksXYIFhYWJUuXzXkIzDcGALCr1HFdAfSUNJZBsLCwKFkk4fCCKWM6r72xxlUwfSWIZRAsLCxKFkF0cAHV2Qjyzi/yAfMX9o1bWFiMBHj/Ais8pGuN89sF1lkyWIfKFhYWJcma+XuVl0/q2QrAXmDVH9lZ7lO1ZMMHBdZbdKwdgoWFRUni2HX7bBTeGADAZJ3EFzKD2TIIFhYWJQkxFdpdtBMGvtO1cNphxdJfLCyDYGFhUZKQRNEMAgAhmW7lhrStOUcdlkGwsLAoTYjmFHkGrk5H9blFnkNBsQyChYVFqWJkh/CRminw9RsbpuyuRlbpU4wDGwsLC4u0bFhQtVscqMpz+DbodChs/DKASQanMjlmt98AYMSFoq47a3qFiMmZLPUpRCyIbAICG+yV+jtVd23YnmyMFXZqYWFRcnQ1Tjtcgl7MazBhZc3irsPaF0w7j4juVDAdFsxe55LuVgWyTGPNwr0mlFNvgCQfCcDH/TusZA/9MQCtxPgr4rinurnrsx0vWDsECwuLkkMH7Z/v0ypL/AsAavbpvrvzLee3Acw1OB1iotu4AXOpGbpBWcpY3TC7bLxjy2GAnMegecQ9c8Gwc+ahDgB+JvjhwBXtC2q+Wbuk4wXAOkOwsLAoTfI+PxDUbxBoESSILgIgjU6GgYO6HM4LjMoxOAfqOmPagR0Lqi/paHQ+Pd6x+SOAlwN0DQFu5PeAP5VIPtOxsPo0wHIZWVhYlCAdjc6VAA7Na7Agf81DnaEdf3Y2Ov/AgIpooU/i7Nh35pJ17ymQlRXvNE6tdcA2j8HzGHQEAXuYpGorQxxouYwsLCxKCl4E0fkWZuc7XLfb/j3kSgxXwIFTAOxmcGq72BG/EcBZBuWkZFPD7uM+czgOExDzGJgHwNXvAiKzn97HCcjvWzsECwuLkqLzDOdeLLEmn7EEtFc3dU0fJnOh8xxm3GV4cgAzC3/tko6wAlnobHBWSof0DhiAIwEcjOK58jutHYKFhUVpIXFAvkMZ9K9k152zuu7tfMv5HeTrhvocIpK3cQAuakE85/k1wNZpqz6IiecJwjwGvARRkcVBcCFwWgbBwsKipJDAAXm7LkgmNQi0CLK9UVxIkCsBw+UoDuiocl4EdN2Szc3tjTUzATlPgOZ1go8EeDIBKBEjMBiyDIKFhUWpkX/JChavp3qptqmjraOx+m6Az89b/gAEXLf+jNq/TH+ofWPia2vP3HOPsnjZkQDPI8KRDFkLAFyKJmAoPZZBsLCwKCnIQMgpM/073esU46vYgVNh/IB5go31u9edNf3Usdu22XvLyn3MPA+gedCxP4gJKMldQDpWWofKFhYWJcOGc6vGxLeKLcjPrdNbvaFrXCbffmej89sM3JPfDIfRA6AMoyKni64ZBW/CwsJitKBvFXOQp4+fgP9kc9Dr3LvrPgZUlaGowKgwBogJkvePhjdiYWExSmADJa8Z6d1FO6BFkCzkd4HSKUNRdJianIu7uyyDYGFhUTIQc94hpxgoWZEN0x/a8AqI/5C3rtHFZ3aHfi0wOrY6FhYWowcjPRCy2iHsgNl2NQObDOgbFTDzD6se2NABWAbBwsKihGADBkGSyMkg1DZ1fExEV+Srb1RA9JfaJd07d0qWQbCwsCgJ1p9ROxVAvt3JPkiWE5CJ6sWdKg+YRxpre1F+zuALlkGwsLAoCUhnAwfKubmLduoEmKW8CF+8A+bNTOLEWYvXbhl80TIIFhYWJQGJ/A+URZ4GAQCmP7zhVQB35DveZDoAvp8YZwL4lSKZcWbRULu44z+JL1iZyhYWFqWBxP5513jm/A0CAOhl9mtEX/zrJvYbyJYPCPQSk3yRmJZVN3WtAYB1C6r2tUH8XoUCBi7a0SEtEcsgWFhYlAREfEC+pR5Y0D+N6J5x//pPOhqrLwP4PiNy8uAzgCIMXgqIpTV7d7xKi4Z2eOv6xrRdZZweB7CLYW3MN9cu6U5ZBtwqXWFhYVF0OAB7Z5XzU/Rn/uaKLLPFJkx58L1thuYAUGej8yUA9UbkZEACeJWApRJyqSwrC8+4f31PqptXN8wuG+fY/CwBhxtVzMDTNbGuE9L1hbZ2CBYWFkWnu2raHORnDADgbaPGAOg/YO4S/H0p6R9QuzauBWgpMS9FHC9VN3d9lM0gBqijbPO9xMaNAUCvlNv6vk5N6Q/PLYNgYWFRVN5pnFormX5jwF9h6PxgMM6Huv/Z2ei8nYGLDYh5H+BlBFoal/ZlMx5evz4fIV0LnNcQ4wwD8+iH0U0OPmHKA5mNpmUQLCwsCs76M2tnkK6fQKAGgN2g/CMeCdmXrMiGHqq4ppx7GgBMzXJIxnOAXGlvnNbAwCIjMgbYDkEnVz/Q2Z3NzZZBsLCwKAjtC2pmg2QDAcdD1139V5V0DFC2QwCAWYvXbmlvnHY5gf6U4hYdwGvZngPkSsfC6rlgvh/Gz3glQI01iztfznaAdahsYWFhCtwAW2d5tQcSJwPyZICmm6GHgL13hGeqggHqXOB8EYTAwN//JWApEZbFHfaXZty//hOV+nbQ3lgzkyBXIP+M7UHwJTVN3b/JZYS1Q7CwsFDGmvl7lVdM7jlCSpzcQTiRJA/E9Zv27LnduXfX26qFEsBvx8tOstt7/HbGa9Me3tCpWkci686avgvFYk+CSYExoDtrmrpyMgaAtUOwsLAwSGeDs1La5TxBooGBEwBMLKD6VTVNXXUF1GcK/zjX5dhj67tPAXSUAnHPV2/oOi6bZkGJWDsECwuLnOlscE6WDj5eQBzP4GMJYmwx+gez4gPlYrHH1ndvUWIMiN/QHY7T8jEGgGUQLCwssqT79KrquBAnAziJAT+BbFz8NvKvF3sCRulorL4U4AuMymFgk9Qdx85YnP/5hmUQLCwsUtLeWDMTkF8lUIMO9lCpuZmJR7RBWH/6tOMAvkGBqB4b80m1eeY87MAyCBYWFkMYFB7aAMj9+q8WfSeQFF2WjViDsP6MqoOFpD8DsBkUxQR8x7mk23BfB8sgWFh8weEG2Lod0/w60cnEOAmQ1cWeUzYwsGnmknXvFXse+dC1cJpTSnoCwFjj0uja6qbOxcblWAbBwuILS38ClDy7E9QAYDcqzU1AUhjYJBg/KvY88mFTw+7jPmN6goAqo7IIeNDZ1PlzFfMCLINgYfGForPBWSkdOIcY54B5TqkdCWSgC8BjTPxYTXf38nwjaYoJN8DW5ShfQsD/KBAX7Pm44hxS6M+zDIKFxRcAXgTR8da0rzFwIwEzRpAdeIeAJyWL5polHRGVi18x6LRX/wrg4xWIescRi59a88zaXgWydjJyvhYWFhZ50bGwei4xP8DAvsWeSxYwgJeZ8aiEfGzGkg1vFntCquhorL4A4NsViPrIJqRn2kMb/qtA1hAsg2BhMYppb5z2DQLdCaCy2HNJgw7QCgY324j/5lzc3VXsCammo7H6KwA/CeNemRgTz69d3L1MxbwSsVxGFhajlI7GaVcCpOzAUTE9/dVC8YTOjr+P1GihbGhfWLMfWD4MBestM3+vtskcYwBYOwQLi1FJ50JnIzMeQmn9xj8m4EkQHrWNlc9V3bVhe7EnZDbvLJixp4NiKxmoNSqLCDdUL+66QsW8UmHtECwsRhntjTWTmOXvURrG4H0CnpUsm7fGJz03u3l1X7EnVCjWnTW9QvTFHlVhDBj4W/WsrqtUzCsdlkGwsBhlEPO1IEwuln4G/isIj0LHY86Hu1Z9Hhm0oVhTKjgMUFef/gADbgXiVokYzjTahS0bLINgYTGK4EUQnW/xwiKo/g8DzYB4orapo60I+kuKzsbq6wFuMCyI0U0OnFLd1PWZgmllxDIIFhajiM43qw+GYAUNVjISJyAIxmOC5WOFaCAzUmhfOO2bYL5SgagtJDC/+oGurPohq8AyCBYWowmBvUzWsJYYN5KDH3U+0P2hybpGHJ0LnPXMuEuBKJ0Ip1cv7lLaLzoTopDKLCwszIVJlpurgdZLyPemfdZtSk/hkcy606dPZ8IjAMqMyiLgB9WLu55RMK2csHYIFiMSt9tdabfbd5kyZcqm5uZmvdjzKRWEpK1samwRzyMS8zodzq72hfijwybvrXpgQ4eZGkcKdlv8PGYVh/kcrm7qvtW4nNyxDEKR8R/m/7IU9ODgawy8GokuP8eIXJ/bV88kbk72GoH7JLABjBfGbqt46Pl/Pb/NiC4A0Dz+qwA6echFpqvDrS3PGpUNAHV1dRPs9vIGYpyM/siNyawDG7vfi2ke/3oGNzuk7e6WFS3rs5XpdfvPI6JBnzMvDUeDl6cbo3n81wN0zOdD+L5wa/C2XN6L5vG3ADQum3uZ4idEIpGsw3NipP/Dbri8flY4iXFtPC6uam90PkdMd1dv7HxyJBacUwWDXlNTakn0KBCSF5ZBKDJS0C8Adg2+JoDpAAwZBCY6LFHuztcwEKBO+Nr2cT1X+t3+k4KtwVfz1eV2HzENiF8F8NDyCMQaAEMGweVyOSrLx10A8DVg7JbkFgeAWQS6MiZ0AMg6VpsEjgQP+YyezDSGgWMJfNDnQuiWbPUBgNfrrQKjPsuFY3skEnk3F/kzmza2dzY621XEvmeJjYBjQXxsZ5VzQ8dCvk/XHffMMNi5ayRS3df5106HczWA2cYk8RGdC537F/r8ALDOEIqKz+07FOATE68zsGv/Ips/DJqT5a01UuDpQCCwS766BOnXI2mtHDowX5kA4Ha7J1eUj30W4FuApMZg6Dwg1uekgLH/4D8JnPYHGAgE7AR8efA1CcrpR0vScUDW9wKrgdxjzyVwR65jFFEFpqtsIv52R2P1C+2N0xr+ca7LUaS5FBxqhg6QiuQxwVyckiOWQSgiTHQDUmSTChE3tJgShi526SeCKXqML8xHj9sd2JfAZ6QQnPXil4jH49nDRo4VBByR7Rgd3J7tvfPnzy8HhkbkkE7/Sitf1/cGUDHoUrysDDlV4yShZ/3vwkBeT4gihrsBbMlnrCIEwPMI9Jc9tr3X0bnQ+X8dp1V/qYjzKRjVTZ2Pg7DSuCT+ateCaSqS2nLCMghFwuv1Hwvg8FSvk0Tei6nL5XIAPKTUMYEbIOQhEPIwJv4egCF11Jl5Xj667CRvRGrXY82hhx65a64y58+fXy7I/giAWQkv9TD49wKot8fEVLJxFRMdAeCPAHQiPWuDsPXjrbMT5r09uDL4dtpBesK/CeOtlpaW3Py9khLcCXzfwL/LsP+Y9Gtykj1AdXPXRwRcks9Y5TCmMONy2HhNR2N1uL3ReW5ng7OUK68aggAG049VyJKgG1XIyQXrDKE4CGL6RYIfeTuAMTv/ovzdLRUVFXuDMTj8MPbR5o8eX716Zx2ZlZrHfxCAbw26Z0quevxuv0cCJyRcHvI+ym19cwAsz0Xu1i3brwLDm3D5NWHHKcFgaF3C9Y0AXvK5fU06y6yjXaSN9k9oGfk6MrhnJLD/4O0cUe5P8Ew4cOjftCwSDinP7K1u6rq3o7H6RIC/qlp2nhDAXgK80oGftS90/skW53ucf+5+q9gTU01NU2ewo3HaCwAdZUgQwde5wHlM9ZIuJYEZ2WDtEIqAz+NrBHjwwqAT8aIhN3H+7hbBItEt8eYgY7BDQWKnpc256pHgBD8nh8EYUpqXSeRk2LxebxVLTny6fT2m99YHg8FEY7CTUGtoWWtra9bp/ZRwfsBI7y7qH0MJY3IzCIFAwI6EJjU2iYx686WXys8AUHJlJAjYgxj/K230345G5z/aG53nbji3akzmkSMHhu0KKAg5YuAGXlS4ddoyCAVm9uzZZQwsGnyNgIfj0vYohl7cx+1257W1lonnBwlPsv1y6SuDrzEoJ1+45taOB1FgiBrG1cPk5GjYiG3ngjB20KW4kPj6ypUrlfrEE89YKJvFnYa+F85xhyB75CwMPYPo+3DLh8q7Xu1g1uK1Wxyx+HwwXjdLhwJcBPwhvlW0dzROu3ndgqqR0NUtI7VNHW0MPGJYEOHAjv9OO1XBlLJiRLiMNE2bxGz7H5K8H4hrCDQNwCQGxgM0hsCSiTcT04cMvAdQOwStGrOl7FUVMfYqmTRxt/MBHnzApsdZXO907r5uY/d7Pfh8wbDZbLb9kMcTHjHtP+Somnmzpmmu/v8VexLjxwBmDh4jWP49BxUCJH6WcG1ZqDW03Ov17zXkuSjBRZJ58jh58HgGPRxcsfyNnGRkAQNDo7CYf6F5/IsyDBsSiUUkc1podRsS3VT2SRN3fVfz+IfdK3TUBVcG1+QiPxlTm999f83Cvbzl3PtQCbmPkrEbQJfYiC7pWOAMEXBXzycVzbMU9wwuJKzr15DNdhJgMDGE6DoO4JFC5HiUpEEIBAIVep/+FQa+AogjIHkfAu8Mnh/6m+L+v3nwdQYkY/u4Hl3z+INM/Bch8LdQKPR+Id9HIoFAYFy8TyYUveKm1taWNwFA89S/DfDnh466OBB5GASmob5ugC6ApAuAlAXyXwu1hh7PVr7m9p8B4H8GXxPAdQAgdH6TxRAtswOBgL2lpSXjl/nQQ4/cFRwb8hQuIP+a7byyxe12TwZQNeRi/65kbNIBydkaDodTurCSQTwsUEAAmJTk1l5RKXKSnY5Zi9du4UU4qXNN9Q/BfB0Gn1WVIgQvM6/aXD3xz8WeihGm/3njGx2N0x4A6GwjcgjYp2uq8yyg6x5FU0tJSbmMfG7foV5P/X3xPvkegx4D6AKA9zEg0gbgcGK6g3Xq8Ln9d2iaNjPjKJOI98lLAew56JLOJHf64Rk81N1CuUca1dXVTaDckpI+gpCnIct499mzZ5eB8JPB1wh4PhgNBgGgV5Ylup4qB1wlGbHb9erEa6TTf7IZmws2W3ne5zODeB05+oizDQVm4D/ZGNCcdC+CrFncebO02eag35WhIqXWDP4jmLWaJd2XHnJXW6zYkzFKHPKnSIjoywcmXLvurOkVme80RkkYBJ/b9xXN429lopUEPgvABBPUVDDhfEjxX5/Xf9PRBxydy9OgYTwezx4YHgr4LBHFNE2bqWnaTMEYuoNhzjnSqFyUz0H2nbJW6SzqwuFw1pEekybsegES3E2S8MCO91BW1jsRwJDCZ7otO8NGlKRscznUp/HL/A/sB5HzYTBzdgaBwKb5/Kc/2L6upqnrawJ8MAN/Qx6JbyYRY8J1vR9XHOxc0t2a+KKmaXv7PP7nAoGA6YuiSmY2bWwn4E4FoqptvXpeuUK5UFSXka/OdwDb6HcM1BdQrZ0Zl24f91mDpgXOCodbWgqhlGC7GsD4hMvHQYrjdvwxrCgZUc4Ll45EdxG2A9hR/qAPwPsA/k3Mj4daQ88jhyfF5C4vgBgPgVM/WwhJBwLIuP0n0rckyuEYzwSguNY+D8kFYNA9JPT/Szs3KR5mYO6gK6tz0Tjw2U0ffE2CPELow5rL67pueiVRZ1P3awBOXX9m7Qybrp/HwHlIOCMpFAy8xkJ+e/pDG15JfC0QCNjjvfIi6Pg5E7bknPdRAthYXh8j8S0a/vvPDeIr1izc655Zi9ealnRYFIMwf/788q1btl3PjB8Uaw4A1ULKF7xu/xWR1uDNMHELHTgsMD0OeW4eQyf7/f7qYDCY9YJIw9xM/KdwNKTkyUKP8Y8B7JHrOKbsnsiJqGPYP4Kgk5BjHkPmCeHAwXsoAqLhcPiddEN8Hv+QXRGx/GcuKvv6eH8xdOe2ORpdvgJFdt1Mf7B9HYDL1yzc6xdl3HP2QEJbTYHUf8bAT2tiXb/qL/swFF+d7wC9T94DGjDEhNcKNC+lVC3Z8EFH47TfApRXouEgdqvgnh8C+KmKeSWj4C4jtzuw76ebt69kxqUo/qG2nQg3aR7/PQ0NDaaViNSFvB5AXnXqOZ6zeyMhnFIoKZDl8/l2Z+Yf5Dk8K9dXKBTaCGBIRBEzzvP5fPulGzfPNW9iDnMhEIbIY0pfj8jr9VYxMCTjulcvy8mtI4adH/C/UUJ+/FmL126pbeq6pTrWNZNZngBghakKGSGbkAfVNnXdmGgMAoFAhebxL2IbvTx4V8ZMyg7aC01lRe9NDGwyKoeBS9eeuWfOD2XZUlCD4PXWz7eRbE1IyioFvrWx672m/pIPatE07UAGFiRc3grg4xT/DX1SyjGxCwmVFlnkVnwtJXG6FkO3vIzU7+HThNHOgciejBDRQwmXKlmnpT637yuJt2paQNO8vmd6ynp82b4NTdNmJLwPOfbTsrRhrUIOS/TbsGrVspy6hRHzUEPNVJK5AdQMvXbJhidqmrrczMJHoGYkfieNsZmBH1Tv0xWY9tCGYTkYvsN83niffAXAT5DYaIZl2l1cKbP7Hz/4lEA3KRA1rky3X6ZATlIK9oSueerPBfMdKJGD7GEQvl5ZPkYHsBAqn9x08X+gQe+ZsS0mHXutXLlsmO8YADSP/1kAny9+OSR2BeoCzjjk4IWX7XbjSUl+v3+GjGOIy4tBiyPR5WcmncdhgelxIYc8zQlRdiCAlzLpKu9x3NZT3vd9DHVNTWWiZzWPrx2g1wGMA/BlSLkHQCCJrH8gJGn/hH/ctzPlqkhQ4rlM7iUrwHMGe4yYcJrm8R+ddI7M54ZaQ8uSvVZIapd0hAGE2xtrZgrI7zPwbeQWmjsEIjxF4POdi7u7El9zuVxjKsvHXsvA/yLFGiEII3aHAAB6me1WW1/8YgDDoulygy7sPr3qt2b0sS7I4uzz+n4I8J2F0pc/tMDnrTfq59uJ11vvA2H+UBW4NZUxGGDIUxNn6W4BgJidE59kO1taWgwfUMo4/xxDn9Z0UPz6VPe3rGjpADCkjARlGdmztG3pZgmciaRPpVQL4Dj0ByHsNBi2SlvWNYwYQ8tPgDMv7iIhiS2fGkZElPhvMwn90VrD/tPJsT5X+WZS29TxTnVT1/d7qaKKgR8g50N+fo/B36xe3HV8MmPg9dbPrywf+waAy5BujeCRbRBm3L++h4GUv5scqIgLca0COcMwfYH2ev0LmelmZB8KWVSYeZHX6z9FhSxiviHh0laycdIuZp9PAIkhoLNcLldWiURieFijYXeRr853AECnDb3KD0QikXQlFySAtUOuUPZuwmg0+DyBv4b+CKlMbMnJ6CV+Rlks7kwJdY9kbp9rsjOINGyPRl8syYVvxznDpnF7fonBX8+mzDOBmu3Mc2qbuh9IfE3TtEmax/8HYn4aWRxkk4NGrMtoBzWxrnsJuZVMTwYBZ68/beqXM9+ZG6YaBE0LBIhxL0aIMRiAiHG/pml7GxEyYFQ8CZd/mzFbmkXiQmsrLx+XVQemxBpGxJkLtmWCbfRLDP2exCA441MOI9GwiZwOx0PR0N/tUswGeAlSJfYQ3gXwu1zkgnJrijMQbDDkhydyNLSFaIpTSA65qy1W29TdXLO467DU5wy8HqBjqps6v161ZMMHiTI0d30DpPgvgGyj7/qCwWC30bkXG2qGziAVUUI2YbcvUiBnCKadIXg8gTmQ8lHkGV1TZMZD2v7idrvduVTQHIwQHGIeUrMIdrs9Y2/cjz99Pzhp0qQh48ZtGZPOxfS5Tpv8MTPvzCIu/6wip4PPJBCEHBKyao/Z+1qiwWHb/kQcZeL8eDy+sy68lGU5H0wO9Edu9Hq94wULPyBqGDwGTBsI8u0p06a0NTc35yTXLsWxcXt8p4GzZfFvAiGHuIz2nDo1674LAMAiFiGirBrE2Hrt2eyKSoYd5wzdZ1Tto0vxPYDcYDxXEe/9xR7N729NvN/n801lSbeB+eQk4tKxHiVuKLOleu/Ov3S85byMEsq/5Axzw/ozqm5Mlr+RL6Y8udfV1U2w28r/Sf29gUcyt4ejwYuKPQkLi1EA+Tz15zP4BuRXieC5cDR4jOpJDcbrrT987KflqwpRELOz0XksA08ZFkR4tmZx1/zMN2aHKS4ju63illFgDADgQq/Xv7DYk7CwGMl4PEd8yevxL2Xw7ci7LA2ben7gd/v3J+ZHto7rHZKjsu6s6RXtjTUu1T0Jqpu6ngYjZFgQ45jOBU5llR6UGwSf23fSQD2iUYFg3BIIBMYVex4WFiMRTdPqBOKv59IbOxlkYsip3++fIQnPAdhFJOSL2LfFxxDkPzrfcr7b0ehc3L5w2jfXn1E7VYVehhhWBiYvBH6hRA4UGwSfz7c7E6ko5FQqdBDjhJaWlmG+UAsLi8ywpIUY2hQoT0HmGASfz7e7jOM5AFP71dCQ86Lq5q6PBoIXdgfQSEz3C6lv6Gh0vt3Z6PxD+4Kqr+ZbhbR2SUeYgaeNvgdmeNoXTjveqBxA9Q5Bp6Z5siMAACAASURBVN9gaHlnlWwC8BpAbegvPWzuIs14xF4mDgy2BqOm6rGwGMUIZHeYnhEJ5S6jQCAwDjo9BWBneXYinjPsxuRZ5TMZOJdIPG7ri3/U0Vj9Qnuj87L2xhoX53A2KwiXQ8FhOTH9QoVbS1mUkc/tO5SBRlXyBugA6Gam+HNJ4t6F1xs4mFieDuA7AHKpZ5OOXia+NBIN3apInoXFFxZOKJWeL7YKm1KD4HK5HPGY3gzQ3ISXhhkEAq9mYF4acZUAzyNgHiDR2TjtvU6IoAQvZWF7YvpD7RtTDaxe3PXvjoXOP4OHlbfJlf271jhPB7qajAhRFmWkuf2Pg6CqRV8fEV89bsK43z3zzDMZm0sEAoHd4jF5MxjfMKKUgLWQfFpoRUhZGJeFxRcY0jz+7TDuMvokHA0m6yyXL+T11P8x1VmnvUzs3tLSsjN3onOh8xxm3JWnLgngVQKWSsilW2OTgrObV/cNvmH9mbUzhK6/icTaTbmz7tPYxH0T5eeCEoOgadrekOINqHFBbYEUXwuvaFma60Cf1/dDZroJefQwJeDPfXrvuaqbuVtYfFEJ1AWccZtUUW/nlXA06FIgBwCgefy/AvCjVK8TcyDUGtpZcr1r4bTDJNOwpj15sgWMZRD8PLPt+dqmjncAoL3ReTf1ezoMQhfWNHXeke9oNWcIUpypSNZnEjQvH2MAAKFI6DcEPg25VWf8DKDzQtHg6ZYxsLBQh7RJRe1q1ZWs0Nz+i5DGGADDD5bLy3tXQ13BywkgnAymOwjy7Y5G55qORuetRGS4nEU/fHVng7My39GqDpW/rkjOT6PR5S8bERCKhv7GjMuzvP1N0vmwcHR5vttBCwuLFOiEGSrksKIII81dvwCUudQJJZwj9JeuRtYFFHNkLwAXgflXiuRVwYFv5zvYsEHQNK0GgKG6PwAAxrYxWyuUHORGWoO/Ygyrq5+o8EF7mZgbWhkyXO/HwsJiOMRqDIKKstd+j/8IEN+HLNY8Fkl7X6vpK1IYLs034sj4DkG3eQ3LAABCVGXKeGWv47sAktWp2Q7Qt8LR0Des/AILCzNhNS4jg41xvN7AIRL4O7Ktq8aYg+Hnqzn10C4mDNR2rqlOFxWVEsMGgUkOj9vNRw4oqwJu2bK0belmMH136FVaTTaeG44uv0+lLgsLiyQQKTEIJPM/Q/B4jvgSsXwS/U2VsmWi3+93DrnCxhtNFRJmbshnnOE8BAH6korTFmLOtl581oRblz+quf2PgHAKGPd+1rf14ra2thFTTdLtdlcKUT6bpDwAxLMZVEuEKcTYM0l9/a0AugnYxMA6MF6RJF4pK8ObLS0t8WLMv1RwuVxjKisrvwxdzAbxbEDUALwr+rNPd0X/YhEH8CnATKCPGNQO4rWQWCOJ3ujt3fqPtra2WFHfyEiDleQgyLGTx+blv/f5fLuzHn8GeSTL6jrNwaBGQDrL1YJKvL/XIKi/iVQ+44yheX0vgCmv7UkCn9jLxNSWlpYeBbJ24vV6q0ja68Oty5eolGsGgUCgIt6LAEg/HKAjAByEPEJoE9gK0LNM/JjDIZ5S0UGt1Jk/f375li3bPWA5T4COYuBgGP8cP2XgRQF6Toft6Wj0xZxKYJcygUBgXDweH9JPXMqyCUL0JX5mHw/+IxwOf4wUBAKBinif3A7ja0xnOBrM2DwnEa/XO57Y1oL+f/ucIdBloejyX+74e838vcrLJ/VsRQHbDhuE9TL7mBn3r89pPTX+5phUFX7bJd7H3wJwuyJ5AIBIJLIBQMkag4aGBtuGDZuOJvDp8T55EggTFFclHwfwqcQ4Nd4nY5qn/m8Q+m/D4XDGblcjDU3TXJDiG1s3b1tIwK4AKWyOjfEEnMjgEwXiUvP6XgSJ34XDy5+Eyh7c5iI8nnqXjTCfGXMZPIeAqfE+WZ7oPRaIAzLtE/FWAONTvajr+kyAVHyRc3YXzZ49u0yw7a+cpzEAACYe0pRq1jNre9sbnW8TsE++MgsMcV/vngByenAxbhAIurqfA/9c07Rnw+HwiG+Vlwm32z3ZTmXf2dj97oXU3yu4EDgAPh1SnK55/CuY8LNIJGi4uFYx8Xq94wXE+ZLpQsj+kusFWJ0FmOaBeZ7m8b8Fxs/DrcEHC6M6dwYKuJ1PhG8DXMsDszS0WlOGhVpXFHIKyjXCSEyeuOsDDBxtSO/wdrRAfw21kWIQ4LDbcnYVK9ghZNX3Nlt2gRR/93q9nkgk8qlCuSWD2+2ebCP7ZQB9l8Fjithd9DBiPKV5fc8KnS4Jrgi+UayJ5EMgENhNj/HFzPxdBiYVsUfr3iD8yefxnw/J3y2lsifzXPMm9lb0Xc1xXECEsSplZ8oNkIQZpMA85hpyqnn8v2bgtMx3poc4aUTS6wC+ZlR2odjy2cT3gYzNDYegYoewUfFz0Ryw7UEAp2CUtMwDdvpUfwTgf6GuEJ9xmI6RAkdqHv+vP9784bWrV+dfB6UQuFwuR2X5uO/F++S1KKHPkQE3BL2sefx36hy7NN/Wq6rwuX0n9Yi+O8CYYsozB2eI/JFiJlRYhBxCTjW3/3IA3zeuFADRbcPnIiKgEbMkvZ1PTSPDx+YEetuojOEycaLPW79ItdxioWmBQLxPvgrgepTQIjYIB4DLJk3cLappmvEkQ5PQ3IFjKsvH/Rvgm1Gan6MAcKEgR8Tv9ytxmeRKIBCwax7/Iib6GxhTTFMkMizUpCYHgTIZngG8Xv9CkLJGMbeEo8uHnWXWLOlYCtDZBLwIoMQjzvj5fEYZj6OS0pTDSWa+2uv1qyqJURTq6uomaB7fA5DyJQD7Fns+mWEXpGjzev2Gt9wqcbvdlZrHfwtIPgNwyftwCThIxvEPn9v3lULqras7cs94n3wRwE9gUnvcHYgMLiNSVPaa7ZzRZeT1+o8lxv1Q43/9Yzga/GGyFwjgmqbO+6ubuo7Uy+x7gKkR4IcBlFzkHrMtrzLYhj/AQCCwS7xPfghzvoB9xHxsqDW0zATZpuLx1M+1gZu4v1bJSIMBXBGOBm8s9kS83sBhguWDI/Rz1An8nVA0dL/ZigKBwG7xPvkSktTzNwMhsV+6cyfN4/8UuSWDJeOzcDQ4FmkO6z2e+rkC/KICXWDQQ5Ho8m8iR1c1N8DWYa9xC5LHS+CkYkciMfBSbVNXXi1LDS/iA3Htic1rVFHGRH/1eAIF+ZKrQvPUXyjAkRG6iAH9Dwo3DJQJLtp5rc9Tfw6xDI7gz9HGoHs1T/2ZZiqZ55o3Md4nn0GBjAEA3hbbljKc0ePx7AEFC/RA28yUxsDtDuwlwLlmIaeAHnOU0dnI49ySmqHXLukIVzd1XV7b1LUvQ3yJgR8AFMlHnkF6bIKT7nCyQdVT/d8UyUnGLgLyuYEieiXNgP/2FoBvQ79ffqTzI5+3/qeFVtrQ0GDTPP4bGHwXRv7nKAC+z+fxnWGG8Pnz55f3lvc9A+AQM+SnYGO6jH+iMjU1jNJEGHm93ipB8gUAeyjQ9ML4iWNOV5XRX9vU8U5tU9ctNU2dmh6zTyPGOQA9AcD0QAMiXOx8qPuf+Y5XYhCEHX+EuTHYVZDiKbfbPdlEHYZwu92V8V75OICLiz0XlTDzNV63/7xC6XO73ZUbN7z7JIDLCqWzANgYdJ/X6z9WteBPN2/7NQNu1XLTkiEUlKSaPggMTnqgXFdXN4HY9hShP+/EINExWytOzqYzYz7MaF7/bvWSrntqmjpPoBh2ZcijCPgdGN2KVTET/7B6cdfdRoQoMQjBYHAdAy+pkJWGOTZyPOP1elNmRxaLQCAwzkaOp0CYX+y5mAERbvN6648yW4/L5RpjE/bHwXSM2bqKgJ0YS/yH+b+sSuDAofWFquTlQPrIQkV9EJLlIMyePbvMYS/7G4D/UaBiFZN+jMoqy+mobu76rLZpw9Lqpq7vV+/TVSOI3WD6PwWF8zqJcWzt4u7fGp2jsoNgYvkbVbLScChJ8bjb7c67I5BqXC7XmHhMPgvg8GLPxURsxHz/oYceqbwA4Q6OPuDosZXlY59WVBerVJkgBf7icrnGGBU0f/78ciZSWuYlW1jy+vQ3qDEI4GHZ0GLSxN0WK/qO/Fvn2PxiJcDSIkjn4u4VNUs6r6xZ0rX/wLnD90F4Ftm6lhjdAF/VSxVzqpd0PatiXsoKNYVbw0/6PP7njaaMZ4QoYIPj7/Pnz/+qWdu8bHG5XI4x5WObmaGmJ0RpU1XmiN2N/oRBpQQCAfv2vp6/Ic8KjSOMOZXlY68DcKkRIZ9u3n4RFIV25ozIkBtAiualD90haB7/bwA+VYHkNfaYODr8cutHCmQpYaC38u8A/G7dWdMrHL2xg5jIxcC+xNiTiXYBy+0g8QmTfBPSFnp//O4rD7lLbQVepREkPp9vP9bpnyhERUDCo3aH+HoRSzuT11P/AIFNOSwsWZhOCbcuf1SlSM3jux2gC1TKLHGkYPiCrcFoPoNnz55dNmmXXdtNTTxLAxP5I5HloVSvax7feiioz8WkT9jxBO/z1l/LzCoCHDol7L7RVK1WJUoX7lAo9B+vu/73RPmHPWUN4+RYH98N4FsoQlExzeP/MQpjDBjAGjBeY+K1BPEegB4AYJK7EmgaJM8G0SFQEn6XAeJfBAKBJ1QZYq/XdwW4YMZgAwNvEvhtgD4C45OBgqiTAJ4M0F4AZkNN5Eo6hE64FYALeXx3J0+cfAoXyRgAgCOeuuCcy+VyAORM9XoOvL/TGHjqz1FkDN5j0o+KRoKWMUiB8if5nr6tl1WWj60D4FEtOxECn6V5/dvCkeB3M9+tDu2wwDxA/txEFT0MPEWMR2LSsWzlymUZu8m5XC5HZeV4L1ieDsbpMK+0w756H58NwFA0AwD43L4jmel6BXNKRQ8BzwP8KNlpeTAYzKpQmv8w/5eloPkAnwUkrXppGAIO0tz1p4ZblzfnOpYhFhaxsGpPy8qWZK1pAQBlZeNrAWm09wSAfneRptV/lSWrOCv5gGx8RDgUMStnalRgStKR3++vlnG8AmA3M+Qn4efhaPDqQigKzA1MiTvkv9DfbUs17xPRb20Out1II5u6uroJZfaK7zLzZQAmKJwfAICB9ZFo8EswkHTT382K/glgqrqZDcBYB6Jb7WX0R6MNgbze+sOJcRPALlXTG8QbU6ftuX9zc7Oe7QC3211pI8eHAFQFVmxm0BMEXouBnWc6CLQlFF1+R6rXPR7/0QJ4zvi06GEI/bfQxTIYr9S6GUIeGQ6H24zPa3RjWhbqwBfjSRQosSixw5FZ+Dz+vzNwgmKx7wH0yzFby/+gMgQuMDcwJeaQt5IZJXtZzA+3tuQb2UCax/8EgONUTgmEdxn8056e7fcqbncpvG7fxUT0Syj+PhP4+FA09FS293s89W4BzuvsIYE4gBvtZeJXKrvoed3+84hwp2FBzC0gOhDAJIOStkrQ0dHo8lbDc/oCYFoBrGg0+DyYcq4Lki8MvsHr9Z1vpg6v1/9N9caAHtY5tl84uvzXquOhW15ueTcSDZ7KxN9D/wKgDiHPzXeo5qk/A2qNATPonli8d59IJHSnCb2PZaQ19FuSfDgS2kgah3L6HG1q4u/jBD4pHA1erbqlKimqcgqiAIwbgz5iPtUyBtljakXEcOvyJUR8uZk6BkHEdLvmqT/bDOGapk0ixq8UivyYwAvC0eULWlvNDX+LREK3QtApANSF6TKOzydzPBAI7ALwTcrmAXwClidEosvPWbly5RaFcocRWhGKEPMxAJTpYeBYn8+XtdtMMmYZ18m/zGVXkhNERSn7nYQYWH4t1BpS4L764mCqQQCAUCR0E8C/NlvPAATw3T6PT0Ws8lCkWARFZyIMrIeQh4SioYdVyMuGcHj5EwMhsqp2bA4byo7MdVA8Jq8HsKeiObyps5gbbg0/qUheRkKtoVXE/E2oO9W1S0lZl7QgMmwQemPxMvN+j0zFyY0Yik7gbxTyezFaMN0gAEA4GroUhAcKoQv9dWMWq6xF73YH9gWgKjTyLZsd/mL0jQ5FQ38F8DNlAknmVM7C6/XuA4Yqt95rEvH61taWtYrkZU2oNfQYCMqyhEkilxpHBg0Cv7xq1bIPjclIK7/YBoGJ+PxCPmyNJgpiEADwx598eA6IlxZI30DZ7Pq5KoQJ4qug4jCR8R97TNQHg8FO47PKj3A0eB0BSnyqDMrJIBCLqwCoCEl8Q+fYkdFodJMCWXlR0VN2FYD3lQgjHIEsAjwaGhpsAE83qMy0SJt5rnkTYdzvbxC6NBQJ3VPcOYxcCmUQsHr16j6GPAVAoZqQjxPEj/v9/mojQjyeI75E4NMVzGeTncVxLS+3vKtAlhEkdD4fQNahjqkgYLqmaVktAP46/yyAGo3qBLBRwj7f7HOXTCxtW7oZDFWlwXfxeI7I+GT93nvv1QBJm79nTX9Snjn0Onq/ZJbsbGDiK8PR5YVyT49KCmYQACASiXxKNj4GwFsFUciYosfx96MPODrvOGZB8f+F8QQ+KYAFLSta1huUo4TQytC/CFCypRa6yKp6p26jH8P47kAy0cJSKTvwWd+2+whQ4n4hih+Y6R5dJ8ONgiSp74G+E6GoqF1e8NuRSOiG4ukfHRTUIABAKBR6X2dxHICM2bcqIOCgz8b13JvP2EAgMA4MBU+1/NtgNPiicTnqYCGVRPqw4P0y3dNfv54XGNVFTDdGIsvNLrOeNW1tbdsl0x9VyCJGRsNKCiKMbHr6XgaGUFXULj/lX9I89V+kelimUHCDAACtrS1rBeMoKI/pTg4Dp/k8vpzdPrGYPA2A0f4LnWO2Vl5rUIZywuHwP1X4kxmU0U1gF+ULjGeb8tu2crrOmAz12MBLVMhhcMbIK2bDrUQ5RrH1BmWkFq6q7HX+M7hJZb+JLyJFMQgAEGwN/luCjgOjIM0pGPT7gV6vWUPMZylQfHmhGnDkDhsPy2POWDNJEL5tWA3RJS0tLRlLKxSaYGvw1YHev4YgpowGgcBGDcLG1tZWE9s4Fj3kdIwU+EsgEKgo8jxGLEUzCAAQjS5vZYFGqM6iTc5uAo5bsr3Z5/PtDpCh1oQErJ3q3PPPRmSYCRNFDMuASLuD8vv9MxgwGu31SiQSfMKgDPMg490CibBLFnqMhpyaHepcbIMAAHP0mFQXWv0Fo6gGAQAikeDjBD4bBSlxwaf7PX5/VrfqOA6GD0Hp17kULis0Dge1wqAxFuC0xfNknAy3FWXCjShiec+MMBQY1oxhpwTjPYTNOz/oX0tqTJSfNcz4kddbPyrb2ZpN0Q0CAISioYcA/LgQunTgJ9ncx2xwIWNs69N7FhuSYTItLS1bARhK7GJObxAAw32mP5owYezfDcowF5tcbVQEZTB4bvcRVQAMukIydDozgKZpThgMiVUIEfM9gUCgUNWWRw0lYRAAIBwN3gyC6WFjBBzhq/MdkMWNhtxFEHja7No6SmD8x5gASlmG2eVyOcBsrNc0YUmxW6VmgYow6rQ7NZtNGj6w5SRN61VBesnUMNpBVby/gZZFDpSMQQCAcCR4JYPMzzIUdE66l71ebxUAQwltYCpdn/dgBDYaGk+pa+iXl4+fbTS6iIGnjYwvBOFweDMMujwlKH2inWQFC655OwSQoggjQgQKkib74ZM0T33eVXm/iJSUQQDAVdP2OJ+Ax01VQjgFad+77RCjOoSdW4zKKAjSYIMaxvZULxHJjMlWGYg5HCJoUEYhkAC2GhSRNgSbFCy46VpfGoaEkgNlYv4zManra8L864FaZBZZUGoGAc3Nzfr23m0LAKwwUU2V1xs4OPXLPNug/O5i1ivKCYKh/rdMlDJTlxgHGZEN0FsD5xwjAUPuQULqzxEApPEY/950rS8Nw8qK2r3z0ZYPFgF4XYk0wlgbycWzZ88uUyJvlFNyBgHozwDtizuOB8i0/qfEnLLnM4GMPlEY9MsXFGMN0Tm1y4mQOfs2LcSFKXGiBDKUa8LEaQ0CwajLiNbDxEg+hhqXEUl6Z/Xq1X2C8Q0AqhodHTxp4mQrFDULStIgAMCqVcs+lLAdB8CcImaUpkcuw6BB4IKXZM6H/lwLVBkSImRHqpeYMMWQbC5QzSsl8Dgjo0mK7gy3GHsCZ5NzENSUreBtsW3twEDCH/g3CmQOQJf63L6c+3d80ShZgwAA0eiLbzPhTJjxZJN+C76PMdGFKclhFCmNJd4BgE1S6uq1bNggKG3vaDKGyj6zoJQuRpfL5YBhww3TDILb7a4EK2l6tLGtrW3nmdT4ieOuNR4FtxPBRH869NAjd1Ukb1RS0gYBACKR4NPEdKN6yZw0iWYgwihjOYZ0EKjPyPhCISQdZlCEXrGt4p/JXuiv3Q9DPz4SXLJJfYMZ8E+PMSJDCD3lDqGsbHwtjCZJKiivkQohxExk0c8hM0N3Mc8880wvC/FtKIs6wrQyR8wKRU1DyRsEAAi1Lr8awAtqpVLSUgE2thmOSGDiEWEQmHC0QRFvparTtGHDhjEwuIgxUwGy140zceLEzGUn0hObMmVKymY/QhgPOTU1B0Eqy0EYNsdIpGUFEX6vSD7AONnr9RuurTVaGREGAYC0S3EukDrmPQ+SZn1K4wfKIKaS35Z6vd59gDTnKFlAaZodxeNxw0+MnEXBt1JACGEsZwXckbbEiTQewcMsTMxBsCmKMEqeJ7G9Z9tVZDCjfogWiVv6v/8WiYwUg4CWFS3rmekOhSKTPr0qKDEMZFESuuhIYbjPg6TUu7bx8fGGDYKK2PtCQJKmGxOQ/uldxecwptdu3g6BVCTNpd7FtLW1bYfks6DqLJEwlthuhaImYcQYBACwsdJU9ORx46QintpwmWJTCQQCFUT0LYNiYlLGUmZji5gwXsGWeG/DMgoAQ9QaFJB+sTYYwUPAh0vblm42IiMtrKrKaepM6tCKUATAnWr0AAC7Jk/YbZE6eaMDJQbB7T5imgo5mQiuCL6h7HCMkfQHQoCKp/v96uqOLFl3h96nnwPj+QdL0/U1HjhbSJnFnKWOOaX8Oe6AIacbGp/Jv8+G+wyYGnKqKgchUyb1mK0VP4bCntBMfJnf4z9ClbzRgCGD4DvM59W8/rCN4i9ASZRBVrypRAphfdKraro+iTJbX0mW33W73ZUMutyoHBL8SOa7+H2DaoTDFjd68G06BGHoOyMyPuQYc8mwiRFGA6j4zWTMpH7+X89vE6Bzoa4UupDAA263e7IieSOevAyCxxOYo7n9j7OgMBheAF/2eXzHKp5bcoTRmjE7GJ48Fpgb2NN4q8cd0Mlq5KjFRvbrYTSmHfisN1b2aMa7mN41qAcAvq5AhsmwIZcRC065YM9zzZsIwNiCZWIOwkAXQkNJef1kl0kdjAZfZFBePdJTMM0GhxWKOkBOBsHjOaLW5/bfLyBfA+Grg19jwPBTZzYQG8sR+BzxWuIV3aYrOwxm4HiPJzBHlTwVaFpAA+gHhgUR/rhq1bK0pRb672MFSUV8nM/n28+4HFOZbmSwlDKlQeh19Br/TrJ5Re2IytScH+SQSR3Xe34EQF2tMMIpPo/vLGXyRjBZGQS32z1Z8/hvEIi/yYRvImmEDmn9C46pCACGQiV3CmIOJV5joaZi4w4VguQVCuUZIjA3MAVSLobxc6O4sOHmbG4kwr8N6gIAYp1+pECOKQxkvqZtI5oWxrZoNJratSYUuGOkeWWvSUlZbuS0i1m5cuUWJjpPid4BmOlWTdNGRBCDmaRdHI4+4Oixmsd/tY0c6wBchkwdm6S8XuHchqFpAT8bzH4dYFOwNTisy5XyMEfGaV5vwGg2sGHq6uomxBzyaShoccigh4PBYFZPnDLJLixPzvJ6632KZOXNQAmJIZSV9U43JLT/QDm1T1xBjSAphIllrxVVOc3xnCMSWf4MMf6kRDcAEMZCisXJ/o2/SCQ1CC6Xy6F56i/cPr5nLYCfAcjUJnEH9V6v/wRls0tEykuVyGE8gST+SmZj0SJJsBHLxXV1ddl+fspxuVxjHLbyRwhGS1EDAHRG9mVEBno2G4s06kcQ870ul8tQeQgjeL3e8ZXlY25JvG44ByHDQsjGgxz03t7NKQsQGkZNEEZemdTlfWXfB5CpKGAuHFJZPvZahfJGHIkGgXwe3+ljysf+B+Db8ilORowbzbCymru+AcBxaqSJvya/TtPVyB/CTIet4g8oQs5HYG5gSmX52JcAqKnySLgzGm3Juk59S0tLDxjLlegGZlVWjH1ooEZSQXG73ZNJ2l4AaNgOi0HTDQmnTK4SYyGnDHS2tbWpKiM9HDVVTvPKpF7atnQzWJ6vQv8grvR66421fR3B7FykPB7/0ZrH/w8GLWEYytbdt7J8jNLeyJqmHQjiP6iRxu1TnbsnzbBVFU+dRPLpmsd/NwpoFPxu//4xh2wFcKgikRsresquynUQC1bXApNx8sau9/6AwoU4w+/2728j+yoQ6hjDDz6JjR0oZ+EqMfqdHBE5CPlmUodbw08CvETFHAYQxPyFDUUVHk/9XK/Hv0wAzwFI00UsF+gSze03XBoBADRNc0GK52GwvPAOiMRdyerGBAIBOxlN1krPtzSP7/758+eXm6gDDQ0NNp/X97+SsIoMRr8Mhgk/zCfb1eGwPQxAXbE/wrc1r//PgUBAQahjerxe/zcl0LqjFIlI4tZgoumGlNjSHvgKAMayoE3so+xyuRxktPc4jGdS98XLvgfgPaPzGITTRmWKHkBHFkKA7yVAfbYe4U+a22+oPILPU38BpIgA2EPRrDYz6cnrIfXACcCuSE8K6MxPN297WdM0o72Gk+LxBOZs3PDecu7vSZs+ACAXiJ+NRIJ/zmdoS0vLByD8XdlcAIDREO+VK71er9FWp0lxuwN7aV7fC8S4f0heCid92jb0hCxl6pBQTdOcAAw9QCQzYqooL59YA6NlufsxZLRWrVr2IZi+p2Aeg+BTNbf/G2pllj4CoHtMkm0H4R7N47/F6/XmFJanadqB0VaKIwAADRVJREFUmsf/PINvh8EfRAK3hsPhpM1rYjZF4XOZ2R9SrPJ6fD8f6FhmGL/fP8Prqb9PQL42kCioku5YvOwsIwIEq6xBMwBhP2Lbq5rHf4umaUp2j/46/yzN47vLRvJ1MM0bppKHPW2TwSxiHre1LOWCTbrxstIsTSx7Tbqi8wPjcwy3Lm8GKMXZYJ4QbvPX+WcplVni2HXue8hGjhuh8onycwjAxcS2UzRP/U069z2Uqv6Ny+VyVJZVfgUQZ0LiVKj3t2+I6b2/TDlRo77g3Cgj0JWs44eax3e/YLoj2BrMKWbf5XI5xpSNOUISXSDjOJ7AZhy29klQw8qVywxtx4PR4Iuaxx8CoDp01AHgYkjxDa+7/j6y6XeGw+Gc2m56vd7xgsWJDHGaBM8HKOXnKMqHhm/6fL4prBtqjLMpVT8JAGASMw1XabDp5uUgKIowUpVJbS+jC+J97Ic6j8I4tmGxy+XymnowX0LYW1tbP9I8vmaAzjRRjxPgW2zkuNHr8a8SjH8xoWvgtd1BfCCYXFB0TpAMJlyycuXK5BVO0R9ySlSws8odVAJ0gSRc4PX41xPwNBhtLMS/YjHbOl3/ZEtbW1vM7XZXCiEmCSlmMYkDCexh4BgGJpo5Yyb+UTQSbFUhi5ivYaIWFbKSsAsR/xBS/EDz+F8lwotgDkuSa8d+Onb9jkU3EAiM6+vDdCI5U4AOYWY/GHUMVGSx8G5qaWkZWjYlhplGHlsog6uECDPYoD0gMu8MAcQzlFQVUpRJ3dLS8oHX67+EGA+pkAcADMytKBtzNYCfqJJZyvT7zAXfAmmqQdhBBQF+JviHXGXTF+IXMvnASdB0ZSWz8mDgAPhCEEAsUWaXgH0sNM/AR8U7PiYuzDQJD0QioVtViQu1hpb7PP7HGTAvT6V/R3owMw4G6FJiG7aP69n5Gcb7ZP/6zXl9isMW1v7M9vz/NTJXOTWc9LU1FAoZLTCYGomZSuK9FGZSRyLBxZrX/zUwlNUSI6KrfW7fi6HWkKoQ6pJFAEA4HG4DsKLIczGL7RDyuxnvUrX9HQUQ8PzHn3x4jmq5kvQLAHyiWm5BSJovwIbqDBEoUylnYwYhY46DQRTlIKjOpCbBFwFIelaYJ4KJHlR1VlXKfL7hZfpdEedhGky4MEu/smUQ+nnJViZOXL16tfK+0JFIZANAl6mWWxCSHXwaLHXCktenfd2ofJPLXpOa34zyTOpQKLSRwJeolAmgGixGfSjqToMw1bnHXwC8UcS5mMHtkUgwY72TgVZ6RktCjwZWMekntrS0qOxdPYRwdPndBOQVwlpUkoWcGnXp2FJn57pcrjFgGGsONDwqShl1dXUTlNQVY3SYcWAbiobuB+MZpUIZDV6vf6FSmSXGToPQ3NysE/iaYk5GJQS8PH7i2KyeEiZM2L0GI6ydqAms0Dk2PxKJfGqyHo5z7GwAr5isRy1JF2+jncziKRfsioqKGTCYkS0odVlto9hslWpCTk3Mk9BhPweKXZTEuM3v949ab8KQRTAUDT0CKKs9U0ze6NMdX33mmWd6s7lZiILlIJQmjCc+6912ZLqWmCppbW39TML+dajNLjUVKYf6ud1udyWAqQZE9k2dOjVlYTYiu+EFlzl14x2jEEnT+ygbpbX1xW4TXJQTpY4Hi1FTqxAkZuaysONsGce/oKQLUlFYw6TPW7kymPVioyyeegRCjDtt5eJ7ba1t8ULqjUZffNvv9h8lCS8C2K2QuvMgNm3arl2DL9jt9hmsG3qCb09WQmUnOhuO4CG7iSGniiKMzMykBvpdlD6P/2sMqGvFyvC+u2HTVQCuS3eb5q5vSFWDjZgbQq2hlzSP/wMAYKKFkcjynS4uj8ezh4D9dQB2CHnUQOCP6QxzkwSDwXUEUn0gUyjWMOmB/sPLXFBU031k0UPE54Ragxe0tLQU1BjsINga/LdgHE1A5u5rRYSSLd66sYcIQoaF0HhvDq7cXNluUEZKlPUOYWluJBTAOuznAlDqCmXmazyeene6e3T0LYOQR0HIowD8l4CXd/zdJ/teHrhtEgCdGOcOHitgPxP9LsNJML2kzmC9SQhFl99NZpQbMJflEnEtd2OAL2LI6ZsSwh2KhMwqW5I1wdbgqyzkoQDeLPZc0jA8BwHCWGvL5HWRdqIggidtFrRhVPVBSNNPWhXR6IvtTHylYrF2wZy210lra+tH4XC4LRwOtxGwhUE7/05Ikv0TwMd7vd7PA1sY3wL4AcVzzkjKg9TtfdsuHmgkU+owM900ddqeR0aj0U15STAaT21yeJ9C4iDcYC8TB0WjLaq6mRkmHA6/o3PMCyBpWfJik+zgk42WOqH02blMhkupmPudVLRDSNdPWiWRSOh2BoJKhRJmOGxlhpM3Cfw6GG0kbd8AAL/b7wGhhsnWbHySuZHSILS1tcU+3vLhqQQ8XsgJ5QThXQI3RFqX/zitPzajGIPx3kLXmPh7AFKWxig6hAiEPCwcCV5hZlhpvrS2tn4Ujga/8v/t3V1sFFUUB/D/ubPdCkRLULAENI0mqKQQEkJxl91lA7X6QIwISkLEmBg08UHfTJ98NbyZ+PGg4oug0YoxIfiB2mxndmYLWkmMTSQkqKFFxAeJ0Gi3O/f4UFBsy37dmd125/wed3fu3DS7PXNnzj0HoGcRTJe1wMxR1A6kuMts1Aq3Sti07HXIV95sXvYawJW6L+Jqp60YngJwpdIHa0P7gij1T0QHQdgPgDThaRAOMwc918rKplqOjo4WO1fd/iiAAzCushUoDfC7xam2bsdzjpgM1Luxt8Mon5ox4brur67rvOZzbC0YH5vMJwRnCLw779qpRj2YMsB5b+hNJr+HgcFmT+YaZpyZ/eLs7mk1jVnmVklPz/ZbAXSYjB9m9k46nV7+v7Lg9Qp7J/UM073AKfiaRIQ3svdnu0yGsOL0PoDlqdTWHQAeY6im3M6tmHs/MDDg5z27H0x7AIRXF6VKBBwnzZvynvPkyZNfGz+MLMaLpuUB/m2SXigMjucL9i5o9QDAedO5mU0L3zBhTyyu1poGzUZzXXfU9eztxLwTzd0sqRk44qP4+ey32OgK3vf9GwaEeHyyy2RsINz8fq0tw9XLVSFunLuRvDf0Sgi/zY6S8o1SUXO53BUGfQDN7wB01nVz3wY5wWpVvRkrXxga8HnqXoDfAtDorJQpAg5D6Q2OZz/oDDuBbWrylXG2yKwvdX4491Xec9JqupfxFwC0yTlqcIlBb5PmlOPZPa5rf9isDKIgOAXnk7xnd0PRw2js/phxAAdiWt3tevbuQqHw1/Vv9q3vWwKzVNk/yu35IG3eB8EK9bmWNlodXUNUvnRHSLTP1n4EW+sIAKXOj114yWwIOgjgNibdtGSPmtKZrn6Jn8lkMi/zFF5kYF8gS8e5MYARAB+pGN6zbftcKGcxzacus+y1PXsQwGB2c3Z1SeknQNgLYJ3B2eZyDsCXBP7UilvH5uPzAUM6nx86CuBoMrntbuKpvUT0OIDugM9zBoTjpHnAKTgOygTx4rJiG4ror/9UVP6+ucZZKJPxARVX35scXw6zOkvQRvMDACadC2A6NSsUcj+m0+kU+7QTQE3Nu2ZYhOv6yBBRZ3ZzdnXuRG5s5gc14SDAM3+bDKCfmEYAwHVzw6nk1hfa2tQhAIjHcaFURD8zh/O/bw5GW0v61vctmbj570cI2AVGCoBpB7CLYJwAUU7DOuJ5g6HlUV+TSmZeB/BcvccT+HnHc16t9vPZTdnOUkxvA3EWoHUA7kH1fSB+4+l85lNMOKW1OlEo5OZzumZo0un0Sq1pGzFvAbAOoG4AS6s8/CKA0wC+A2hEw7Ib8V0TYr4LtBFBKpVaw6wSCtigGXfQ9Nb+O4FZq4jfAYyDcI6Zx4jVD6qNh6cf+jRWakv6MzA9VO/xBN7heM4xkzkkk8kVSqmVSqsOn7CUNLUT6SJra4ItnmS2znd0tI9VW4ojqhKJxLJYLNbJbK0g329nqFsAgKD/JNBljvGlUqn008xbQEKIaQ1vETbfpJKZ0wDW1Hu8z+q+qF6lCyFaS9QrfCrAKN+b29vxc0BzEUKIpop0QMhkMqsAtBsMMd6CD3GFEBEV6YDAU2ZF7bhCk3QhhFhIIh0QTOuxqIVTw0gIISqKeEBQZiuEkGu5CyFEI0U6IGjTEr6yQhBCtJBIBwQybIzDqnwJYyGEWEgiHRBM+yBobclDZSFEy4jsxrREIrHIorYJ1P83mMx79mI0rnCdEEKEKrIrBKXUXTALiL9AgoEQooVENiAEUGJYnh8IIVpKdAMCmQUEkgwjIUSLiWxA0KzMVggVmqQLIcRCE9mAYNoknWWFIIRoMZENCDDclCZ7EIQQrSa6AQHoMjlY60nZgyCEaCmRDAi9G3s7UH27xblcLtckXQghFqJIBoRivGi0QxkgWR0IIVpOrNkTaIYS0U0KGPnvFV6MqhvlMDPjUCgTE0KIJvoH72Qbri+yC+0AAAAASUVORK5CYII=" vertex="1" parent="1">
          <mxGeometry x="840" y="257.58" width="153.67" height="80" as="geometry" />
        </mxCell>
        <mxCell id="2P2w4gMl4hyvQ_OGWpci-9" value="" style="edgeStyle=orthogonalEdgeStyle;rounded=0;orthogonalLoop=1;jettySize=auto;html=1;" edge="1" parent="1" source="2P2w4gMl4hyvQ_OGWpci-10" target="2P2w4gMl4hyvQ_OGWpci-36">
          <mxGeometry relative="1" as="geometry">
            <mxPoint x="1074.4714008202027" y="528" as="targetPoint" />
            <Array as="points">
              <mxPoint x="1030" y="528" />
            </Array>
          </mxGeometry>
        </mxCell>
        <mxCell id="2P2w4gMl4hyvQ_OGWpci-10" value="" style="outlineConnect=0;fontColor=#232F3E;gradientColor=none;fillColor=#116D5B;strokeColor=none;dashed=0;verticalLabelPosition=bottom;verticalAlign=top;align=center;html=1;fontSize=12;fontStyle=0;aspect=fixed;pointerEvents=1;shape=mxgraph.aws4.sagemaker_model;" vertex="1" parent="1">
          <mxGeometry x="916" y="489" width="78" height="78" as="geometry" />
        </mxCell>
        <mxCell id="2P2w4gMl4hyvQ_OGWpci-11" style="edgeStyle=orthogonalEdgeStyle;rounded=0;orthogonalLoop=1;jettySize=auto;html=1;exitX=1;exitY=0.5;exitDx=0;exitDy=0;entryX=0;entryY=0.5;entryDx=0;entryDy=0;" edge="1" parent="1" source="2P2w4gMl4hyvQ_OGWpci-12" target="2P2w4gMl4hyvQ_OGWpci-19">
          <mxGeometry relative="1" as="geometry" />
        </mxCell>
        <mxCell id="2P2w4gMl4hyvQ_OGWpci-12" value="" style="shape=image;html=1;verticalAlign=top;verticalLabelPosition=bottom;labelBackgroundColor=#ffffff;imageAspect=0;aspect=fixed;image=https://cdn2.iconfinder.com/data/icons/font-awesome/1792/github-square-128.png" vertex="1" parent="1">
          <mxGeometry x="110" y="49" width="128" height="128" as="geometry" />
        </mxCell>
        <mxCell id="2P2w4gMl4hyvQ_OGWpci-13" value="" style="edgeStyle=orthogonalEdgeStyle;rounded=0;orthogonalLoop=1;jettySize=auto;html=1;entryX=0.5;entryY=1;entryDx=0;entryDy=0;" edge="1" parent="1" source="2P2w4gMl4hyvQ_OGWpci-14" target="2P2w4gMl4hyvQ_OGWpci-5">
          <mxGeometry relative="1" as="geometry">
            <mxPoint x="320" y="297.28999999999996" as="targetPoint" />
          </mxGeometry>
        </mxCell>
        <mxCell id="2P2w4gMl4hyvQ_OGWpci-14" value="" style="aspect=fixed;perimeter=ellipsePerimeter;html=1;align=center;shadow=0;dashed=0;spacingTop=3;image;image=img/lib/active_directory/internet_cloud.svg;" vertex="1" parent="1">
          <mxGeometry x="118.44999999999999" y="259" width="121.55" height="76.58" as="geometry" />
        </mxCell>
        <object label="" id="2P2w4gMl4hyvQ_OGWpci-15">
          <mxCell style="edgeStyle=orthogonalEdgeStyle;rounded=0;orthogonalLoop=1;jettySize=auto;html=1;exitX=1;exitY=0.75;exitDx=0;exitDy=0;entryX=0.5;entryY=1;entryDx=0;entryDy=0;" edge="1" parent="1" target="2P2w4gMl4hyvQ_OGWpci-3">
            <mxGeometry relative="1" as="geometry">
              <mxPoint x="218.2199999999998" y="481.5" as="sourcePoint" />
            </mxGeometry>
          </mxCell>
        </object>
        <mxCell id="2P2w4gMl4hyvQ_OGWpci-16" style="edgeStyle=orthogonalEdgeStyle;rounded=0;orthogonalLoop=1;jettySize=auto;html=1;" edge="1" parent="1">
          <mxGeometry relative="1" as="geometry">
            <mxPoint x="930" y="789" as="targetPoint" />
            <Array as="points">
              <mxPoint x="40" y="524" />
            </Array>
            <mxPoint x="50" y="409" as="sourcePoint" />
          </mxGeometry>
        </mxCell>
        <mxCell id="2P2w4gMl4hyvQ_OGWpci-17" value="" style="shape=image;html=1;verticalAlign=top;verticalLabelPosition=bottom;labelBackgroundColor=#ffffff;imageAspect=0;aspect=fixed;image=https://cdn3.iconfinder.com/data/icons/fatcow/32/page_white_cplusplus.png" vertex="1" parent="1">
          <mxGeometry x="510" y="159" width="32" height="32" as="geometry" />
        </mxCell>
        <mxCell id="2P2w4gMl4hyvQ_OGWpci-18" value="" style="edgeStyle=orthogonalEdgeStyle;rounded=0;orthogonalLoop=1;jettySize=auto;html=1;" edge="1" parent="1" source="2P2w4gMl4hyvQ_OGWpci-19">
          <mxGeometry relative="1" as="geometry">
            <mxPoint x="836.8400000000001" y="113" as="targetPoint" />
          </mxGeometry>
        </mxCell>
        <mxCell id="2P2w4gMl4hyvQ_OGWpci-19" value="" style="shape=image;html=1;verticalAlign=top;verticalLabelPosition=bottom;labelBackgroundColor=#ffffff;imageAspect=0;aspect=fixed;image=https://cdn1.iconfinder.com/data/icons/hawcons/32/698336-icon-88-document-file-c-128.png" vertex="1" parent="1">
          <mxGeometry x="420" y="49" width="128" height="128" as="geometry" />
        </mxCell>
        <mxCell id="2P2w4gMl4hyvQ_OGWpci-20" value="" style="html=1;verticalLabelPosition=bottom;align=center;labelBackgroundColor=#ffffff;verticalAlign=top;strokeWidth=2;strokeColor=#0080F0;shadow=0;dashed=0;shape=mxgraph.ios7.icons.data;" vertex="1" parent="1">
          <mxGeometry x="930" y="749" width="50" height="70" as="geometry" />
        </mxCell>
        <mxCell id="2P2w4gMl4hyvQ_OGWpci-21" value="" style="endArrow=classic;html=1;" edge="1" parent="1">
          <mxGeometry width="50" height="50" relative="1" as="geometry">
            <mxPoint x="160" y="499" as="sourcePoint" />
            <mxPoint x="160" y="619" as="targetPoint" />
          </mxGeometry>
        </mxCell>
        <mxCell id="2P2w4gMl4hyvQ_OGWpci-22" value="" style="endArrow=classic;html=1;" edge="1" parent="1">
          <mxGeometry width="50" height="50" relative="1" as="geometry">
            <mxPoint x="191" y="619" as="sourcePoint" />
            <mxPoint x="191" y="490" as="targetPoint" />
          </mxGeometry>
        </mxCell>
        <mxCell id="2P2w4gMl4hyvQ_OGWpci-23" value="" style="outlineConnect=0;fontColor=#232F3E;gradientColor=none;fillColor=#5A30B5;strokeColor=none;dashed=0;verticalLabelPosition=bottom;verticalAlign=top;align=center;html=1;fontSize=12;fontStyle=0;aspect=fixed;pointerEvents=1;shape=mxgraph.aws4.cluster;" vertex="1" parent="1">
          <mxGeometry x="120" y="621" width="98.22" height="98.22" as="geometry" />
        </mxCell>
        <mxCell id="2P2w4gMl4hyvQ_OGWpci-24" value="publish explicit ratings" style="text;html=1;align=center;verticalAlign=middle;resizable=0;points=[];autosize=1;" vertex="1" parent="1">
          <mxGeometry x="362" y="479" width="160" height="20" as="geometry" />
        </mxCell>
        <mxCell id="2P2w4gMl4hyvQ_OGWpci-25" value="projects profile" style="text;html=1;align=center;verticalAlign=middle;resizable=0;points=[];autosize=1;" vertex="1" parent="1">
          <mxGeometry x="454" y="669" width="110" height="20" as="geometry" />
        </mxCell>
        <mxCell id="2P2w4gMl4hyvQ_OGWpci-26" value="&lt;div&gt;new &lt;br&gt;&lt;/div&gt;&lt;div&gt;ratings&lt;br&gt;&lt;/div&gt;" style="text;html=1;align=center;verticalAlign=middle;resizable=0;points=[];autosize=1;rotation=-90;" vertex="1" parent="1">
          <mxGeometry x="110" y="537" width="60" height="30" as="geometry" />
        </mxCell>
        <mxCell id="2P2w4gMl4hyvQ_OGWpci-27" value="&lt;div&gt;show &lt;br&gt;&lt;/div&gt;&lt;div&gt;ratings&lt;/div&gt;" style="text;html=1;align=center;verticalAlign=middle;resizable=0;points=[];autosize=1;rotation=90;" vertex="1" parent="1">
          <mxGeometry x="180" y="529" width="60" height="30" as="geometry" />
        </mxCell>
        <mxCell id="2P2w4gMl4hyvQ_OGWpci-28" value="&lt;div&gt;GitHub projects, topics&lt;br&gt;&lt;/div&gt;&lt;div&gt;and users preferences&lt;br&gt;&lt;/div&gt;" style="text;html=1;align=center;verticalAlign=middle;resizable=0;points=[];autosize=1;" vertex="1" parent="1">
          <mxGeometry x="245" y="119" width="160" height="30" as="geometry" />
        </mxCell>
        <mxCell id="2P2w4gMl4hyvQ_OGWpci-29" value="scraping and tidying" style="text;html=1;align=center;verticalAlign=middle;resizable=0;points=[];autosize=1;" vertex="1" parent="1">
          <mxGeometry x="408" y="40" width="140" height="20" as="geometry" />
        </mxCell>
        <mxCell id="2P2w4gMl4hyvQ_OGWpci-30" value="&lt;div&gt;twitter data and&lt;/div&gt;&lt;div&gt;implicit feedback&lt;/div&gt;&lt;div&gt; of projects&lt;br&gt;&lt;/div&gt;" style="text;html=1;align=center;verticalAlign=middle;resizable=0;points=[];autosize=1;" vertex="1" parent="1">
          <mxGeometry x="280" y="299" width="120" height="50" as="geometry" />
        </mxCell>
        <mxCell id="2P2w4gMl4hyvQ_OGWpci-31" value="ratings stream" style="text;html=1;align=center;verticalAlign=middle;resizable=0;points=[];autosize=1;" vertex="1" parent="1">
          <mxGeometry x="718" y="277" width="100" height="20" as="geometry" />
        </mxCell>
        <mxCell id="2P2w4gMl4hyvQ_OGWpci-32" value="suggestion model" style="text;html=1;align=center;verticalAlign=middle;resizable=0;points=[];autosize=1;rotation=90;" vertex="1" parent="1">
          <mxGeometry x="920" y="399" width="120" height="20" as="geometry" />
        </mxCell>
        <mxCell id="2P2w4gMl4hyvQ_OGWpci-33" value="User profiles" style="text;html=1;align=center;verticalAlign=middle;resizable=0;points=[];autosize=1;" vertex="1" parent="1">
          <mxGeometry x="449" y="798" width="90" height="20" as="geometry" />
        </mxCell>
        <mxCell id="2P2w4gMl4hyvQ_OGWpci-34" value="" style="endArrow=classic;html=1;" edge="1" parent="1">
          <mxGeometry width="50" height="50" relative="1" as="geometry">
            <mxPoint x="980" y="789" as="sourcePoint" />
            <mxPoint x="1030" y="699" as="targetPoint" />
            <Array as="points">
              <mxPoint x="1030" y="789" />
            </Array>
          </mxGeometry>
        </mxCell>
        <mxCell id="2P2w4gMl4hyvQ_OGWpci-35" style="edgeStyle=orthogonalEdgeStyle;rounded=0;orthogonalLoop=1;jettySize=auto;html=1;exitX=1;exitY=0.5;exitDx=0;exitDy=0;" edge="1" parent="1" source="2P2w4gMl4hyvQ_OGWpci-36" target="2P2w4gMl4hyvQ_OGWpci-44">
          <mxGeometry relative="1" as="geometry">
            <mxPoint x="1270" y="656" as="targetPoint" />
          </mxGeometry>
        </mxCell>
        <mxCell id="2P2w4gMl4hyvQ_OGWpci-36" value="" style="shape=image;verticalLabelPosition=bottom;verticalAlign=top;imageAspect=0;aspect=fixed;image=data:image/png,iVBORw0KGgoAAAANSUhEUgAAAYQAAADKCAYAAAClmDd7AAAABmJLR0QA/wD/AP+gvaeTAAAgAElEQVR4nOydeXxcVdnHf8+ZmSxdadnadJK0lQLSAi8MJczMnckABSkgm0RoCgoqu6Iir+xYEX1BREXZZBEEmqJRQPalhXS2tMUAKhWkhTZbC2VtaUuSmXue94+kJZnMfs+dmYT7/Xz4fMide57nzHTmPPc851kIFhYWFiOYdxqn1jrY9k1JOIaAWQDGAvgAwCsAPWYfp/+l6q4N24s8zREBFXsCFhYWFvmwqWH3cT2OiusAvhiALc2tXQy+srap+8FCzW2kYhkECwuLEcc7jVNr7bA9D2DvrAcx/vhpfOIFs5tX95k3s5GNZRAsLCxGFJ2NzlkMvAjAmcfw5zeN2/P4Q+5qi6me12hAFHsCFhYWFtmyqWH3cQw8ivyMAQAcvcfWd+9SOafRhGUQLCwsRgw9jrK7Acw2JoXO6lhQfZWSCY0yLJeRhYXFiKCjsfpEgB9TJE4CdHhNU2dQkbxRgWUQLCwsSp51Z02vsPXFVwOYqVDsOxWx3gP3aH5/q0KZIxrLZWRhYVHyiL74uVBrDABgZq+j/OeKZY5oLINgYWFR0jBABFxkkuyL1p9edZAZskcilkGwsLAoaboanfORS75BbtiEEH/gRdZaCFgGwcLCotRhnG2yhrmda6rPMlnHiMA6VLawsChZuAG2TodzE4DJJqv6UNh5H+cD3R+arKeksXYIFhYWJUuXzXkIzDcGALCr1HFdAfSUNJZBsLCwKFkk4fCCKWM6r72xxlUwfSWIZRAsLCxKFkF0cAHV2Qjyzi/yAfMX9o1bWFiMBHj/Ais8pGuN89sF1lkyWIfKFhYWJcma+XuVl0/q2QrAXmDVH9lZ7lO1ZMMHBdZbdKwdgoWFRUni2HX7bBTeGADAZJ3EFzKD2TIIFhYWJQkxFdpdtBMGvtO1cNphxdJfLCyDYGFhUZKQRNEMAgAhmW7lhrStOUcdlkGwsLAoTYjmFHkGrk5H9blFnkNBsQyChYVFqWJkh/CRminw9RsbpuyuRlbpU4wDGwsLC4u0bFhQtVscqMpz+DbodChs/DKASQanMjlmt98AYMSFoq47a3qFiMmZLPUpRCyIbAICG+yV+jtVd23YnmyMFXZqYWFRcnQ1Tjtcgl7MazBhZc3irsPaF0w7j4juVDAdFsxe55LuVgWyTGPNwr0mlFNvgCQfCcDH/TusZA/9MQCtxPgr4rinurnrsx0vWDsECwuLkkMH7Z/v0ypL/AsAavbpvrvzLee3Acw1OB1iotu4AXOpGbpBWcpY3TC7bLxjy2GAnMegecQ9c8Gwc+ahDgB+JvjhwBXtC2q+Wbuk4wXAOkOwsLAoTfI+PxDUbxBoESSILgIgjU6GgYO6HM4LjMoxOAfqOmPagR0Lqi/paHQ+Pd6x+SOAlwN0DQFu5PeAP5VIPtOxsPo0wHIZWVhYlCAdjc6VAA7Na7Agf81DnaEdf3Y2Ov/AgIpooU/i7Nh35pJ17ymQlRXvNE6tdcA2j8HzGHQEAXuYpGorQxxouYwsLCxKCl4E0fkWZuc7XLfb/j3kSgxXwIFTAOxmcGq72BG/EcBZBuWkZFPD7uM+czgOExDzGJgHwNXvAiKzn97HCcjvWzsECwuLkqLzDOdeLLEmn7EEtFc3dU0fJnOh8xxm3GV4cgAzC3/tko6wAlnobHBWSof0DhiAIwEcjOK58jutHYKFhUVpIXFAvkMZ9K9k152zuu7tfMv5HeTrhvocIpK3cQAuakE85/k1wNZpqz6IiecJwjwGvARRkcVBcCFwWgbBwsKipJDAAXm7LkgmNQi0CLK9UVxIkCsBw+UoDuiocl4EdN2Szc3tjTUzATlPgOZ1go8EeDIBKBEjMBiyDIKFhUWpkX/JChavp3qptqmjraOx+m6Az89b/gAEXLf+jNq/TH+ofWPia2vP3HOPsnjZkQDPI8KRDFkLAFyKJmAoPZZBsLCwKCnIQMgpM/073esU46vYgVNh/IB5go31u9edNf3Usdu22XvLyn3MPA+gedCxP4gJKMldQDpWWofKFhYWJcOGc6vGxLeKLcjPrdNbvaFrXCbffmej89sM3JPfDIfRA6AMoyKni64ZBW/CwsJitKBvFXOQp4+fgP9kc9Dr3LvrPgZUlaGowKgwBogJkvePhjdiYWExSmADJa8Z6d1FO6BFkCzkd4HSKUNRdJianIu7uyyDYGFhUTIQc94hpxgoWZEN0x/a8AqI/5C3rtHFZ3aHfi0wOrY6FhYWowcjPRCy2iHsgNl2NQObDOgbFTDzD6se2NABWAbBwsKihGADBkGSyMkg1DZ1fExEV+Srb1RA9JfaJd07d0qWQbCwsCgJ1p9ROxVAvt3JPkiWE5CJ6sWdKg+YRxpre1F+zuALlkGwsLAoCUhnAwfKubmLduoEmKW8CF+8A+bNTOLEWYvXbhl80TIIFhYWJQGJ/A+URZ4GAQCmP7zhVQB35DveZDoAvp8YZwL4lSKZcWbRULu44z+JL1iZyhYWFqWBxP5513jm/A0CAOhl9mtEX/zrJvYbyJYPCPQSk3yRmJZVN3WtAYB1C6r2tUH8XoUCBi7a0SEtEcsgWFhYlAREfEC+pR5Y0D+N6J5x//pPOhqrLwP4PiNy8uAzgCIMXgqIpTV7d7xKi4Z2eOv6xrRdZZweB7CLYW3MN9cu6U5ZBtwqXWFhYVF0OAB7Z5XzU/Rn/uaKLLPFJkx58L1thuYAUGej8yUA9UbkZEACeJWApRJyqSwrC8+4f31PqptXN8wuG+fY/CwBhxtVzMDTNbGuE9L1hbZ2CBYWFkWnu2raHORnDADgbaPGAOg/YO4S/H0p6R9QuzauBWgpMS9FHC9VN3d9lM0gBqijbPO9xMaNAUCvlNv6vk5N6Q/PLYNgYWFRVN5pnFormX5jwF9h6PxgMM6Huv/Z2ei8nYGLDYh5H+BlBFoal/ZlMx5evz4fIV0LnNcQ4wwD8+iH0U0OPmHKA5mNpmUQLCwsCs76M2tnkK6fQKAGgN2g/CMeCdmXrMiGHqq4ppx7GgBMzXJIxnOAXGlvnNbAwCIjMgbYDkEnVz/Q2Z3NzZZBsLCwKAjtC2pmg2QDAcdD1139V5V0DFC2QwCAWYvXbmlvnHY5gf6U4hYdwGvZngPkSsfC6rlgvh/Gz3glQI01iztfznaAdahsYWFhCtwAW2d5tQcSJwPyZICmm6GHgL13hGeqggHqXOB8EYTAwN//JWApEZbFHfaXZty//hOV+nbQ3lgzkyBXIP+M7UHwJTVN3b/JZYS1Q7CwsFDGmvl7lVdM7jlCSpzcQTiRJA/E9Zv27LnduXfX26qFEsBvx8tOstt7/HbGa9Me3tCpWkci686avgvFYk+CSYExoDtrmrpyMgaAtUOwsLAwSGeDs1La5TxBooGBEwBMLKD6VTVNXXUF1GcK/zjX5dhj67tPAXSUAnHPV2/oOi6bZkGJWDsECwuLnOlscE6WDj5eQBzP4GMJYmwx+gez4gPlYrHH1ndvUWIMiN/QHY7T8jEGgGUQLCwssqT79KrquBAnAziJAT+BbFz8NvKvF3sCRulorL4U4AuMymFgk9Qdx85YnP/5hmUQLCwsUtLeWDMTkF8lUIMO9lCpuZmJR7RBWH/6tOMAvkGBqB4b80m1eeY87MAyCBYWFkMYFB7aAMj9+q8WfSeQFF2WjViDsP6MqoOFpD8DsBkUxQR8x7mk23BfB8sgWFh8weEG2Lod0/w60cnEOAmQ1cWeUzYwsGnmknXvFXse+dC1cJpTSnoCwFjj0uja6qbOxcblWAbBwuILS38ClDy7E9QAYDcqzU1AUhjYJBg/KvY88mFTw+7jPmN6goAqo7IIeNDZ1PlzFfMCLINgYfGForPBWSkdOIcY54B5TqkdCWSgC8BjTPxYTXf38nwjaYoJN8DW5ShfQsD/KBAX7Pm44hxS6M+zDIKFxRcAXgTR8da0rzFwIwEzRpAdeIeAJyWL5polHRGVi18x6LRX/wrg4xWIescRi59a88zaXgWydjJyvhYWFhZ50bGwei4xP8DAvsWeSxYwgJeZ8aiEfGzGkg1vFntCquhorL4A4NsViPrIJqRn2kMb/qtA1hAsg2BhMYppb5z2DQLdCaCy2HNJgw7QCgY324j/5lzc3VXsCammo7H6KwA/CeNemRgTz69d3L1MxbwSsVxGFhajlI7GaVcCpOzAUTE9/dVC8YTOjr+P1GihbGhfWLMfWD4MBestM3+vtskcYwBYOwQLi1FJ50JnIzMeQmn9xj8m4EkQHrWNlc9V3bVhe7EnZDbvLJixp4NiKxmoNSqLCDdUL+66QsW8UmHtECwsRhntjTWTmOXvURrG4H0CnpUsm7fGJz03u3l1X7EnVCjWnTW9QvTFHlVhDBj4W/WsrqtUzCsdlkGwsBhlEPO1IEwuln4G/isIj0LHY86Hu1Z9Hhm0oVhTKjgMUFef/gADbgXiVokYzjTahS0bLINgYTGK4EUQnW/xwiKo/g8DzYB4orapo60I+kuKzsbq6wFuMCyI0U0OnFLd1PWZgmllxDIIFhajiM43qw+GYAUNVjISJyAIxmOC5WOFaCAzUmhfOO2bYL5SgagtJDC/+oGurPohq8AyCBYWowmBvUzWsJYYN5KDH3U+0P2hybpGHJ0LnPXMuEuBKJ0Ip1cv7lLaLzoTopDKLCwszIVJlpurgdZLyPemfdZtSk/hkcy606dPZ8IjAMqMyiLgB9WLu55RMK2csHYIFiMSt9tdabfbd5kyZcqm5uZmvdjzKRWEpK1samwRzyMS8zodzq72hfijwybvrXpgQ4eZGkcKdlv8PGYVh/kcrm7qvtW4nNyxDEKR8R/m/7IU9ODgawy8GokuP8eIXJ/bV88kbk72GoH7JLABjBfGbqt46Pl/Pb/NiC4A0Dz+qwA6echFpqvDrS3PGpUNAHV1dRPs9vIGYpyM/siNyawDG7vfi2ke/3oGNzuk7e6WFS3rs5XpdfvPI6JBnzMvDUeDl6cbo3n81wN0zOdD+L5wa/C2XN6L5vG3ADQum3uZ4idEIpGsw3NipP/Dbri8flY4iXFtPC6uam90PkdMd1dv7HxyJBacUwWDXlNTakn0KBCSF5ZBKDJS0C8Adg2+JoDpAAwZBCY6LFHuztcwEKBO+Nr2cT1X+t3+k4KtwVfz1eV2HzENiF8F8NDyCMQaAEMGweVyOSrLx10A8DVg7JbkFgeAWQS6MiZ0AMg6VpsEjgQP+YyezDSGgWMJfNDnQuiWbPUBgNfrrQKjPsuFY3skEnk3F/kzmza2dzY621XEvmeJjYBjQXxsZ5VzQ8dCvk/XHffMMNi5ayRS3df5106HczWA2cYk8RGdC537F/r8ALDOEIqKz+07FOATE68zsGv/Ips/DJqT5a01UuDpQCCwS766BOnXI2mtHDowX5kA4Ha7J1eUj30W4FuApMZg6Dwg1uekgLH/4D8JnPYHGAgE7AR8efA1CcrpR0vScUDW9wKrgdxjzyVwR65jFFEFpqtsIv52R2P1C+2N0xr+ca7LUaS5FBxqhg6QiuQxwVyckiOWQSgiTHQDUmSTChE3tJgShi526SeCKXqML8xHj9sd2JfAZ6QQnPXil4jH49nDRo4VBByR7Rgd3J7tvfPnzy8HhkbkkE7/Sitf1/cGUDHoUrysDDlV4yShZ/3vwkBeT4gihrsBbMlnrCIEwPMI9Jc9tr3X0bnQ+X8dp1V/qYjzKRjVTZ2Pg7DSuCT+ateCaSqS2nLCMghFwuv1Hwvg8FSvk0Tei6nL5XIAPKTUMYEbIOQhEPIwJv4egCF11Jl5Xj667CRvRGrXY82hhx65a64y58+fXy7I/giAWQkv9TD49wKot8fEVLJxFRMdAeCPAHQiPWuDsPXjrbMT5r09uDL4dtpBesK/CeOtlpaW3Py9khLcCXzfwL/LsP+Y9Gtykj1AdXPXRwRcks9Y5TCmMONy2HhNR2N1uL3ReW5ng7OUK68aggAG049VyJKgG1XIyQXrDKE4CGL6RYIfeTuAMTv/ovzdLRUVFXuDMTj8MPbR5o8eX716Zx2ZlZrHfxCAbw26Z0quevxuv0cCJyRcHvI+ym19cwAsz0Xu1i3brwLDm3D5NWHHKcFgaF3C9Y0AXvK5fU06y6yjXaSN9k9oGfk6MrhnJLD/4O0cUe5P8Ew4cOjftCwSDinP7K1u6rq3o7H6RIC/qlp2nhDAXgK80oGftS90/skW53ucf+5+q9gTU01NU2ewo3HaCwAdZUgQwde5wHlM9ZIuJYEZ2WDtEIqAz+NrBHjwwqAT8aIhN3H+7hbBItEt8eYgY7BDQWKnpc256pHgBD8nh8EYUpqXSeRk2LxebxVLTny6fT2m99YHg8FEY7CTUGtoWWtra9bp/ZRwfsBI7y7qH0MJY3IzCIFAwI6EJjU2iYx686WXys8AUHJlJAjYgxj/K230345G5z/aG53nbji3akzmkSMHhu0KKAg5YuAGXlS4ddoyCAVm9uzZZQwsGnyNgIfj0vYohl7cx+1257W1lonnBwlPsv1y6SuDrzEoJ1+45taOB1FgiBrG1cPk5GjYiG3ngjB20KW4kPj6ypUrlfrEE89YKJvFnYa+F85xhyB75CwMPYPo+3DLh8q7Xu1g1uK1Wxyx+HwwXjdLhwJcBPwhvlW0dzROu3ndgqqR0NUtI7VNHW0MPGJYEOHAjv9OO1XBlLJiRLiMNE2bxGz7H5K8H4hrCDQNwCQGxgM0hsCSiTcT04cMvAdQOwStGrOl7FUVMfYqmTRxt/MBHnzApsdZXO907r5uY/d7Pfh8wbDZbLb9kMcTHjHtP+Somnmzpmmu/v8VexLjxwBmDh4jWP49BxUCJH6WcG1ZqDW03Ov17zXkuSjBRZJ58jh58HgGPRxcsfyNnGRkAQNDo7CYf6F5/IsyDBsSiUUkc1podRsS3VT2SRN3fVfz+IfdK3TUBVcG1+QiPxlTm999f83Cvbzl3PtQCbmPkrEbQJfYiC7pWOAMEXBXzycVzbMU9wwuJKzr15DNdhJgMDGE6DoO4JFC5HiUpEEIBAIVep/+FQa+AogjIHkfAu8Mnh/6m+L+v3nwdQYkY/u4Hl3z+INM/Bch8LdQKPR+Id9HIoFAYFy8TyYUveKm1taWNwFA89S/DfDnh466OBB5GASmob5ugC6ApAuAlAXyXwu1hh7PVr7m9p8B4H8GXxPAdQAgdH6TxRAtswOBgL2lpSXjl/nQQ4/cFRwb8hQuIP+a7byyxe12TwZQNeRi/65kbNIBydkaDodTurCSQTwsUEAAmJTk1l5RKXKSnY5Zi9du4UU4qXNN9Q/BfB0Gn1WVIgQvM6/aXD3xz8WeihGm/3njGx2N0x4A6GwjcgjYp2uq8yyg6x5FU0tJSbmMfG7foV5P/X3xPvkegx4D6AKA9zEg0gbgcGK6g3Xq8Ln9d2iaNjPjKJOI98lLAew56JLOJHf64Rk81N1CuUca1dXVTaDckpI+gpCnIct499mzZ5eB8JPB1wh4PhgNBgGgV5Ylup4qB1wlGbHb9erEa6TTf7IZmws2W3ne5zODeB05+oizDQVm4D/ZGNCcdC+CrFncebO02eag35WhIqXWDP4jmLWaJd2XHnJXW6zYkzFKHPKnSIjoywcmXLvurOkVme80RkkYBJ/b9xXN429lopUEPgvABBPUVDDhfEjxX5/Xf9PRBxydy9OgYTwezx4YHgr4LBHFNE2bqWnaTMEYuoNhzjnSqFyUz0H2nbJW6SzqwuFw1pEekybsegES3E2S8MCO91BW1jsRwJDCZ7otO8NGlKRscznUp/HL/A/sB5HzYTBzdgaBwKb5/Kc/2L6upqnrawJ8MAN/Qx6JbyYRY8J1vR9XHOxc0t2a+KKmaXv7PP7nAoGA6YuiSmY2bWwn4E4FoqptvXpeuUK5UFSXka/OdwDb6HcM1BdQrZ0Zl24f91mDpgXOCodbWgqhlGC7GsD4hMvHQYrjdvwxrCgZUc4Ll45EdxG2A9hR/qAPwPsA/k3Mj4daQ88jhyfF5C4vgBgPgVM/WwhJBwLIuP0n0rckyuEYzwSguNY+D8kFYNA9JPT/Szs3KR5mYO6gK6tz0Tjw2U0ffE2CPELow5rL67pueiVRZ1P3awBOXX9m7Qybrp/HwHlIOCMpFAy8xkJ+e/pDG15JfC0QCNjjvfIi6Pg5E7bknPdRAthYXh8j8S0a/vvPDeIr1izc655Zi9ealnRYFIMwf/788q1btl3PjB8Uaw4A1ULKF7xu/xWR1uDNMHELHTgsMD0OeW4eQyf7/f7qYDCY9YJIw9xM/KdwNKTkyUKP8Y8B7JHrOKbsnsiJqGPYP4Kgk5BjHkPmCeHAwXsoAqLhcPiddEN8Hv+QXRGx/GcuKvv6eH8xdOe2ORpdvgJFdt1Mf7B9HYDL1yzc6xdl3HP2QEJbTYHUf8bAT2tiXb/qL/swFF+d7wC9T94DGjDEhNcKNC+lVC3Z8EFH47TfApRXouEgdqvgnh8C+KmKeSWj4C4jtzuw76ebt69kxqUo/qG2nQg3aR7/PQ0NDaaViNSFvB5AXnXqOZ6zeyMhnFIoKZDl8/l2Z+Yf5Dk8K9dXKBTaCGBIRBEzzvP5fPulGzfPNW9iDnMhEIbIY0pfj8jr9VYxMCTjulcvy8mtI4adH/C/UUJ+/FmL126pbeq6pTrWNZNZngBghakKGSGbkAfVNnXdmGgMAoFAhebxL2IbvTx4V8ZMyg7aC01lRe9NDGwyKoeBS9eeuWfOD2XZUlCD4PXWz7eRbE1IyioFvrWx672m/pIPatE07UAGFiRc3grg4xT/DX1SyjGxCwmVFlnkVnwtJXG6FkO3vIzU7+HThNHOgciejBDRQwmXKlmnpT637yuJt2paQNO8vmd6ynp82b4NTdNmJLwPOfbTsrRhrUIOS/TbsGrVspy6hRHzUEPNVJK5AdQMvXbJhidqmrrczMJHoGYkfieNsZmBH1Tv0xWY9tCGYTkYvsN83niffAXAT5DYaIZl2l1cKbP7Hz/4lEA3KRA1rky3X6ZATlIK9oSueerPBfMdKJGD7GEQvl5ZPkYHsBAqn9x08X+gQe+ZsS0mHXutXLlsmO8YADSP/1kAny9+OSR2BeoCzjjk4IWX7XbjSUl+v3+GjGOIy4tBiyPR5WcmncdhgelxIYc8zQlRdiCAlzLpKu9x3NZT3vd9DHVNTWWiZzWPrx2g1wGMA/BlSLkHQCCJrH8gJGn/hH/ctzPlqkhQ4rlM7iUrwHMGe4yYcJrm8R+ddI7M54ZaQ8uSvVZIapd0hAGE2xtrZgrI7zPwbeQWmjsEIjxF4POdi7u7El9zuVxjKsvHXsvA/yLFGiEII3aHAAB6me1WW1/8YgDDoulygy7sPr3qt2b0sS7I4uzz+n4I8J2F0pc/tMDnrTfq59uJ11vvA2H+UBW4NZUxGGDIUxNn6W4BgJidE59kO1taWgwfUMo4/xxDn9Z0UPz6VPe3rGjpADCkjARlGdmztG3pZgmciaRPpVQL4Dj0ByHsNBi2SlvWNYwYQ8tPgDMv7iIhiS2fGkZElPhvMwn90VrD/tPJsT5X+WZS29TxTnVT1/d7qaKKgR8g50N+fo/B36xe3HV8MmPg9dbPrywf+waAy5BujeCRbRBm3L++h4GUv5scqIgLca0COcMwfYH2ev0LmelmZB8KWVSYeZHX6z9FhSxiviHh0laycdIuZp9PAIkhoLNcLldWiURieFijYXeRr853AECnDb3KD0QikXQlFySAtUOuUPZuwmg0+DyBv4b+CKlMbMnJ6CV+Rlks7kwJdY9kbp9rsjOINGyPRl8syYVvxznDpnF7fonBX8+mzDOBmu3Mc2qbuh9IfE3TtEmax/8HYn4aWRxkk4NGrMtoBzWxrnsJuZVMTwYBZ68/beqXM9+ZG6YaBE0LBIhxL0aIMRiAiHG/pml7GxEyYFQ8CZd/mzFbmkXiQmsrLx+XVQemxBpGxJkLtmWCbfRLDP2exCA441MOI9GwiZwOx0PR0N/tUswGeAlSJfYQ3gXwu1zkgnJrijMQbDDkhydyNLSFaIpTSA65qy1W29TdXLO467DU5wy8HqBjqps6v161ZMMHiTI0d30DpPgvgGyj7/qCwWC30bkXG2qGziAVUUI2YbcvUiBnCKadIXg8gTmQ8lHkGV1TZMZD2v7idrvduVTQHIwQHGIeUrMIdrs9Y2/cjz99Pzhp0qQh48ZtGZPOxfS5Tpv8MTPvzCIu/6wip4PPJBCEHBKyao/Z+1qiwWHb/kQcZeL8eDy+sy68lGU5H0wO9Edu9Hq94wULPyBqGDwGTBsI8u0p06a0NTc35yTXLsWxcXt8p4GzZfFvAiGHuIz2nDo1674LAMAiFiGirBrE2Hrt2eyKSoYd5wzdZ1Tto0vxPYDcYDxXEe/9xR7N729NvN/n801lSbeB+eQk4tKxHiVuKLOleu/Ov3S85byMEsq/5Axzw/ozqm5Mlr+RL6Y8udfV1U2w28r/Sf29gUcyt4ejwYuKPQkLi1EA+Tz15zP4BuRXieC5cDR4jOpJDcbrrT987KflqwpRELOz0XksA08ZFkR4tmZx1/zMN2aHKS4ju63illFgDADgQq/Xv7DYk7CwGMl4PEd8yevxL2Xw7ci7LA2ben7gd/v3J+ZHto7rHZKjsu6s6RXtjTUu1T0Jqpu6ngYjZFgQ45jOBU5llR6UGwSf23fSQD2iUYFg3BIIBMYVex4WFiMRTdPqBOKv59IbOxlkYsip3++fIQnPAdhFJOSL2LfFxxDkPzrfcr7b0ehc3L5w2jfXn1E7VYVehhhWBiYvBH6hRA4UGwSfz7c7E6ko5FQqdBDjhJaWlmG+UAsLi8ywpIUY2hQoT0HmGASfz7e7jOM5AFP71dCQ86Lq5q6PBoIXdgfQSEz3C6lv6Gh0vt3Z6PxD+4Kqr+ZbhbR2SUeYgaeNvgdmeNoXTjveqBxA9Q5Bp6Z5siMAACAASURBVN9gaHlnlWwC8BpAbegvPWzuIs14xF4mDgy2BqOm6rGwGMUIZHeYnhEJ5S6jQCAwDjo9BWBneXYinjPsxuRZ5TMZOJdIPG7ri3/U0Vj9Qnuj87L2xhoX53A2KwiXQ8FhOTH9QoVbS1mUkc/tO5SBRlXyBugA6Gam+HNJ4t6F1xs4mFieDuA7AHKpZ5OOXia+NBIN3apInoXFFxZOKJWeL7YKm1KD4HK5HPGY3gzQ3ISXhhkEAq9mYF4acZUAzyNgHiDR2TjtvU6IoAQvZWF7YvpD7RtTDaxe3PXvjoXOP4OHlbfJlf271jhPB7qajAhRFmWkuf2Pg6CqRV8fEV89bsK43z3zzDMZm0sEAoHd4jF5MxjfMKKUgLWQfFpoRUhZGJeFxRcY0jz+7TDuMvokHA0m6yyXL+T11P8x1VmnvUzs3tLSsjN3onOh8xxm3JWnLgngVQKWSsilW2OTgrObV/cNvmH9mbUzhK6/icTaTbmz7tPYxH0T5eeCEoOgadrekOINqHFBbYEUXwuvaFma60Cf1/dDZroJefQwJeDPfXrvuaqbuVtYfFEJ1AWccZtUUW/nlXA06FIgBwCgefy/AvCjVK8TcyDUGtpZcr1r4bTDJNOwpj15sgWMZRD8PLPt+dqmjncAoL3ReTf1ezoMQhfWNHXeke9oNWcIUpypSNZnEjQvH2MAAKFI6DcEPg25VWf8DKDzQtHg6ZYxsLBQh7RJRe1q1ZWs0Nz+i5DGGADDD5bLy3tXQ13BywkgnAymOwjy7Y5G55qORuetRGS4nEU/fHVng7My39GqDpW/rkjOT6PR5S8bERCKhv7GjMuzvP1N0vmwcHR5vttBCwuLFOiEGSrksKIII81dvwCUudQJJZwj9JeuRtYFFHNkLwAXgflXiuRVwYFv5zvYsEHQNK0GgKG6PwAAxrYxWyuUHORGWoO/Ygyrq5+o8EF7mZgbWhkyXO/HwsJiOMRqDIKKstd+j/8IEN+HLNY8Fkl7X6vpK1IYLs034sj4DkG3eQ3LAABCVGXKeGWv47sAktWp2Q7Qt8LR0Des/AILCzNhNS4jg41xvN7AIRL4O7Ktq8aYg+Hnqzn10C4mDNR2rqlOFxWVEsMGgUkOj9vNRw4oqwJu2bK0belmMH136FVaTTaeG44uv0+lLgsLiyQQKTEIJPM/Q/B4jvgSsXwS/U2VsmWi3+93DrnCxhtNFRJmbshnnOE8BAH6korTFmLOtl581oRblz+quf2PgHAKGPd+1rf14ra2thFTTdLtdlcKUT6bpDwAxLMZVEuEKcTYM0l9/a0AugnYxMA6MF6RJF4pK8ObLS0t8WLMv1RwuVxjKisrvwxdzAbxbEDUALwr+rNPd0X/YhEH8CnATKCPGNQO4rWQWCOJ3ujt3fqPtra2WFHfyEiDleQgyLGTx+blv/f5fLuzHn8GeSTL6jrNwaBGQDrL1YJKvL/XIKi/iVQ+44yheX0vgCmv7UkCn9jLxNSWlpYeBbJ24vV6q0ja68Oty5eolGsGgUCgIt6LAEg/HKAjAByEPEJoE9gK0LNM/JjDIZ5S0UGt1Jk/f375li3bPWA5T4COYuBgGP8cP2XgRQF6Toft6Wj0xZxKYJcygUBgXDweH9JPXMqyCUL0JX5mHw/+IxwOf4wUBAKBinif3A7ja0xnOBrM2DwnEa/XO57Y1oL+f/ucIdBloejyX+74e838vcrLJ/VsRQHbDhuE9TL7mBn3r89pPTX+5phUFX7bJd7H3wJwuyJ5AIBIJLIBQMkag4aGBtuGDZuOJvDp8T55EggTFFclHwfwqcQ4Nd4nY5qn/m8Q+m/D4XDGblcjDU3TXJDiG1s3b1tIwK4AKWyOjfEEnMjgEwXiUvP6XgSJ34XDy5+Eyh7c5iI8nnqXjTCfGXMZPIeAqfE+WZ7oPRaIAzLtE/FWAONTvajr+kyAVHyRc3YXzZ49u0yw7a+cpzEAACYe0pRq1jNre9sbnW8TsE++MgsMcV/vngByenAxbhAIurqfA/9c07Rnw+HwiG+Vlwm32z3ZTmXf2dj97oXU3yu4EDgAPh1SnK55/CuY8LNIJGi4uFYx8Xq94wXE+ZLpQsj+kusFWJ0FmOaBeZ7m8b8Fxs/DrcEHC6M6dwYKuJ1PhG8DXMsDszS0WlOGhVpXFHIKyjXCSEyeuOsDDBxtSO/wdrRAfw21kWIQ4LDbcnYVK9ghZNX3Nlt2gRR/93q9nkgk8qlCuSWD2+2ebCP7ZQB9l8Fjithd9DBiPKV5fc8KnS4Jrgi+UayJ5EMgENhNj/HFzPxdBiYVsUfr3iD8yefxnw/J3y2lsifzXPMm9lb0Xc1xXECEsSplZ8oNkIQZpMA85hpyqnn8v2bgtMx3poc4aUTS6wC+ZlR2odjy2cT3gYzNDYegYoewUfFz0Ryw7UEAp2CUtMwDdvpUfwTgf6GuEJ9xmI6RAkdqHv+vP9784bWrV+dfB6UQuFwuR2X5uO/F++S1KKHPkQE3BL2sefx36hy7NN/Wq6rwuX0n9Yi+O8CYYsozB2eI/JFiJlRYhBxCTjW3/3IA3zeuFADRbcPnIiKgEbMkvZ1PTSPDx+YEetuojOEycaLPW79ItdxioWmBQLxPvgrgepTQIjYIB4DLJk3cLappmvEkQ5PQ3IFjKsvH/Rvgm1Gan6MAcKEgR8Tv9ytxmeRKIBCwax7/Iib6GxhTTFMkMizUpCYHgTIZngG8Xv9CkLJGMbeEo8uHnWXWLOlYCtDZBLwIoMQjzvj5fEYZj6OS0pTDSWa+2uv1qyqJURTq6uomaB7fA5DyJQD7Fns+mWEXpGjzev2Gt9wqcbvdlZrHfwtIPgNwyftwCThIxvEPn9v3lULqras7cs94n3wRwE9gUnvcHYgMLiNSVPaa7ZzRZeT1+o8lxv1Q43/9Yzga/GGyFwjgmqbO+6ubuo7Uy+x7gKkR4IcBlFzkHrMtrzLYhj/AQCCwS7xPfghzvoB9xHxsqDW0zATZpuLx1M+1gZu4v1bJSIMBXBGOBm8s9kS83sBhguWDI/Rz1An8nVA0dL/ZigKBwG7xPvkSktTzNwMhsV+6cyfN4/8UuSWDJeOzcDQ4FmkO6z2e+rkC/KICXWDQQ5Ho8m8iR1c1N8DWYa9xC5LHS+CkYkciMfBSbVNXXi1LDS/iA3Htic1rVFHGRH/1eAIF+ZKrQvPUXyjAkRG6iAH9Dwo3DJQJLtp5rc9Tfw6xDI7gz9HGoHs1T/2ZZiqZ55o3Md4nn0GBjAEA3hbbljKc0ePx7AEFC/RA28yUxsDtDuwlwLlmIaeAHnOU0dnI49ySmqHXLukIVzd1XV7b1LUvQ3yJgR8AFMlHnkF6bIKT7nCyQdVT/d8UyUnGLgLyuYEieiXNgP/2FoBvQ79ffqTzI5+3/qeFVtrQ0GDTPP4bGHwXRv7nKAC+z+fxnWGG8Pnz55f3lvc9A+AQM+SnYGO6jH+iMjU1jNJEGHm93ipB8gUAeyjQ9ML4iWNOV5XRX9vU8U5tU9ctNU2dmh6zTyPGOQA9AcD0QAMiXOx8qPuf+Y5XYhCEHX+EuTHYVZDiKbfbPdlEHYZwu92V8V75OICLiz0XlTDzNV63/7xC6XO73ZUbN7z7JIDLCqWzANgYdJ/X6z9WteBPN2/7NQNu1XLTkiEUlKSaPggMTnqgXFdXN4HY9hShP+/EINExWytOzqYzYz7MaF7/bvWSrntqmjpPoBh2ZcijCPgdGN2KVTET/7B6cdfdRoQoMQjBYHAdAy+pkJWGOTZyPOP1elNmRxaLQCAwzkaOp0CYX+y5mAERbvN6648yW4/L5RpjE/bHwXSM2bqKgJ0YS/yH+b+sSuDAofWFquTlQPrIQkV9EJLlIMyePbvMYS/7G4D/UaBiFZN+jMoqy+mobu76rLZpw9Lqpq7vV+/TVSOI3WD6PwWF8zqJcWzt4u7fGp2jsoNgYvkbVbLScChJ8bjb7c67I5BqXC7XmHhMPgvg8GLPxURsxHz/oYceqbwA4Q6OPuDosZXlY59WVBerVJkgBf7icrnGGBU0f/78ciZSWuYlW1jy+vQ3qDEI4GHZ0GLSxN0WK/qO/Fvn2PxiJcDSIkjn4u4VNUs6r6xZ0rX/wLnD90F4Ftm6lhjdAF/VSxVzqpd0PatiXsoKNYVbw0/6PP7njaaMZ4QoYIPj7/Pnz/+qWdu8bHG5XI4x5WObmaGmJ0RpU1XmiN2N/oRBpQQCAfv2vp6/Ic8KjSOMOZXlY68DcKkRIZ9u3n4RFIV25ozIkBtAiualD90haB7/bwA+VYHkNfaYODr8cutHCmQpYaC38u8A/G7dWdMrHL2xg5jIxcC+xNiTiXYBy+0g8QmTfBPSFnp//O4rD7lLbQVepREkPp9vP9bpnyhERUDCo3aH+HoRSzuT11P/AIFNOSwsWZhOCbcuf1SlSM3jux2gC1TKLHGkYPiCrcFoPoNnz55dNmmXXdtNTTxLAxP5I5HloVSvax7feiioz8WkT9jxBO/z1l/LzCoCHDol7L7RVK1WJUoX7lAo9B+vu/73RPmHPWUN4+RYH98N4FsoQlExzeP/MQpjDBjAGjBeY+K1BPEegB4AYJK7EmgaJM8G0SFQEn6XAeJfBAKBJ1QZYq/XdwW4YMZgAwNvEvhtgD4C45OBgqiTAJ4M0F4AZkNN5Eo6hE64FYALeXx3J0+cfAoXyRgAgCOeuuCcy+VyAORM9XoOvL/TGHjqz1FkDN5j0o+KRoKWMUiB8if5nr6tl1WWj60D4FEtOxECn6V5/dvCkeB3M9+tDu2wwDxA/txEFT0MPEWMR2LSsWzlymUZu8m5XC5HZeV4L1ieDsbpMK+0w756H58NwFA0AwD43L4jmel6BXNKRQ8BzwP8KNlpeTAYzKpQmv8w/5eloPkAnwUkrXppGAIO0tz1p4ZblzfnOpYhFhaxsGpPy8qWZK1pAQBlZeNrAWm09wSAfneRptV/lSWrOCv5gGx8RDgUMStnalRgStKR3++vlnG8AmA3M+Qn4efhaPDqQigKzA1MiTvkv9DfbUs17xPRb20Out1II5u6uroJZfaK7zLzZQAmKJwfAICB9ZFo8EswkHTT382K/glgqrqZDcBYB6Jb7WX0R6MNgbze+sOJcRPALlXTG8QbU6ftuX9zc7Oe7QC3211pI8eHAFQFVmxm0BMEXouBnWc6CLQlFF1+R6rXPR7/0QJ4zvi06GEI/bfQxTIYr9S6GUIeGQ6H24zPa3RjWhbqwBfjSRQosSixw5FZ+Dz+vzNwgmKx7wH0yzFby/+gMgQuMDcwJeaQt5IZJXtZzA+3tuQb2UCax/8EgONUTgmEdxn8056e7fcqbncpvG7fxUT0Syj+PhP4+FA09FS293s89W4BzuvsIYE4gBvtZeJXKrvoed3+84hwp2FBzC0gOhDAJIOStkrQ0dHo8lbDc/oCYFoBrGg0+DyYcq4Lki8MvsHr9Z1vpg6v1/9N9caAHtY5tl84uvzXquOhW15ueTcSDZ7KxN9D/wKgDiHPzXeo5qk/A2qNATPonli8d59IJHSnCb2PZaQ19FuSfDgS2kgah3L6HG1q4u/jBD4pHA1erbqlKimqcgqiAIwbgz5iPtUyBtljakXEcOvyJUR8uZk6BkHEdLvmqT/bDOGapk0ixq8UivyYwAvC0eULWlvNDX+LREK3QtApANSF6TKOzydzPBAI7ALwTcrmAXwClidEosvPWbly5RaFcocRWhGKEPMxAJTpYeBYn8+XtdtMMmYZ18m/zGVXkhNERSn7nYQYWH4t1BpS4L764mCqQQCAUCR0E8C/NlvPAATw3T6PT0Ws8lCkWARFZyIMrIeQh4SioYdVyMuGcHj5EwMhsqp2bA4byo7MdVA8Jq8HsKeiObyps5gbbg0/qUheRkKtoVXE/E2oO9W1S0lZl7QgMmwQemPxMvN+j0zFyY0Yik7gbxTyezFaMN0gAEA4GroUhAcKoQv9dWMWq6xF73YH9gWgKjTyLZsd/mL0jQ5FQ38F8DNlAknmVM7C6/XuA4Yqt95rEvH61taWtYrkZU2oNfQYCMqyhEkilxpHBg0Cv7xq1bIPjclIK7/YBoGJ+PxCPmyNJgpiEADwx598eA6IlxZI30DZ7Pq5KoQJ4qug4jCR8R97TNQHg8FO47PKj3A0eB0BSnyqDMrJIBCLqwCoCEl8Q+fYkdFodJMCWXlR0VN2FYD3lQgjHIEsAjwaGhpsAE83qMy0SJt5rnkTYdzvbxC6NBQJ3VPcOYxcCmUQsHr16j6GPAVAoZqQjxPEj/v9/mojQjyeI75E4NMVzGeTncVxLS+3vKtAlhEkdD4fQNahjqkgYLqmaVktAP46/yyAGo3qBLBRwj7f7HOXTCxtW7oZDFWlwXfxeI7I+GT93nvv1QBJm79nTX9Snjn0Onq/ZJbsbGDiK8PR5YVyT49KCmYQACASiXxKNj4GwFsFUciYosfx96MPODrvOGZB8f+F8QQ+KYAFLSta1huUo4TQytC/CFCypRa6yKp6p26jH8P47kAy0cJSKTvwWd+2+whQ4n4hih+Y6R5dJ8ONgiSp74G+E6GoqF1e8NuRSOiG4ukfHRTUIABAKBR6X2dxHICM2bcqIOCgz8b13JvP2EAgMA4MBU+1/NtgNPiicTnqYCGVRPqw4P0y3dNfv54XGNVFTDdGIsvNLrOeNW1tbdsl0x9VyCJGRsNKCiKMbHr6XgaGUFXULj/lX9I89V+kelimUHCDAACtrS1rBeMoKI/pTg4Dp/k8vpzdPrGYPA2A0f4LnWO2Vl5rUIZywuHwP1X4kxmU0U1gF+ULjGeb8tu2crrOmAz12MBLVMhhcMbIK2bDrUQ5RrH1BmWkFq6q7HX+M7hJZb+JLyJFMQgAEGwN/luCjgOjIM0pGPT7gV6vWUPMZylQfHmhGnDkDhsPy2POWDNJEL5tWA3RJS0tLRlLKxSaYGvw1YHev4YgpowGgcBGDcLG1tZWE9s4Fj3kdIwU+EsgEKgo8jxGLEUzCAAQjS5vZYFGqM6iTc5uAo5bsr3Z5/PtDpCh1oQErJ3q3PPPRmSYCRNFDMuASLuD8vv9MxgwGu31SiQSfMKgDPMg490CibBLFnqMhpyaHepcbIMAAHP0mFQXWv0Fo6gGAQAikeDjBD4bBSlxwaf7PX5/VrfqOA6GD0Hp17kULis0Dge1wqAxFuC0xfNknAy3FWXCjShiec+MMBQY1oxhpwTjPYTNOz/oX0tqTJSfNcz4kddbPyrb2ZpN0Q0CAISioYcA/LgQunTgJ9ncx2xwIWNs69N7FhuSYTItLS1bARhK7GJObxAAw32mP5owYezfDcowF5tcbVQEZTB4bvcRVQAMukIydDozgKZpThgMiVUIEfM9gUCgUNWWRw0lYRAAIBwN3gyC6WFjBBzhq/MdkMWNhtxFEHja7No6SmD8x5gASlmG2eVyOcBsrNc0YUmxW6VmgYow6rQ7NZtNGj6w5SRN61VBesnUMNpBVby/gZZFDpSMQQCAcCR4JYPMzzIUdE66l71ebxUAQwltYCpdn/dgBDYaGk+pa+iXl4+fbTS6iIGnjYwvBOFweDMMujwlKH2inWQFC655OwSQoggjQgQKkib74ZM0T33eVXm/iJSUQQDAVdP2OJ+Ax01VQjgFad+77RCjOoSdW4zKKAjSYIMaxvZULxHJjMlWGYg5HCJoUEYhkAC2GhSRNgSbFCy46VpfGoaEkgNlYv4zManra8L864FaZBZZUGoGAc3Nzfr23m0LAKwwUU2V1xs4OPXLPNug/O5i1ivKCYKh/rdMlDJTlxgHGZEN0FsD5xwjAUPuQULqzxEApPEY/950rS8Nw8qK2r3z0ZYPFgF4XYk0wlgbycWzZ88uUyJvlFNyBgHozwDtizuOB8i0/qfEnLLnM4GMPlEY9MsXFGMN0Tm1y4mQOfs2LcSFKXGiBDKUa8LEaQ0CwajLiNbDxEg+hhqXEUl6Z/Xq1X2C8Q0AqhodHTxp4mQrFDULStIgAMCqVcs+lLAdB8CcImaUpkcuw6BB4IKXZM6H/lwLVBkSImRHqpeYMMWQbC5QzSsl8Dgjo0mK7gy3GHsCZ5NzENSUreBtsW3twEDCH/g3CmQOQJf63L6c+3d80ShZgwAA0eiLbzPhTJjxZJN+C76PMdGFKclhFCmNJd4BgE1S6uq1bNggKG3vaDKGyj6zoJQuRpfL5YBhww3TDILb7a4EK2l6tLGtrW3nmdT4ieOuNR4FtxPBRH869NAjd1Ukb1RS0gYBACKR4NPEdKN6yZw0iWYgwihjOYZ0EKjPyPhCISQdZlCEXrGt4p/JXuiv3Q9DPz4SXLJJfYMZ8E+PMSJDCD3lDqGsbHwtjCZJKiivkQohxExk0c8hM0N3Mc8880wvC/FtKIs6wrQyR8wKRU1DyRsEAAi1Lr8awAtqpVLSUgE2thmOSGDiEWEQmHC0QRFvparTtGHDhjEwuIgxUwGy140zceLEzGUn0hObMmVKymY/QhgPOTU1B0Eqy0EYNsdIpGUFEX6vSD7AONnr9RuurTVaGREGAYC0S3EukDrmPQ+SZn1K4wfKIKaS35Z6vd59gDTnKFlAaZodxeNxw0+MnEXBt1JACGEsZwXckbbEiTQewcMsTMxBsCmKMEqeJ7G9Z9tVZDCjfogWiVv6v/8WiYwUg4CWFS3rmekOhSKTPr0qKDEMZFESuuhIYbjPg6TUu7bx8fGGDYKK2PtCQJKmGxOQ/uldxecwptdu3g6BVCTNpd7FtLW1bYfks6DqLJEwlthuhaImYcQYBACwsdJU9ORx46QintpwmWJTCQQCFUT0LYNiYlLGUmZji5gwXsGWeG/DMgoAQ9QaFJB+sTYYwUPAh0vblm42IiMtrKrKaepM6tCKUATAnWr0AAC7Jk/YbZE6eaMDJQbB7T5imgo5mQiuCL6h7HCMkfQHQoCKp/v96uqOLFl3h96nnwPj+QdL0/U1HjhbSJnFnKWOOaX8Oe6AIacbGp/Jv8+G+wyYGnKqKgchUyb1mK0VP4bCntBMfJnf4z9ClbzRgCGD4DvM59W8/rCN4i9ASZRBVrypRAphfdKraro+iTJbX0mW33W73ZUMutyoHBL8SOa7+H2DaoTDFjd68G06BGHoOyMyPuQYc8mwiRFGA6j4zWTMpH7+X89vE6Bzoa4UupDAA263e7IieSOevAyCxxOYo7n9j7OgMBheAF/2eXzHKp5bcoTRmjE7GJ48Fpgb2NN4q8cd0Mlq5KjFRvbrYTSmHfisN1b2aMa7mN41qAcAvq5AhsmwIZcRC065YM9zzZsIwNiCZWIOwkAXQkNJef1kl0kdjAZfZFBePdJTMM0GhxWKOkBOBsHjOaLW5/bfLyBfA+Grg19jwPBTZzYQG8sR+BzxWuIV3aYrOwxm4HiPJzBHlTwVaFpAA+gHhgUR/rhq1bK0pRb672MFSUV8nM/n28+4HFOZbmSwlDKlQeh19Br/TrJ5Re2IytScH+SQSR3Xe34EQF2tMMIpPo/vLGXyRjBZGQS32z1Z8/hvEIi/yYRvImmEDmn9C46pCACGQiV3CmIOJV5joaZi4w4VguQVCuUZIjA3MAVSLobxc6O4sOHmbG4kwr8N6gIAYp1+pECOKQxkvqZtI5oWxrZoNJratSYUuGOkeWWvSUlZbuS0i1m5cuUWJjpPid4BmOlWTdNGRBCDmaRdHI4+4Oixmsd/tY0c6wBchkwdm6S8XuHchqFpAT8bzH4dYFOwNTisy5XyMEfGaV5vwGg2sGHq6uomxBzyaShoccigh4PBYFZPnDLJLixPzvJ6632KZOXNQAmJIZSV9U43JLT/QDm1T1xBjSAphIllrxVVOc3xnCMSWf4MMf6kRDcAEMZCisXJ/o2/SCQ1CC6Xy6F56i/cPr5nLYCfAcjUJnEH9V6v/wRls0tEykuVyGE8gST+SmZj0SJJsBHLxXV1ddl+fspxuVxjHLbyRwhGS1EDAHRG9mVEBno2G4s06kcQ870ul8tQeQgjeL3e8ZXlY25JvG44ByHDQsjGgxz03t7NKQsQGkZNEEZemdTlfWXfB5CpKGAuHFJZPvZahfJGHIkGgXwe3+ljysf+B+Db8ilORowbzbCymru+AcBxaqSJvya/TtPVyB/CTIet4g8oQs5HYG5gSmX52JcAqKnySLgzGm3Juk59S0tLDxjLlegGZlVWjH1ooEZSQXG73ZNJ2l4AaNgOi0HTDQmnTK4SYyGnDHS2tbWpKiM9HDVVTvPKpF7atnQzWJ6vQv8grvR66421fR3B7FykPB7/0ZrH/w8GLWEYytbdt7J8jNLeyJqmHQjiP6iRxu1TnbsnzbBVFU+dRPLpmsd/NwpoFPxu//4xh2wFcKgikRsresquynUQC1bXApNx8sau9/6AwoU4w+/2728j+yoQ6hjDDz6JjR0oZ+EqMfqdHBE5CPlmUodbw08CvETFHAYQxPyFDUUVHk/9XK/Hv0wAzwFI00UsF+gSze03XBoBADRNc0GK52GwvPAOiMRdyerGBAIBOxlN1krPtzSP7/758+eXm6gDDQ0NNp/X97+SsIoMRr8Mhgk/zCfb1eGwPQxAXbE/wrc1r//PgUBAQahjerxe/zcl0LqjFIlI4tZgoumGlNjSHvgKAMayoE3so+xyuRxktPc4jGdS98XLvgfgPaPzGITTRmWKHkBHFkKA7yVAfbYe4U+a22+oPILPU38BpIgA2EPRrDYz6cnrIfXACcCuSE8K6MxPN297WdM0o72Gk+LxBOZs3PDecu7vSZs+ACAXiJ+NRIJ/zmdoS0vLByD8XdlcAIDREO+VK71er9FWp0lxuwN7aV7fC8S4f0heCid92jb0hCxl6pBQTdOcAAw9QCQzYqooL59YA6NlufsxZLRWrVr2IZi+p2Aeg+BTNbf/G2pllj4CoHtMkm0H4R7N47/F6/XmFJanadqB0VaKIwAADRVJREFUmsf/PINvh8EfRAK3hsPhpM1rYjZF4XOZ2R9SrPJ6fD8f6FhmGL/fP8Prqb9PQL42kCioku5YvOwsIwIEq6xBMwBhP2Lbq5rHf4umaUp2j/46/yzN47vLRvJ1MM0bppKHPW2TwSxiHre1LOWCTbrxstIsTSx7Tbqi8wPjcwy3Lm8GKMXZYJ4QbvPX+WcplVni2HXue8hGjhuh8onycwjAxcS2UzRP/U069z2Uqv6Ny+VyVJZVfgUQZ0LiVKj3t2+I6b2/TDlRo77g3Cgj0JWs44eax3e/YLoj2BrMKWbf5XI5xpSNOUISXSDjOJ7AZhy29klQw8qVywxtx4PR4Iuaxx8CoDp01AHgYkjxDa+7/j6y6XeGw+Gc2m56vd7xgsWJDHGaBM8HKOXnKMqHhm/6fL4prBtqjLMpVT8JAGASMw1XabDp5uUgKIowUpVJbS+jC+J97Ic6j8I4tmGxy+XymnowX0LYW1tbP9I8vmaAzjRRjxPgW2zkuNHr8a8SjH8xoWvgtd1BfCCYXFB0TpAMJlyycuXK5BVO0R9ySlSws8odVAJ0gSRc4PX41xPwNBhtLMS/YjHbOl3/ZEtbW1vM7XZXCiEmCSlmMYkDCexh4BgGJpo5Yyb+UTQSbFUhi5ivYaIWFbKSsAsR/xBS/EDz+F8lwotgDkuSa8d+Onb9jkU3EAiM6+vDdCI5U4AOYWY/GHUMVGSx8G5qaWkZWjYlhplGHlsog6uECDPYoD0gMu8MAcQzlFQVUpRJ3dLS8oHX67+EGA+pkAcADMytKBtzNYCfqJJZyvT7zAXfAmmqQdhBBQF+JviHXGXTF+IXMvnASdB0ZSWz8mDgAPhCEEAsUWaXgH0sNM/AR8U7PiYuzDQJD0QioVtViQu1hpb7PP7HGTAvT6V/R3owMw4G6FJiG7aP69n5Gcb7ZP/6zXl9isMW1v7M9vz/NTJXOTWc9LU1FAoZLTCYGomZSuK9FGZSRyLBxZrX/zUwlNUSI6KrfW7fi6HWkKoQ6pJFAEA4HG4DsKLIczGL7RDyuxnvUrX9HQUQ8PzHn3x4jmq5kvQLAHyiWm5BSJovwIbqDBEoUylnYwYhY46DQRTlIKjOpCbBFwFIelaYJ4KJHlR1VlXKfL7hZfpdEedhGky4MEu/smUQ+nnJViZOXL16tfK+0JFIZANAl6mWWxCSHXwaLHXCktenfd2ofJPLXpOa34zyTOpQKLSRwJeolAmgGixGfSjqToMw1bnHXwC8UcS5mMHtkUgwY72TgVZ6RktCjwZWMekntrS0qOxdPYRwdPndBOQVwlpUkoWcGnXp2FJn57pcrjFgGGsONDwqShl1dXUTlNQVY3SYcWAbiobuB+MZpUIZDV6vf6FSmSXGToPQ3NysE/iaYk5GJQS8PH7i2KyeEiZM2L0GI6ydqAms0Dk2PxKJfGqyHo5z7GwAr5isRy1JF2+jncziKRfsioqKGTCYkS0odVlto9hslWpCTk3Mk9BhPweKXZTEuM3v949ab8KQRTAUDT0CKKs9U0ze6NMdX33mmWd6s7lZiILlIJQmjCc+6912ZLqWmCppbW39TML+dajNLjUVKYf6ud1udyWAqQZE9k2dOjVlYTYiu+EFlzl14x2jEEnT+ygbpbX1xW4TXJQTpY4Hi1FTqxAkZuaysONsGce/oKQLUlFYw6TPW7kymPVioyyeegRCjDtt5eJ7ba1t8ULqjUZffNvv9h8lCS8C2K2QuvMgNm3arl2DL9jt9hmsG3qCb09WQmUnOhuO4CG7iSGniiKMzMykBvpdlD6P/2sMqGvFyvC+u2HTVQCuS3eb5q5vSFWDjZgbQq2hlzSP/wMAYKKFkcjynS4uj8ezh4D9dQB2CHnUQOCP6QxzkwSDwXUEUn0gUyjWMOmB/sPLXFBU031k0UPE54Ragxe0tLQU1BjsINga/LdgHE1A5u5rRYSSLd66sYcIQoaF0HhvDq7cXNluUEZKlPUOYWluJBTAOuznAlDqCmXmazyeene6e3T0LYOQR0HIowD8l4CXd/zdJ/teHrhtEgCdGOcOHitgPxP9LsNJML2kzmC9SQhFl99NZpQbMJflEnEtd2OAL2LI6ZsSwh2KhMwqW5I1wdbgqyzkoQDeLPZc0jA8BwHCWGvL5HWRdqIggidtFrRhVPVBSNNPWhXR6IvtTHylYrF2wZy210lra+tH4XC4LRwOtxGwhUE7/05Ikv0TwMd7vd7PA1sY3wL4AcVzzkjKg9TtfdsuHmgkU+owM900ddqeR0aj0U15STAaT21yeJ9C4iDcYC8TB0WjLaq6mRkmHA6/o3PMCyBpWfJik+zgk42WOqH02blMhkupmPudVLRDSNdPWiWRSOh2BoJKhRJmOGxlhpM3Cfw6GG0kbd8AAL/b7wGhhsnWbHySuZHSILS1tcU+3vLhqQQ8XsgJ5QThXQI3RFqX/zitPzajGIPx3kLXmPh7AFKWxig6hAiEPCwcCV5hZlhpvrS2tn4Ujga/8v/t3V1sFFUUB/D/ubPdCkRLULAENI0mqKQQEkJxl91lA7X6QIwISkLEmBg08UHfTJ98NbyZ+PGg4oug0YoxIfiB2mxndmYLWkmMTSQkqKFFxAeJ0Gi3O/f4UFBsy37dmd125/wed3fu3DS7PXNnzj0HoGcRTJe1wMxR1A6kuMts1Aq3Sti07HXIV95sXvYawJW6L+Jqp60YngJwpdIHa0P7gij1T0QHQdgPgDThaRAOMwc918rKplqOjo4WO1fd/iiAAzCushUoDfC7xam2bsdzjpgM1Luxt8Mon5ox4brur67rvOZzbC0YH5vMJwRnCLw779qpRj2YMsB5b+hNJr+HgcFmT+YaZpyZ/eLs7mk1jVnmVklPz/ZbAXSYjB9m9k46nV7+v7Lg9Qp7J/UM073AKfiaRIQ3svdnu0yGsOL0PoDlqdTWHQAeY6im3M6tmHs/MDDg5z27H0x7AIRXF6VKBBwnzZvynvPkyZNfGz+MLMaLpuUB/m2SXigMjucL9i5o9QDAedO5mU0L3zBhTyyu1poGzUZzXXfU9eztxLwTzd0sqRk44qP4+ey32OgK3vf9GwaEeHyyy2RsINz8fq0tw9XLVSFunLuRvDf0Sgi/zY6S8o1SUXO53BUGfQDN7wB01nVz3wY5wWpVvRkrXxga8HnqXoDfAtDorJQpAg5D6Q2OZz/oDDuBbWrylXG2yKwvdX4491Xec9JqupfxFwC0yTlqcIlBb5PmlOPZPa5rf9isDKIgOAXnk7xnd0PRw2js/phxAAdiWt3tevbuQqHw1/Vv9q3vWwKzVNk/yu35IG3eB8EK9bmWNlodXUNUvnRHSLTP1n4EW+sIAKXOj114yWwIOgjgNibdtGSPmtKZrn6Jn8lkMi/zFF5kYF8gS8e5MYARAB+pGN6zbftcKGcxzacus+y1PXsQwGB2c3Z1SeknQNgLYJ3B2eZyDsCXBP7UilvH5uPzAUM6nx86CuBoMrntbuKpvUT0OIDugM9zBoTjpHnAKTgOygTx4rJiG4ror/9UVP6+ucZZKJPxARVX35scXw6zOkvQRvMDACadC2A6NSsUcj+m0+kU+7QTQE3Nu2ZYhOv6yBBRZ3ZzdnXuRG5s5gc14SDAM3+bDKCfmEYAwHVzw6nk1hfa2tQhAIjHcaFURD8zh/O/bw5GW0v61vctmbj570cI2AVGCoBpB7CLYJwAUU7DOuJ5g6HlUV+TSmZeB/BcvccT+HnHc16t9vPZTdnOUkxvA3EWoHUA7kH1fSB+4+l85lNMOKW1OlEo5OZzumZo0un0Sq1pGzFvAbAOoG4AS6s8/CKA0wC+A2hEw7Ib8V0TYr4LtBFBKpVaw6wSCtigGXfQ9Nb+O4FZq4jfAYyDcI6Zx4jVD6qNh6cf+jRWakv6MzA9VO/xBN7heM4xkzkkk8kVSqmVSqsOn7CUNLUT6SJra4ItnmS2znd0tI9VW4ojqhKJxLJYLNbJbK0g329nqFsAgKD/JNBljvGlUqn008xbQEKIaQ1vETbfpJKZ0wDW1Hu8z+q+qF6lCyFaS9QrfCrAKN+b29vxc0BzEUKIpop0QMhkMqsAtBsMMd6CD3GFEBEV6YDAU2ZF7bhCk3QhhFhIIh0QTOuxqIVTw0gIISqKeEBQZiuEkGu5CyFEI0U6IGjTEr6yQhBCtJBIBwQybIzDqnwJYyGEWEgiHRBM+yBobclDZSFEy4jsxrREIrHIorYJ1P83mMx79mI0rnCdEEKEKrIrBKXUXTALiL9AgoEQooVENiAEUGJYnh8IIVpKdAMCmQUEkgwjIUSLiWxA0KzMVggVmqQLIcRCE9mAYNoknWWFIIRoMZENCDDclCZ7EIQQrSa6AQHoMjlY60nZgyCEaCmRDAi9G3s7UH27xblcLtckXQghFqJIBoRivGi0QxkgWR0IIVpOrNkTaIYS0U0KGPnvFV6MqhvlMDPjUCgTE0KIJvoH72Qbri+yC+0AAAAASUVORK5CYII=" vertex="1" parent="1">
          <mxGeometry x="1010" y="610.59" width="173.67" height="90.41" as="geometry" />
        </mxCell>
        <mxCell id="2P2w4gMl4hyvQ_OGWpci-37" value="&lt;div&gt;publish implicit&lt;/div&gt;&lt;div&gt;ratings&lt;br&gt;&lt;/div&gt;" style="text;html=1;align=center;verticalAlign=middle;resizable=0;points=[];autosize=1;" vertex="1" parent="1">
          <mxGeometry x="504" y="310" width="110" height="30" as="geometry" />
        </mxCell>
        <mxCell id="2P2w4gMl4hyvQ_OGWpci-38" value="&lt;div&gt;publish projects info, topics&lt;/div&gt;&lt;div&gt;and metadata&lt;br&gt; &lt;/div&gt;" style="text;html=1;align=center;verticalAlign=middle;resizable=0;points=[];autosize=1;" vertex="1" parent="1">
          <mxGeometry x="564" y="84" width="180" height="30" as="geometry" />
        </mxCell>
        <mxCell id="2P2w4gMl4hyvQ_OGWpci-39" style="edgeStyle=orthogonalEdgeStyle;rounded=0;orthogonalLoop=1;jettySize=auto;html=1;exitX=0;exitY=0.75;exitDx=0;exitDy=0;entryX=0.916;entryY=-0.021;entryDx=0;entryDy=0;entryPerimeter=0;" edge="1" parent="1" source="2P2w4gMl4hyvQ_OGWpci-40" target="2P2w4gMl4hyvQ_OGWpci-23">
          <mxGeometry relative="1" as="geometry">
            <mxPoint x="210" y="609" as="targetPoint" />
            <Array as="points">
              <mxPoint x="620" y="559" />
              <mxPoint x="620" y="589" />
              <mxPoint x="210" y="589" />
            </Array>
          </mxGeometry>
        </mxCell>
        <mxCell id="2P2w4gMl4hyvQ_OGWpci-40" value="" style="shape=image;verticalLabelPosition=bottom;verticalAlign=top;imageAspect=0;aspect=fixed;image=data:image/png,iVBORw0KGgoAAAANSUhEUgAAAYQAAADKCAYAAAClmDd7AAAABmJLR0QA/wD/AP+gvaeTAAAgAElEQVR4nOydeXxcVdnHf8+ZmSxdadnadJK0lQLSAi8MJczMnckABSkgm0RoCgoqu6Iir+xYEX1BREXZZBEEmqJRQPalhXS2tMUAKhWkhTZbC2VtaUuSmXue94+kJZnMfs+dmYT7/Xz4fMide57nzHTmPPc851kIFhYWFiOYdxqn1jrY9k1JOIaAWQDGAvgAwCsAPWYfp/+l6q4N24s8zREBFXsCFhYWFvmwqWH3cT2OiusAvhiALc2tXQy+srap+8FCzW2kYhkECwuLEcc7jVNr7bA9D2DvrAcx/vhpfOIFs5tX95k3s5GNZRAsLCxGFJ2NzlkMvAjAmcfw5zeN2/P4Q+5qi6me12hAFHsCFhYWFtmyqWH3cQw8ivyMAQAcvcfWd+9SOafRhGUQLCwsRgw9jrK7Acw2JoXO6lhQfZWSCY0yLJeRhYXFiKCjsfpEgB9TJE4CdHhNU2dQkbxRgWUQLCwsSp51Z02vsPXFVwOYqVDsOxWx3gP3aH5/q0KZIxrLZWRhYVHyiL74uVBrDABgZq+j/OeKZY5oLINgYWFR0jBABFxkkuyL1p9edZAZskcilkGwsLAoaboanfORS75BbtiEEH/gRdZaCFgGwcLCotRhnG2yhrmda6rPMlnHiMA6VLawsChZuAG2TodzE4DJJqv6UNh5H+cD3R+arKeksXYIFhYWJUuXzXkIzDcGALCr1HFdAfSUNJZBsLCwKFkk4fCCKWM6r72xxlUwfSWIZRAsLCxKFkF0cAHV2Qjyzi/yAfMX9o1bWFiMBHj/Ais8pGuN89sF1lkyWIfKFhYWJcma+XuVl0/q2QrAXmDVH9lZ7lO1ZMMHBdZbdKwdgoWFRUni2HX7bBTeGADAZJ3EFzKD2TIIFhYWJQkxFdpdtBMGvtO1cNphxdJfLCyDYGFhUZKQRNEMAgAhmW7lhrStOUcdlkGwsLAoTYjmFHkGrk5H9blFnkNBsQyChYVFqWJkh/CRminw9RsbpuyuRlbpU4wDGwsLC4u0bFhQtVscqMpz+DbodChs/DKASQanMjlmt98AYMSFoq47a3qFiMmZLPUpRCyIbAICG+yV+jtVd23YnmyMFXZqYWFRcnQ1Tjtcgl7MazBhZc3irsPaF0w7j4juVDAdFsxe55LuVgWyTGPNwr0mlFNvgCQfCcDH/TusZA/9MQCtxPgr4rinurnrsx0vWDsECwuLkkMH7Z/v0ypL/AsAavbpvrvzLee3Acw1OB1iotu4AXOpGbpBWcpY3TC7bLxjy2GAnMegecQ9c8Gwc+ahDgB+JvjhwBXtC2q+Wbuk4wXAOkOwsLAoTfI+PxDUbxBoESSILgIgjU6GgYO6HM4LjMoxOAfqOmPagR0Lqi/paHQ+Pd6x+SOAlwN0DQFu5PeAP5VIPtOxsPo0wHIZWVhYlCAdjc6VAA7Na7Agf81DnaEdf3Y2Ov/AgIpooU/i7Nh35pJ17ymQlRXvNE6tdcA2j8HzGHQEAXuYpGorQxxouYwsLCxKCl4E0fkWZuc7XLfb/j3kSgxXwIFTAOxmcGq72BG/EcBZBuWkZFPD7uM+czgOExDzGJgHwNXvAiKzn97HCcjvWzsECwuLkqLzDOdeLLEmn7EEtFc3dU0fJnOh8xxm3GV4cgAzC3/tko6wAlnobHBWSof0DhiAIwEcjOK58jutHYKFhUVpIXFAvkMZ9K9k152zuu7tfMv5HeTrhvocIpK3cQAuakE85/k1wNZpqz6IiecJwjwGvARRkcVBcCFwWgbBwsKipJDAAXm7LkgmNQi0CLK9UVxIkCsBw+UoDuiocl4EdN2Szc3tjTUzATlPgOZ1go8EeDIBKBEjMBiyDIKFhUWpkX/JChavp3qptqmjraOx+m6Az89b/gAEXLf+jNq/TH+ofWPia2vP3HOPsnjZkQDPI8KRDFkLAFyKJmAoPZZBsLCwKCnIQMgpM/073esU46vYgVNh/IB5go31u9edNf3Usdu22XvLyn3MPA+gedCxP4gJKMldQDpWWofKFhYWJcOGc6vGxLeKLcjPrdNbvaFrXCbffmej89sM3JPfDIfRA6AMoyKni64ZBW/CwsJitKBvFXOQp4+fgP9kc9Dr3LvrPgZUlaGowKgwBogJkvePhjdiYWExSmADJa8Z6d1FO6BFkCzkd4HSKUNRdJianIu7uyyDYGFhUTIQc94hpxgoWZEN0x/a8AqI/5C3rtHFZ3aHfi0wOrY6FhYWowcjPRCy2iHsgNl2NQObDOgbFTDzD6se2NABWAbBwsKihGADBkGSyMkg1DZ1fExEV+Srb1RA9JfaJd07d0qWQbCwsCgJ1p9ROxVAvt3JPkiWE5CJ6sWdKg+YRxpre1F+zuALlkGwsLAoCUhnAwfKubmLduoEmKW8CF+8A+bNTOLEWYvXbhl80TIIFhYWJQGJ/A+URZ4GAQCmP7zhVQB35DveZDoAvp8YZwL4lSKZcWbRULu44z+JL1iZyhYWFqWBxP5513jm/A0CAOhl9mtEX/zrJvYbyJYPCPQSk3yRmJZVN3WtAYB1C6r2tUH8XoUCBi7a0SEtEcsgWFhYlAREfEC+pR5Y0D+N6J5x//pPOhqrLwP4PiNy8uAzgCIMXgqIpTV7d7xKi4Z2eOv6xrRdZZweB7CLYW3MN9cu6U5ZBtwqXWFhYVF0OAB7Z5XzU/Rn/uaKLLPFJkx58L1thuYAUGej8yUA9UbkZEACeJWApRJyqSwrC8+4f31PqptXN8wuG+fY/CwBhxtVzMDTNbGuE9L1hbZ2CBYWFkWnu2raHORnDADgbaPGAOg/YO4S/H0p6R9QuzauBWgpMS9FHC9VN3d9lM0gBqijbPO9xMaNAUCvlNv6vk5N6Q/PLYNgYWFRVN5pnFormX5jwF9h6PxgMM6Huv/Z2ei8nYGLDYh5H+BlBFoal/ZlMx5evz4fIV0LnNcQ4wwD8+iH0U0OPmHKA5mNpmUQLCwsCs76M2tnkK6fQKAGgN2g/CMeCdmXrMiGHqq4ppx7GgBMzXJIxnOAXGlvnNbAwCIjMgbYDkEnVz/Q2Z3NzZZBsLCwKAjtC2pmg2QDAcdD1139V5V0DFC2QwCAWYvXbmlvnHY5gf6U4hYdwGvZngPkSsfC6rlgvh/Gz3glQI01iztfznaAdahsYWFhCtwAW2d5tQcSJwPyZICmm6GHgL13hGeqggHqXOB8EYTAwN//JWApEZbFHfaXZty//hOV+nbQ3lgzkyBXIP+M7UHwJTVN3b/JZYS1Q7CwsFDGmvl7lVdM7jlCSpzcQTiRJA/E9Zv27LnduXfX26qFEsBvx8tOstt7/HbGa9Me3tCpWkci686avgvFYk+CSYExoDtrmrpyMgaAtUOwsLAwSGeDs1La5TxBooGBEwBMLKD6VTVNXXUF1GcK/zjX5dhj67tPAXSUAnHPV2/oOi6bZkGJWDsECwuLnOlscE6WDj5eQBzP4GMJYmwx+gez4gPlYrHH1ndvUWIMiN/QHY7T8jEGgGUQLCwssqT79KrquBAnAziJAT+BbFz8NvKvF3sCRulorL4U4AuMymFgk9Qdx85YnP/5hmUQLCwsUtLeWDMTkF8lUIMO9lCpuZmJR7RBWH/6tOMAvkGBqB4b80m1eeY87MAyCBYWFkMYFB7aAMj9+q8WfSeQFF2WjViDsP6MqoOFpD8DsBkUxQR8x7mk23BfB8sgWFh8weEG2Lod0/w60cnEOAmQ1cWeUzYwsGnmknXvFXse+dC1cJpTSnoCwFjj0uja6qbOxcblWAbBwuILS38ClDy7E9QAYDcqzU1AUhjYJBg/KvY88mFTw+7jPmN6goAqo7IIeNDZ1PlzFfMCLINgYfGForPBWSkdOIcY54B5TqkdCWSgC8BjTPxYTXf38nwjaYoJN8DW5ShfQsD/KBAX7Pm44hxS6M+zDIKFxRcAXgTR8da0rzFwIwEzRpAdeIeAJyWL5polHRGVi18x6LRX/wrg4xWIescRi59a88zaXgWydjJyvhYWFhZ50bGwei4xP8DAvsWeSxYwgJeZ8aiEfGzGkg1vFntCquhorL4A4NsViPrIJqRn2kMb/qtA1hAsg2BhMYppb5z2DQLdCaCy2HNJgw7QCgY324j/5lzc3VXsCammo7H6KwA/CeNemRgTz69d3L1MxbwSsVxGFhajlI7GaVcCpOzAUTE9/dVC8YTOjr+P1GihbGhfWLMfWD4MBestM3+vtskcYwBYOwQLi1FJ50JnIzMeQmn9xj8m4EkQHrWNlc9V3bVhe7EnZDbvLJixp4NiKxmoNSqLCDdUL+66QsW8UmHtECwsRhntjTWTmOXvURrG4H0CnpUsm7fGJz03u3l1X7EnVCjWnTW9QvTFHlVhDBj4W/WsrqtUzCsdlkGwsBhlEPO1IEwuln4G/isIj0LHY86Hu1Z9Hhm0oVhTKjgMUFef/gADbgXiVokYzjTahS0bLINgYTGK4EUQnW/xwiKo/g8DzYB4orapo60I+kuKzsbq6wFuMCyI0U0OnFLd1PWZgmllxDIIFhajiM43qw+GYAUNVjISJyAIxmOC5WOFaCAzUmhfOO2bYL5SgagtJDC/+oGurPohq8AyCBYWowmBvUzWsJYYN5KDH3U+0P2hybpGHJ0LnPXMuEuBKJ0Ip1cv7lLaLzoTopDKLCwszIVJlpurgdZLyPemfdZtSk/hkcy606dPZ8IjAMqMyiLgB9WLu55RMK2csHYIFiMSt9tdabfbd5kyZcqm5uZmvdjzKRWEpK1samwRzyMS8zodzq72hfijwybvrXpgQ4eZGkcKdlv8PGYVh/kcrm7qvtW4nNyxDEKR8R/m/7IU9ODgawy8GokuP8eIXJ/bV88kbk72GoH7JLABjBfGbqt46Pl/Pb/NiC4A0Dz+qwA6echFpqvDrS3PGpUNAHV1dRPs9vIGYpyM/siNyawDG7vfi2ke/3oGNzuk7e6WFS3rs5XpdfvPI6JBnzMvDUeDl6cbo3n81wN0zOdD+L5wa/C2XN6L5vG3ADQum3uZ4idEIpGsw3NipP/Dbri8flY4iXFtPC6uam90PkdMd1dv7HxyJBacUwWDXlNTakn0KBCSF5ZBKDJS0C8Adg2+JoDpAAwZBCY6LFHuztcwEKBO+Nr2cT1X+t3+k4KtwVfz1eV2HzENiF8F8NDyCMQaAEMGweVyOSrLx10A8DVg7JbkFgeAWQS6MiZ0AMg6VpsEjgQP+YyezDSGgWMJfNDnQuiWbPUBgNfrrQKjPsuFY3skEnk3F/kzmza2dzY621XEvmeJjYBjQXxsZ5VzQ8dCvk/XHffMMNi5ayRS3df5106HczWA2cYk8RGdC537F/r8ALDOEIqKz+07FOATE68zsGv/Ips/DJqT5a01UuDpQCCwS766BOnXI2mtHDowX5kA4Ha7J1eUj30W4FuApMZg6Dwg1uekgLH/4D8JnPYHGAgE7AR8efA1CcrpR0vScUDW9wKrgdxjzyVwR65jFFEFpqtsIv52R2P1C+2N0xr+ca7LUaS5FBxqhg6QiuQxwVyckiOWQSgiTHQDUmSTChE3tJgShi526SeCKXqML8xHj9sd2JfAZ6QQnPXil4jH49nDRo4VBByR7Rgd3J7tvfPnzy8HhkbkkE7/Sitf1/cGUDHoUrysDDlV4yShZ/3vwkBeT4gihrsBbMlnrCIEwPMI9Jc9tr3X0bnQ+X8dp1V/qYjzKRjVTZ2Pg7DSuCT+ateCaSqS2nLCMghFwuv1Hwvg8FSvk0Tei6nL5XIAPKTUMYEbIOQhEPIwJv4egCF11Jl5Xj667CRvRGrXY82hhx65a64y58+fXy7I/giAWQkv9TD49wKot8fEVLJxFRMdAeCPAHQiPWuDsPXjrbMT5r09uDL4dtpBesK/CeOtlpaW3Py9khLcCXzfwL/LsP+Y9Gtykj1AdXPXRwRcks9Y5TCmMONy2HhNR2N1uL3ReW5ng7OUK68aggAG049VyJKgG1XIyQXrDKE4CGL6RYIfeTuAMTv/ovzdLRUVFXuDMTj8MPbR5o8eX716Zx2ZlZrHfxCAbw26Z0quevxuv0cCJyRcHvI+ym19cwAsz0Xu1i3brwLDm3D5NWHHKcFgaF3C9Y0AXvK5fU06y6yjXaSN9k9oGfk6MrhnJLD/4O0cUe5P8Ew4cOjftCwSDinP7K1u6rq3o7H6RIC/qlp2nhDAXgK80oGftS90/skW53ucf+5+q9gTU01NU2ewo3HaCwAdZUgQwde5wHlM9ZIuJYEZ2WDtEIqAz+NrBHjwwqAT8aIhN3H+7hbBItEt8eYgY7BDQWKnpc256pHgBD8nh8EYUpqXSeRk2LxebxVLTny6fT2m99YHg8FEY7CTUGtoWWtra9bp/ZRwfsBI7y7qH0MJY3IzCIFAwI6EJjU2iYx686WXys8AUHJlJAjYgxj/K230345G5z/aG53nbji3akzmkSMHhu0KKAg5YuAGXlS4ddoyCAVm9uzZZQwsGnyNgIfj0vYohl7cx+1257W1lonnBwlPsv1y6SuDrzEoJ1+45taOB1FgiBrG1cPk5GjYiG3ngjB20KW4kPj6ypUrlfrEE89YKJvFnYa+F85xhyB75CwMPYPo+3DLh8q7Xu1g1uK1Wxyx+HwwXjdLhwJcBPwhvlW0dzROu3ndgqqR0NUtI7VNHW0MPGJYEOHAjv9OO1XBlLJiRLiMNE2bxGz7H5K8H4hrCDQNwCQGxgM0hsCSiTcT04cMvAdQOwStGrOl7FUVMfYqmTRxt/MBHnzApsdZXO907r5uY/d7Pfh8wbDZbLb9kMcTHjHtP+Somnmzpmmu/v8VexLjxwBmDh4jWP49BxUCJH6WcG1ZqDW03Ov17zXkuSjBRZJ58jh58HgGPRxcsfyNnGRkAQNDo7CYf6F5/IsyDBsSiUUkc1podRsS3VT2SRN3fVfz+IfdK3TUBVcG1+QiPxlTm999f83Cvbzl3PtQCbmPkrEbQJfYiC7pWOAMEXBXzycVzbMU9wwuJKzr15DNdhJgMDGE6DoO4JFC5HiUpEEIBAIVep/+FQa+AogjIHkfAu8Mnh/6m+L+v3nwdQYkY/u4Hl3z+INM/Bch8LdQKPR+Id9HIoFAYFy8TyYUveKm1taWNwFA89S/DfDnh466OBB5GASmob5ugC6ApAuAlAXyXwu1hh7PVr7m9p8B4H8GXxPAdQAgdH6TxRAtswOBgL2lpSXjl/nQQ4/cFRwb8hQuIP+a7byyxe12TwZQNeRi/65kbNIBydkaDodTurCSQTwsUEAAmJTk1l5RKXKSnY5Zi9du4UU4qXNN9Q/BfB0Gn1WVIgQvM6/aXD3xz8WeihGm/3njGx2N0x4A6GwjcgjYp2uq8yyg6x5FU0tJSbmMfG7foV5P/X3xPvkegx4D6AKA9zEg0gbgcGK6g3Xq8Ln9d2iaNjPjKJOI98lLAew56JLOJHf64Rk81N1CuUca1dXVTaDckpI+gpCnIct499mzZ5eB8JPB1wh4PhgNBgGgV5Ylup4qB1wlGbHb9erEa6TTf7IZmws2W3ne5zODeB05+oizDQVm4D/ZGNCcdC+CrFncebO02eag35WhIqXWDP4jmLWaJd2XHnJXW6zYkzFKHPKnSIjoywcmXLvurOkVme80RkkYBJ/b9xXN429lopUEPgvABBPUVDDhfEjxX5/Xf9PRBxydy9OgYTwezx4YHgr4LBHFNE2bqWnaTMEYuoNhzjnSqFyUz0H2nbJW6SzqwuFw1pEekybsegES3E2S8MCO91BW1jsRwJDCZ7otO8NGlKRscznUp/HL/A/sB5HzYTBzdgaBwKb5/Kc/2L6upqnrawJ8MAN/Qx6JbyYRY8J1vR9XHOxc0t2a+KKmaXv7PP7nAoGA6YuiSmY2bWwn4E4FoqptvXpeuUK5UFSXka/OdwDb6HcM1BdQrZ0Zl24f91mDpgXOCodbWgqhlGC7GsD4hMvHQYrjdvwxrCgZUc4Ll45EdxG2A9hR/qAPwPsA/k3Mj4daQ88jhyfF5C4vgBgPgVM/WwhJBwLIuP0n0rckyuEYzwSguNY+D8kFYNA9JPT/Szs3KR5mYO6gK6tz0Tjw2U0ffE2CPELow5rL67pueiVRZ1P3awBOXX9m7Qybrp/HwHlIOCMpFAy8xkJ+e/pDG15JfC0QCNjjvfIi6Pg5E7bknPdRAthYXh8j8S0a/vvPDeIr1izc655Zi9ealnRYFIMwf/788q1btl3PjB8Uaw4A1ULKF7xu/xWR1uDNMHELHTgsMD0OeW4eQyf7/f7qYDCY9YJIw9xM/KdwNKTkyUKP8Y8B7JHrOKbsnsiJqGPYP4Kgk5BjHkPmCeHAwXsoAqLhcPiddEN8Hv+QXRGx/GcuKvv6eH8xdOe2ORpdvgJFdt1Mf7B9HYDL1yzc6xdl3HP2QEJbTYHUf8bAT2tiXb/qL/swFF+d7wC9T94DGjDEhNcKNC+lVC3Z8EFH47TfApRXouEgdqvgnh8C+KmKeSWj4C4jtzuw76ebt69kxqUo/qG2nQg3aR7/PQ0NDaaViNSFvB5AXnXqOZ6zeyMhnFIoKZDl8/l2Z+Yf5Dk8K9dXKBTaCGBIRBEzzvP5fPulGzfPNW9iDnMhEIbIY0pfj8jr9VYxMCTjulcvy8mtI4adH/C/UUJ+/FmL126pbeq6pTrWNZNZngBghakKGSGbkAfVNnXdmGgMAoFAhebxL2IbvTx4V8ZMyg7aC01lRe9NDGwyKoeBS9eeuWfOD2XZUlCD4PXWz7eRbE1IyioFvrWx672m/pIPatE07UAGFiRc3grg4xT/DX1SyjGxCwmVFlnkVnwtJXG6FkO3vIzU7+HThNHOgciejBDRQwmXKlmnpT637yuJt2paQNO8vmd6ynp82b4NTdNmJLwPOfbTsrRhrUIOS/TbsGrVspy6hRHzUEPNVJK5AdQMvXbJhidqmrrczMJHoGYkfieNsZmBH1Tv0xWY9tCGYTkYvsN83niffAXAT5DYaIZl2l1cKbP7Hz/4lEA3KRA1rky3X6ZATlIK9oSueerPBfMdKJGD7GEQvl5ZPkYHsBAqn9x08X+gQe+ZsS0mHXutXLlsmO8YADSP/1kAny9+OSR2BeoCzjjk4IWX7XbjSUl+v3+GjGOIy4tBiyPR5WcmncdhgelxIYc8zQlRdiCAlzLpKu9x3NZT3vd9DHVNTWWiZzWPrx2g1wGMA/BlSLkHQCCJrH8gJGn/hH/ctzPlqkhQ4rlM7iUrwHMGe4yYcJrm8R+ddI7M54ZaQ8uSvVZIapd0hAGE2xtrZgrI7zPwbeQWmjsEIjxF4POdi7u7El9zuVxjKsvHXsvA/yLFGiEII3aHAAB6me1WW1/8YgDDoulygy7sPr3qt2b0sS7I4uzz+n4I8J2F0pc/tMDnrTfq59uJ11vvA2H+UBW4NZUxGGDIUxNn6W4BgJidE59kO1taWgwfUMo4/xxDn9Z0UPz6VPe3rGjpADCkjARlGdmztG3pZgmciaRPpVQL4Dj0ByHsNBi2SlvWNYwYQ8tPgDMv7iIhiS2fGkZElPhvMwn90VrD/tPJsT5X+WZS29TxTnVT1/d7qaKKgR8g50N+fo/B36xe3HV8MmPg9dbPrywf+waAy5BujeCRbRBm3L++h4GUv5scqIgLca0COcMwfYH2ev0LmelmZB8KWVSYeZHX6z9FhSxiviHh0laycdIuZp9PAIkhoLNcLldWiURieFijYXeRr853AECnDb3KD0QikXQlFySAtUOuUPZuwmg0+DyBv4b+CKlMbMnJ6CV+Rlks7kwJdY9kbp9rsjOINGyPRl8syYVvxznDpnF7fonBX8+mzDOBmu3Mc2qbuh9IfE3TtEmax/8HYn4aWRxkk4NGrMtoBzWxrnsJuZVMTwYBZ68/beqXM9+ZG6YaBE0LBIhxL0aIMRiAiHG/pml7GxEyYFQ8CZd/mzFbmkXiQmsrLx+XVQemxBpGxJkLtmWCbfRLDP2exCA441MOI9GwiZwOx0PR0N/tUswGeAlSJfYQ3gXwu1zkgnJrijMQbDDkhydyNLSFaIpTSA65qy1W29TdXLO467DU5wy8HqBjqps6v161ZMMHiTI0d30DpPgvgGyj7/qCwWC30bkXG2qGziAVUUI2YbcvUiBnCKadIXg8gTmQ8lHkGV1TZMZD2v7idrvduVTQHIwQHGIeUrMIdrs9Y2/cjz99Pzhp0qQh48ZtGZPOxfS5Tpv8MTPvzCIu/6wip4PPJBCEHBKyao/Z+1qiwWHb/kQcZeL8eDy+sy68lGU5H0wO9Edu9Hq94wULPyBqGDwGTBsI8u0p06a0NTc35yTXLsWxcXt8p4GzZfFvAiGHuIz2nDo1674LAMAiFiGirBrE2Hrt2eyKSoYd5wzdZ1Tto0vxPYDcYDxXEe/9xR7N729NvN/n801lSbeB+eQk4tKxHiVuKLOleu/Ov3S85byMEsq/5Axzw/ozqm5Mlr+RL6Y8udfV1U2w28r/Sf29gUcyt4ejwYuKPQkLi1EA+Tz15zP4BuRXieC5cDR4jOpJDcbrrT987KflqwpRELOz0XksA08ZFkR4tmZx1/zMN2aHKS4ju63illFgDADgQq/Xv7DYk7CwGMl4PEd8yevxL2Xw7ci7LA2ben7gd/v3J+ZHto7rHZKjsu6s6RXtjTUu1T0Jqpu6ngYjZFgQ45jOBU5llR6UGwSf23fSQD2iUYFg3BIIBMYVex4WFiMRTdPqBOKv59IbOxlkYsip3++fIQnPAdhFJOSL2LfFxxDkPzrfcr7b0ehc3L5w2jfXn1E7VYVehhhWBiYvBH6hRA4UGwSfz7c7E6ko5FQqdBDjhJaWlmG+UAsLi8ywpIUY2hQoT0HmGASfz7e7jOM5AFP71dCQ86Lq5q6PBoIXdgfQSEz3C6lv6Gh0vt3Z6PxD+4Kqr+ZbhbR2SUeYgaeNvgdmeNoXTjveqBxA9Q5Bp6Z5siMAACAASURBVN9gaHlnlWwC8BpAbegvPWzuIs14xF4mDgy2BqOm6rGwGMUIZHeYnhEJ5S6jQCAwDjo9BWBneXYinjPsxuRZ5TMZOJdIPG7ri3/U0Vj9Qnuj87L2xhoX53A2KwiXQ8FhOTH9QoVbS1mUkc/tO5SBRlXyBugA6Gam+HNJ4t6F1xs4mFieDuA7AHKpZ5OOXia+NBIN3apInoXFFxZOKJWeL7YKm1KD4HK5HPGY3gzQ3ISXhhkEAq9mYF4acZUAzyNgHiDR2TjtvU6IoAQvZWF7YvpD7RtTDaxe3PXvjoXOP4OHlbfJlf271jhPB7qajAhRFmWkuf2Pg6CqRV8fEV89bsK43z3zzDMZm0sEAoHd4jF5MxjfMKKUgLWQfFpoRUhZGJeFxRcY0jz+7TDuMvokHA0m6yyXL+T11P8x1VmnvUzs3tLSsjN3onOh8xxm3JWnLgngVQKWSsilW2OTgrObV/cNvmH9mbUzhK6/icTaTbmz7tPYxH0T5eeCEoOgadrekOINqHFBbYEUXwuvaFma60Cf1/dDZroJefQwJeDPfXrvuaqbuVtYfFEJ1AWccZtUUW/nlXA06FIgBwCgefy/AvCjVK8TcyDUGtpZcr1r4bTDJNOwpj15sgWMZRD8PLPt+dqmjncAoL3ReTf1ezoMQhfWNHXeke9oNWcIUpypSNZnEjQvH2MAAKFI6DcEPg25VWf8DKDzQtHg6ZYxsLBQh7RJRe1q1ZWs0Nz+i5DGGADDD5bLy3tXQ13BywkgnAymOwjy7Y5G55qORuetRGS4nEU/fHVng7My39GqDpW/rkjOT6PR5S8bERCKhv7GjMuzvP1N0vmwcHR5vttBCwuLFOiEGSrksKIII81dvwCUudQJJZwj9JeuRtYFFHNkLwAXgflXiuRVwYFv5zvYsEHQNK0GgKG6PwAAxrYxWyuUHORGWoO/Ygyrq5+o8EF7mZgbWhkyXO/HwsJiOMRqDIKKstd+j/8IEN+HLNY8Fkl7X6vpK1IYLs034sj4DkG3eQ3LAABCVGXKeGWv47sAktWp2Q7Qt8LR0Des/AILCzNhNS4jg41xvN7AIRL4O7Ktq8aYg+Hnqzn10C4mDNR2rqlOFxWVEsMGgUkOj9vNRw4oqwJu2bK0belmMH136FVaTTaeG44uv0+lLgsLiyQQKTEIJPM/Q/B4jvgSsXwS/U2VsmWi3+93DrnCxhtNFRJmbshnnOE8BAH6korTFmLOtl581oRblz+quf2PgHAKGPd+1rf14ra2thFTTdLtdlcKUT6bpDwAxLMZVEuEKcTYM0l9/a0AugnYxMA6MF6RJF4pK8ObLS0t8WLMv1RwuVxjKisrvwxdzAbxbEDUALwr+rNPd0X/YhEH8CnATKCPGNQO4rWQWCOJ3ujt3fqPtra2WFHfyEiDleQgyLGTx+blv/f5fLuzHn8GeSTL6jrNwaBGQDrL1YJKvL/XIKi/iVQ+44yheX0vgCmv7UkCn9jLxNSWlpYeBbJ24vV6q0ja68Oty5eolGsGgUCgIt6LAEg/HKAjAByEPEJoE9gK0LNM/JjDIZ5S0UGt1Jk/f375li3bPWA5T4COYuBgGP8cP2XgRQF6Toft6Wj0xZxKYJcygUBgXDweH9JPXMqyCUL0JX5mHw/+IxwOf4wUBAKBinif3A7ja0xnOBrM2DwnEa/XO57Y1oL+f/ucIdBloejyX+74e838vcrLJ/VsRQHbDhuE9TL7mBn3r89pPTX+5phUFX7bJd7H3wJwuyJ5AIBIJLIBQMkag4aGBtuGDZuOJvDp8T55EggTFFclHwfwqcQ4Nd4nY5qn/m8Q+m/D4XDGblcjDU3TXJDiG1s3b1tIwK4AKWyOjfEEnMjgEwXiUvP6XgSJ34XDy5+Eyh7c5iI8nnqXjTCfGXMZPIeAqfE+WZ7oPRaIAzLtE/FWAONTvajr+kyAVHyRc3YXzZ49u0yw7a+cpzEAACYe0pRq1jNre9sbnW8TsE++MgsMcV/vngByenAxbhAIurqfA/9c07Rnw+HwiG+Vlwm32z3ZTmXf2dj97oXU3yu4EDgAPh1SnK55/CuY8LNIJGi4uFYx8Xq94wXE+ZLpQsj+kusFWJ0FmOaBeZ7m8b8Fxs/DrcEHC6M6dwYKuJ1PhG8DXMsDszS0WlOGhVpXFHIKyjXCSEyeuOsDDBxtSO/wdrRAfw21kWIQ4LDbcnYVK9ghZNX3Nlt2gRR/93q9nkgk8qlCuSWD2+2ebCP7ZQB9l8Fjithd9DBiPKV5fc8KnS4Jrgi+UayJ5EMgENhNj/HFzPxdBiYVsUfr3iD8yefxnw/J3y2lsifzXPMm9lb0Xc1xXECEsSplZ8oNkIQZpMA85hpyqnn8v2bgtMx3poc4aUTS6wC+ZlR2odjy2cT3gYzNDYegYoewUfFz0Ryw7UEAp2CUtMwDdvpUfwTgf6GuEJ9xmI6RAkdqHv+vP9784bWrV+dfB6UQuFwuR2X5uO/F++S1KKHPkQE3BL2sefx36hy7NN/Wq6rwuX0n9Yi+O8CYYsozB2eI/JFiJlRYhBxCTjW3/3IA3zeuFADRbcPnIiKgEbMkvZ1PTSPDx+YEetuojOEycaLPW79ItdxioWmBQLxPvgrgepTQIjYIB4DLJk3cLappmvEkQ5PQ3IFjKsvH/Rvgm1Gan6MAcKEgR8Tv9ytxmeRKIBCwax7/Iib6GxhTTFMkMizUpCYHgTIZngG8Xv9CkLJGMbeEo8uHnWXWLOlYCtDZBLwIoMQjzvj5fEYZj6OS0pTDSWa+2uv1qyqJURTq6uomaB7fA5DyJQD7Fns+mWEXpGjzev2Gt9wqcbvdlZrHfwtIPgNwyftwCThIxvEPn9v3lULqras7cs94n3wRwE9gUnvcHYgMLiNSVPaa7ZzRZeT1+o8lxv1Q43/9Yzga/GGyFwjgmqbO+6ubuo7Uy+x7gKkR4IcBlFzkHrMtrzLYhj/AQCCwS7xPfghzvoB9xHxsqDW0zATZpuLx1M+1gZu4v1bJSIMBXBGOBm8s9kS83sBhguWDI/Rz1An8nVA0dL/ZigKBwG7xPvkSktTzNwMhsV+6cyfN4/8UuSWDJeOzcDQ4FmkO6z2e+rkC/KICXWDQQ5Ho8m8iR1c1N8DWYa9xC5LHS+CkYkciMfBSbVNXXi1LDS/iA3Htic1rVFHGRH/1eAIF+ZKrQvPUXyjAkRG6iAH9Dwo3DJQJLtp5rc9Tfw6xDI7gz9HGoHs1T/2ZZiqZ55o3Md4nn0GBjAEA3hbbljKc0ePx7AEFC/RA28yUxsDtDuwlwLlmIaeAHnOU0dnI49ySmqHXLukIVzd1XV7b1LUvQ3yJgR8AFMlHnkF6bIKT7nCyQdVT/d8UyUnGLgLyuYEieiXNgP/2FoBvQ79ffqTzI5+3/qeFVtrQ0GDTPP4bGHwXRv7nKAC+z+fxnWGG8Pnz55f3lvc9A+AQM+SnYGO6jH+iMjU1jNJEGHm93ipB8gUAeyjQ9ML4iWNOV5XRX9vU8U5tU9ctNU2dmh6zTyPGOQA9AcD0QAMiXOx8qPuf+Y5XYhCEHX+EuTHYVZDiKbfbPdlEHYZwu92V8V75OICLiz0XlTDzNV63/7xC6XO73ZUbN7z7JIDLCqWzANgYdJ/X6z9WteBPN2/7NQNu1XLTkiEUlKSaPggMTnqgXFdXN4HY9hShP+/EINExWytOzqYzYz7MaF7/bvWSrntqmjpPoBh2ZcijCPgdGN2KVTET/7B6cdfdRoQoMQjBYHAdAy+pkJWGOTZyPOP1elNmRxaLQCAwzkaOp0CYX+y5mAERbvN6648yW4/L5RpjE/bHwXSM2bqKgJ0YS/yH+b+sSuDAofWFquTlQPrIQkV9EJLlIMyePbvMYS/7G4D/UaBiFZN+jMoqy+mobu76rLZpw9Lqpq7vV+/TVSOI3WD6PwWF8zqJcWzt4u7fGp2jsoNgYvkbVbLScChJ8bjb7c67I5BqXC7XmHhMPgvg8GLPxURsxHz/oYceqbwA4Q6OPuDosZXlY59WVBerVJkgBf7icrnGGBU0f/78ciZSWuYlW1jy+vQ3qDEI4GHZ0GLSxN0WK/qO/Fvn2PxiJcDSIkjn4u4VNUs6r6xZ0rX/wLnD90F4Ftm6lhjdAF/VSxVzqpd0PatiXsoKNYVbw0/6PP7njaaMZ4QoYIPj7/Pnz/+qWdu8bHG5XI4x5WObmaGmJ0RpU1XmiN2N/oRBpQQCAfv2vp6/Ic8KjSOMOZXlY68DcKkRIZ9u3n4RFIV25ozIkBtAiualD90haB7/bwA+VYHkNfaYODr8cutHCmQpYaC38u8A/G7dWdMrHL2xg5jIxcC+xNiTiXYBy+0g8QmTfBPSFnp//O4rD7lLbQVepREkPp9vP9bpnyhERUDCo3aH+HoRSzuT11P/AIFNOSwsWZhOCbcuf1SlSM3jux2gC1TKLHGkYPiCrcFoPoNnz55dNmmXXdtNTTxLAxP5I5HloVSvax7feiioz8WkT9jxBO/z1l/LzCoCHDol7L7RVK1WJUoX7lAo9B+vu/73RPmHPWUN4+RYH98N4FsoQlExzeP/MQpjDBjAGjBeY+K1BPEegB4AYJK7EmgaJM8G0SFQEn6XAeJfBAKBJ1QZYq/XdwW4YMZgAwNvEvhtgD4C45OBgqiTAJ4M0F4AZkNN5Eo6hE64FYALeXx3J0+cfAoXyRgAgCOeuuCcy+VyAORM9XoOvL/TGHjqz1FkDN5j0o+KRoKWMUiB8if5nr6tl1WWj60D4FEtOxECn6V5/dvCkeB3M9+tDu2wwDxA/txEFT0MPEWMR2LSsWzlymUZu8m5XC5HZeV4L1ieDsbpMK+0w756H58NwFA0AwD43L4jmel6BXNKRQ8BzwP8KNlpeTAYzKpQmv8w/5eloPkAnwUkrXppGAIO0tz1p4ZblzfnOpYhFhaxsGpPy8qWZK1pAQBlZeNrAWm09wSAfneRptV/lSWrOCv5gGx8RDgUMStnalRgStKR3++vlnG8AmA3M+Qn4efhaPDqQigKzA1MiTvkv9DfbUs17xPRb20Out1II5u6uroJZfaK7zLzZQAmKJwfAICB9ZFo8EswkHTT382K/glgqrqZDcBYB6Jb7WX0R6MNgbze+sOJcRPALlXTG8QbU6ftuX9zc7Oe7QC3211pI8eHAFQFVmxm0BMEXouBnWc6CLQlFF1+R6rXPR7/0QJ4zvi06GEI/bfQxTIYr9S6GUIeGQ6H24zPa3RjWhbqwBfjSRQosSixw5FZ+Dz+vzNwgmKx7wH0yzFby/+gMgQuMDcwJeaQt5IZJXtZzA+3tuQb2UCax/8EgONUTgmEdxn8056e7fcqbncpvG7fxUT0Syj+PhP4+FA09FS293s89W4BzuvsIYE4gBvtZeJXKrvoed3+84hwp2FBzC0gOhDAJIOStkrQ0dHo8lbDc/oCYFoBrGg0+DyYcq4Lki8MvsHr9Z1vpg6v1/9N9caAHtY5tl84uvzXquOhW15ueTcSDZ7KxN9D/wKgDiHPzXeo5qk/A2qNATPonli8d59IJHSnCb2PZaQ19FuSfDgS2kgah3L6HG1q4u/jBD4pHA1erbqlKimqcgqiAIwbgz5iPtUyBtljakXEcOvyJUR8uZk6BkHEdLvmqT/bDOGapk0ixq8UivyYwAvC0eULWlvNDX+LREK3QtApANSF6TKOzydzPBAI7ALwTcrmAXwClidEosvPWbly5RaFcocRWhGKEPMxAJTpYeBYn8+XtdtMMmYZ18m/zGVXkhNERSn7nYQYWH4t1BpS4L764mCqQQCAUCR0E8C/NlvPAATw3T6PT0Ws8lCkWARFZyIMrIeQh4SioYdVyMuGcHj5EwMhsqp2bA4byo7MdVA8Jq8HsKeiObyps5gbbg0/qUheRkKtoVXE/E2oO9W1S0lZl7QgMmwQemPxMvN+j0zFyY0Yik7gbxTyezFaMN0gAEA4GroUhAcKoQv9dWMWq6xF73YH9gWgKjTyLZsd/mL0jQ5FQ38F8DNlAknmVM7C6/XuA4Yqt95rEvH61taWtYrkZU2oNfQYCMqyhEkilxpHBg0Cv7xq1bIPjclIK7/YBoGJ+PxCPmyNJgpiEADwx598eA6IlxZI30DZ7Pq5KoQJ4qug4jCR8R97TNQHg8FO47PKj3A0eB0BSnyqDMrJIBCLqwCoCEl8Q+fYkdFodJMCWXlR0VN2FYD3lQgjHIEsAjwaGhpsAE83qMy0SJt5rnkTYdzvbxC6NBQJ3VPcOYxcCmUQsHr16j6GPAVAoZqQjxPEj/v9/mojQjyeI75E4NMVzGeTncVxLS+3vKtAlhEkdD4fQNahjqkgYLqmaVktAP46/yyAGo3qBLBRwj7f7HOXTCxtW7oZDFWlwXfxeI7I+GT93nvv1QBJm79nTX9Snjn0Onq/ZJbsbGDiK8PR5YVyT49KCmYQACASiXxKNj4GwFsFUciYosfx96MPODrvOGZB8f+F8QQ+KYAFLSta1huUo4TQytC/CFCypRa6yKp6p26jH8P47kAy0cJSKTvwWd+2+whQ4n4hih+Y6R5dJ8ONgiSp74G+E6GoqF1e8NuRSOiG4ukfHRTUIABAKBR6X2dxHICM2bcqIOCgz8b13JvP2EAgMA4MBU+1/NtgNPiicTnqYCGVRPqw4P0y3dNfv54XGNVFTDdGIsvNLrOeNW1tbdsl0x9VyCJGRsNKCiKMbHr6XgaGUFXULj/lX9I89V+kelimUHCDAACtrS1rBeMoKI/pTg4Dp/k8vpzdPrGYPA2A0f4LnWO2Vl5rUIZywuHwP1X4kxmU0U1gF+ULjGeb8tu2crrOmAz12MBLVMhhcMbIK2bDrUQ5RrH1BmWkFq6q7HX+M7hJZb+JLyJFMQgAEGwN/luCjgOjIM0pGPT7gV6vWUPMZylQfHmhGnDkDhsPy2POWDNJEL5tWA3RJS0tLRlLKxSaYGvw1YHev4YgpowGgcBGDcLG1tZWE9s4Fj3kdIwU+EsgEKgo8jxGLEUzCAAQjS5vZYFGqM6iTc5uAo5bsr3Z5/PtDpCh1oQErJ3q3PPPRmSYCRNFDMuASLuD8vv9MxgwGu31SiQSfMKgDPMg490CibBLFnqMhpyaHepcbIMAAHP0mFQXWv0Fo6gGAQAikeDjBD4bBSlxwaf7PX5/VrfqOA6GD0Hp17kULis0Dge1wqAxFuC0xfNknAy3FWXCjShiec+MMBQY1oxhpwTjPYTNOz/oX0tqTJSfNcz4kddbPyrb2ZpN0Q0CAISioYcA/LgQunTgJ9ncx2xwIWNs69N7FhuSYTItLS1bARhK7GJObxAAw32mP5owYezfDcowF5tcbVQEZTB4bvcRVQAMukIydDozgKZpThgMiVUIEfM9gUCgUNWWRw0lYRAAIBwN3gyC6WFjBBzhq/MdkMWNhtxFEHja7No6SmD8x5gASlmG2eVyOcBsrNc0YUmxW6VmgYow6rQ7NZtNGj6w5SRN61VBesnUMNpBVby/gZZFDpSMQQCAcCR4JYPMzzIUdE66l71ebxUAQwltYCpdn/dgBDYaGk+pa+iXl4+fbTS6iIGnjYwvBOFweDMMujwlKH2inWQFC655OwSQoggjQgQKkib74ZM0T33eVXm/iJSUQQDAVdP2OJ+Ax01VQjgFad+77RCjOoSdW4zKKAjSYIMaxvZULxHJjMlWGYg5HCJoUEYhkAC2GhSRNgSbFCy46VpfGoaEkgNlYv4zManra8L864FaZBZZUGoGAc3Nzfr23m0LAKwwUU2V1xs4OPXLPNug/O5i1ivKCYKh/rdMlDJTlxgHGZEN0FsD5xwjAUPuQULqzxEApPEY/950rS8Nw8qK2r3z0ZYPFgF4XYk0wlgbycWzZ88uUyJvlFNyBgHozwDtizuOB8i0/qfEnLLnM4GMPlEY9MsXFGMN0Tm1y4mQOfs2LcSFKXGiBDKUa8LEaQ0CwajLiNbDxEg+hhqXEUl6Z/Xq1X2C8Q0AqhodHTxp4mQrFDULStIgAMCqVcs+lLAdB8CcImaUpkcuw6BB4IKXZM6H/lwLVBkSImRHqpeYMMWQbC5QzSsl8Dgjo0mK7gy3GHsCZ5NzENSUreBtsW3twEDCH/g3CmQOQJf63L6c+3d80ShZgwAA0eiLbzPhTJjxZJN+C76PMdGFKclhFCmNJd4BgE1S6uq1bNggKG3vaDKGyj6zoJQuRpfL5YBhww3TDILb7a4EK2l6tLGtrW3nmdT4ieOuNR4FtxPBRH869NAjd1Ukb1RS0gYBACKR4NPEdKN6yZw0iWYgwihjOYZ0EKjPyPhCISQdZlCEXrGt4p/JXuiv3Q9DPz4SXLJJfYMZ8E+PMSJDCD3lDqGsbHwtjCZJKiivkQohxExk0c8hM0N3Mc8880wvC/FtKIs6wrQyR8wKRU1DyRsEAAi1Lr8awAtqpVLSUgE2thmOSGDiEWEQmHC0QRFvparTtGHDhjEwuIgxUwGy140zceLEzGUn0hObMmVKymY/QhgPOTU1B0Eqy0EYNsdIpGUFEX6vSD7AONnr9RuurTVaGREGAYC0S3EukDrmPQ+SZn1K4wfKIKaS35Z6vd59gDTnKFlAaZodxeNxw0+MnEXBt1JACGEsZwXckbbEiTQewcMsTMxBsCmKMEqeJ7G9Z9tVZDCjfogWiVv6v/8WiYwUg4CWFS3rmekOhSKTPr0qKDEMZFESuuhIYbjPg6TUu7bx8fGGDYKK2PtCQJKmGxOQ/uldxecwptdu3g6BVCTNpd7FtLW1bYfks6DqLJEwlthuhaImYcQYBACwsdJU9ORx46QintpwmWJTCQQCFUT0LYNiYlLGUmZji5gwXsGWeG/DMgoAQ9QaFJB+sTYYwUPAh0vblm42IiMtrKrKaepM6tCKUATAnWr0AAC7Jk/YbZE6eaMDJQbB7T5imgo5mQiuCL6h7HCMkfQHQoCKp/v96uqOLFl3h96nnwPj+QdL0/U1HjhbSJnFnKWOOaX8Oe6AIacbGp/Jv8+G+wyYGnKqKgchUyb1mK0VP4bCntBMfJnf4z9ClbzRgCGD4DvM59W8/rCN4i9ASZRBVrypRAphfdKraro+iTJbX0mW33W73ZUMutyoHBL8SOa7+H2DaoTDFjd68G06BGHoOyMyPuQYc8mwiRFGA6j4zWTMpH7+X89vE6Bzoa4UupDAA263e7IieSOevAyCxxOYo7n9j7OgMBheAF/2eXzHKp5bcoTRmjE7GJ48Fpgb2NN4q8cd0Mlq5KjFRvbrYTSmHfisN1b2aMa7mN41qAcAvq5AhsmwIZcRC065YM9zzZsIwNiCZWIOwkAXQkNJef1kl0kdjAZfZFBePdJTMM0GhxWKOkBOBsHjOaLW5/bfLyBfA+Grg19jwPBTZzYQG8sR+BzxWuIV3aYrOwxm4HiPJzBHlTwVaFpAA+gHhgUR/rhq1bK0pRb672MFSUV8nM/n28+4HFOZbmSwlDKlQeh19Br/TrJ5Re2IytScH+SQSR3Xe34EQF2tMMIpPo/vLGXyRjBZGQS32z1Z8/hvEIi/yYRvImmEDmn9C46pCACGQiV3CmIOJV5joaZi4w4VguQVCuUZIjA3MAVSLobxc6O4sOHmbG4kwr8N6gIAYp1+pECOKQxkvqZtI5oWxrZoNJratSYUuGOkeWWvSUlZbuS0i1m5cuUWJjpPid4BmOlWTdNGRBCDmaRdHI4+4Oixmsd/tY0c6wBchkwdm6S8XuHchqFpAT8bzH4dYFOwNTisy5XyMEfGaV5vwGg2sGHq6uomxBzyaShoccigh4PBYFZPnDLJLixPzvJ6632KZOXNQAmJIZSV9U43JLT/QDm1T1xBjSAphIllrxVVOc3xnCMSWf4MMf6kRDcAEMZCisXJ/o2/SCQ1CC6Xy6F56i/cPr5nLYCfAcjUJnEH9V6v/wRls0tEykuVyGE8gST+SmZj0SJJsBHLxXV1ddl+fspxuVxjHLbyRwhGS1EDAHRG9mVEBno2G4s06kcQ870ul8tQeQgjeL3e8ZXlY25JvG44ByHDQsjGgxz03t7NKQsQGkZNEEZemdTlfWXfB5CpKGAuHFJZPvZahfJGHIkGgXwe3+ljysf+B+Db8ilORowbzbCymru+AcBxaqSJvya/TtPVyB/CTIet4g8oQs5HYG5gSmX52JcAqKnySLgzGm3Juk59S0tLDxjLlegGZlVWjH1ooEZSQXG73ZNJ2l4AaNgOi0HTDQmnTK4SYyGnDHS2tbWpKiM9HDVVTvPKpF7atnQzWJ6vQv8grvR66421fR3B7FykPB7/0ZrH/w8GLWEYytbdt7J8jNLeyJqmHQjiP6iRxu1TnbsnzbBVFU+dRPLpmsd/NwpoFPxu//4xh2wFcKgikRsresquynUQC1bXApNx8sau9/6AwoU4w+/2728j+yoQ6hjDDz6JjR0oZ+EqMfqdHBE5CPlmUodbw08CvETFHAYQxPyFDUUVHk/9XK/Hv0wAzwFI00UsF+gSze03XBoBADRNc0GK52GwvPAOiMRdyerGBAIBOxlN1krPtzSP7/758+eXm6gDDQ0NNp/X97+SsIoMRr8Mhgk/zCfb1eGwPQxAXbE/wrc1r//PgUBAQahjerxe/zcl0LqjFIlI4tZgoumGlNjSHvgKAMayoE3so+xyuRxktPc4jGdS98XLvgfgPaPzGITTRmWKHkBHFkKA7yVAfbYe4U+a22+oPILPU38BpIgA2EPRrDYz6cnrIfXACcCuSE8K6MxPN297WdM0o72Gk+LxBOZs3PDecu7vSZs+ACAXiJ+NRIJ/zmdoS0vLByD8XdlcAIDREO+VK71er9FWp0lxuwN7aV7fC8S4f0heCid92jb0hCxl6pBQTdOcAAw9QCQzYqooL59YA6NlufsxZLRWrVr2IZi+p2Aeg+BTNbf/G2pllj4CoHtMkm0H4R7N47/F6/XmFJanadqB0VaKIwAADRVJREFUmsf/PINvh8EfRAK3hsPhpM1rYjZF4XOZ2R9SrPJ6fD8f6FhmGL/fP8Prqb9PQL42kCioku5YvOwsIwIEq6xBMwBhP2Lbq5rHf4umaUp2j/46/yzN47vLRvJ1MM0bppKHPW2TwSxiHre1LOWCTbrxstIsTSx7Tbqi8wPjcwy3Lm8GKMXZYJ4QbvPX+WcplVni2HXue8hGjhuh8onycwjAxcS2UzRP/U069z2Uqv6Ny+VyVJZVfgUQZ0LiVKj3t2+I6b2/TDlRo77g3Cgj0JWs44eax3e/YLoj2BrMKWbf5XI5xpSNOUISXSDjOJ7AZhy29klQw8qVywxtx4PR4Iuaxx8CoDp01AHgYkjxDa+7/j6y6XeGw+Gc2m56vd7xgsWJDHGaBM8HKOXnKMqHhm/6fL4prBtqjLMpVT8JAGASMw1XabDp5uUgKIowUpVJbS+jC+J97Ic6j8I4tmGxy+XymnowX0LYW1tbP9I8vmaAzjRRjxPgW2zkuNHr8a8SjH8xoWvgtd1BfCCYXFB0TpAMJlyycuXK5BVO0R9ySlSws8odVAJ0gSRc4PX41xPwNBhtLMS/YjHbOl3/ZEtbW1vM7XZXCiEmCSlmMYkDCexh4BgGJpo5Yyb+UTQSbFUhi5ivYaIWFbKSsAsR/xBS/EDz+F8lwotgDkuSa8d+Onb9jkU3EAiM6+vDdCI5U4AOYWY/GHUMVGSx8G5qaWkZWjYlhplGHlsog6uECDPYoD0gMu8MAcQzlFQVUpRJ3dLS8oHX67+EGA+pkAcADMytKBtzNYCfqJJZyvT7zAXfAmmqQdhBBQF+JviHXGXTF+IXMvnASdB0ZSWz8mDgAPhCEEAsUWaXgH0sNM/AR8U7PiYuzDQJD0QioVtViQu1hpb7PP7HGTAvT6V/R3owMw4G6FJiG7aP69n5Gcb7ZP/6zXl9isMW1v7M9vz/NTJXOTWc9LU1FAoZLTCYGomZSuK9FGZSRyLBxZrX/zUwlNUSI6KrfW7fi6HWkKoQ6pJFAEA4HG4DsKLIczGL7RDyuxnvUrX9HQUQ8PzHn3x4jmq5kvQLAHyiWm5BSJovwIbqDBEoUylnYwYhY46DQRTlIKjOpCbBFwFIelaYJ4KJHlR1VlXKfL7hZfpdEedhGky4MEu/smUQ+nnJViZOXL16tfK+0JFIZANAl6mWWxCSHXwaLHXCktenfd2ofJPLXpOa34zyTOpQKLSRwJeolAmgGixGfSjqToMw1bnHXwC8UcS5mMHtkUgwY72TgVZ6RktCjwZWMekntrS0qOxdPYRwdPndBOQVwlpUkoWcGnXp2FJn57pcrjFgGGsONDwqShl1dXUTlNQVY3SYcWAbiobuB+MZpUIZDV6vf6FSmSXGToPQ3NysE/iaYk5GJQS8PH7i2KyeEiZM2L0GI6ydqAms0Dk2PxKJfGqyHo5z7GwAr5isRy1JF2+jncziKRfsioqKGTCYkS0odVlto9hslWpCTk3Mk9BhPweKXZTEuM3v949ab8KQRTAUDT0CKKs9U0ze6NMdX33mmWd6s7lZiILlIJQmjCc+6912ZLqWmCppbW39TML+dajNLjUVKYf6ud1udyWAqQZE9k2dOjVlYTYiu+EFlzl14x2jEEnT+ygbpbX1xW4TXJQTpY4Hi1FTqxAkZuaysONsGce/oKQLUlFYw6TPW7kymPVioyyeegRCjDtt5eJ7ba1t8ULqjUZffNvv9h8lCS8C2K2QuvMgNm3arl2DL9jt9hmsG3qCb09WQmUnOhuO4CG7iSGniiKMzMykBvpdlD6P/2sMqGvFyvC+u2HTVQCuS3eb5q5vSFWDjZgbQq2hlzSP/wMAYKKFkcjynS4uj8ezh4D9dQB2CHnUQOCP6QxzkwSDwXUEUn0gUyjWMOmB/sPLXFBU031k0UPE54Ragxe0tLQU1BjsINga/LdgHE1A5u5rRYSSLd66sYcIQoaF0HhvDq7cXNluUEZKlPUOYWluJBTAOuznAlDqCmXmazyeene6e3T0LYOQR0HIowD8l4CXd/zdJ/teHrhtEgCdGOcOHitgPxP9LsNJML2kzmC9SQhFl99NZpQbMJflEnEtd2OAL2LI6ZsSwh2KhMwqW5I1wdbgqyzkoQDeLPZc0jA8BwHCWGvL5HWRdqIggidtFrRhVPVBSNNPWhXR6IvtTHylYrF2wZy210lra+tH4XC4LRwOtxGwhUE7/05Ikv0TwMd7vd7PA1sY3wL4AcVzzkjKg9TtfdsuHmgkU+owM900ddqeR0aj0U15STAaT21yeJ9C4iDcYC8TB0WjLaq6mRkmHA6/o3PMCyBpWfJik+zgk42WOqH02blMhkupmPudVLRDSNdPWiWRSOh2BoJKhRJmOGxlhpM3Cfw6GG0kbd8AAL/b7wGhhsnWbHySuZHSILS1tcU+3vLhqQQ8XsgJ5QThXQI3RFqX/zitPzajGIPx3kLXmPh7AFKWxig6hAiEPCwcCV5hZlhpvrS2tn4Ujga/8v/t3V1sFFUUB/D/ubPdCkRLULAENI0mqKQQEkJxl91lA7X6QIwISkLEmBg08UHfTJ98NbyZ+PGg4oug0YoxIfiB2mxndmYLWkmMTSQkqKFFxAeJ0Gi3O/f4UFBsy37dmd125/wed3fu3DS7PXNnzj0HoGcRTJe1wMxR1A6kuMts1Aq3Sti07HXIV95sXvYawJW6L+Jqp60YngJwpdIHa0P7gij1T0QHQdgPgDThaRAOMwc918rKplqOjo4WO1fd/iiAAzCushUoDfC7xam2bsdzjpgM1Luxt8Mon5ox4brur67rvOZzbC0YH5vMJwRnCLw779qpRj2YMsB5b+hNJr+HgcFmT+YaZpyZ/eLs7mk1jVnmVklPz/ZbAXSYjB9m9k46nV7+v7Lg9Qp7J/UM073AKfiaRIQ3svdnu0yGsOL0PoDlqdTWHQAeY6im3M6tmHs/MDDg5z27H0x7AIRXF6VKBBwnzZvynvPkyZNfGz+MLMaLpuUB/m2SXigMjucL9i5o9QDAedO5mU0L3zBhTyyu1poGzUZzXXfU9eztxLwTzd0sqRk44qP4+ey32OgK3vf9GwaEeHyyy2RsINz8fq0tw9XLVSFunLuRvDf0Sgi/zY6S8o1SUXO53BUGfQDN7wB01nVz3wY5wWpVvRkrXxga8HnqXoDfAtDorJQpAg5D6Q2OZz/oDDuBbWrylXG2yKwvdX4491Xec9JqupfxFwC0yTlqcIlBb5PmlOPZPa5rf9isDKIgOAXnk7xnd0PRw2js/phxAAdiWt3tevbuQqHw1/Vv9q3vWwKzVNk/yu35IG3eB8EK9bmWNlodXUNUvnRHSLTP1n4EW+sIAKXOj114yWwIOgjgNibdtGSPmtKZrn6Jn8lkMi/zFF5kYF8gS8e5MYARAB+pGN6zbftcKGcxzacus+y1PXsQwGB2c3Z1SeknQNgLYJ3B2eZyDsCXBP7UilvH5uPzAUM6nx86CuBoMrntbuKpvUT0OIDugM9zBoTjpHnAKTgOygTx4rJiG4ror/9UVP6+ucZZKJPxARVX35scXw6zOkvQRvMDACadC2A6NSsUcj+m0+kU+7QTQE3Nu2ZYhOv6yBBRZ3ZzdnXuRG5s5gc14SDAM3+bDKCfmEYAwHVzw6nk1hfa2tQhAIjHcaFURD8zh/O/bw5GW0v61vctmbj570cI2AVGCoBpB7CLYJwAUU7DOuJ5g6HlUV+TSmZeB/BcvccT+HnHc16t9vPZTdnOUkxvA3EWoHUA7kH1fSB+4+l85lNMOKW1OlEo5OZzumZo0un0Sq1pGzFvAbAOoG4AS6s8/CKA0wC+A2hEw7Ib8V0TYr4LtBFBKpVaw6wSCtigGXfQ9Nb+O4FZq4jfAYyDcI6Zx4jVD6qNh6cf+jRWakv6MzA9VO/xBN7heM4xkzkkk8kVSqmVSqsOn7CUNLUT6SJra4ItnmS2znd0tI9VW4ojqhKJxLJYLNbJbK0g329nqFsAgKD/JNBljvGlUqn008xbQEKIaQ1vETbfpJKZ0wDW1Hu8z+q+qF6lCyFaS9QrfCrAKN+b29vxc0BzEUKIpop0QMhkMqsAtBsMMd6CD3GFEBEV6YDAU2ZF7bhCk3QhhFhIIh0QTOuxqIVTw0gIISqKeEBQZiuEkGu5CyFEI0U6IGjTEr6yQhBCtJBIBwQybIzDqnwJYyGEWEgiHRBM+yBobclDZSFEy4jsxrREIrHIorYJ1P83mMx79mI0rnCdEEKEKrIrBKXUXTALiL9AgoEQooVENiAEUGJYnh8IIVpKdAMCmQUEkgwjIUSLiWxA0KzMVggVmqQLIcRCE9mAYNoknWWFIIRoMZENCDDclCZ7EIQQrSa6AQHoMjlY60nZgyCEaCmRDAi9G3s7UH27xblcLtckXQghFqJIBoRivGi0QxkgWR0IIVpOrNkTaIYS0U0KGPnvFV6MqhvlMDPjUCgTE0KIJvoH72Qbri+yC+0AAAAASUVORK5CYII=" vertex="1" parent="1">
          <mxGeometry x="660" y="499" width="153.67" height="80" as="geometry" />
        </mxCell>
        <mxCell id="2P2w4gMl4hyvQ_OGWpci-41" value="Select projects" style="text;html=1;align=center;verticalAlign=middle;resizable=0;points=[];autosize=1;" vertex="1" parent="1">
          <mxGeometry x="725" y="431" width="110" height="20" as="geometry" />
        </mxCell>
        <mxCell id="2P2w4gMl4hyvQ_OGWpci-42" style="edgeStyle=orthogonalEdgeStyle;rounded=0;orthogonalLoop=1;jettySize=auto;html=1;exitX=0.25;exitY=1;exitDx=0;exitDy=0;entryX=0.5;entryY=0;entryDx=0;entryDy=0;" edge="1" parent="1" source="2P2w4gMl4hyvQ_OGWpci-43" target="2P2w4gMl4hyvQ_OGWpci-3">
          <mxGeometry relative="1" as="geometry" />
        </mxCell>
        <mxCell id="2P2w4gMl4hyvQ_OGWpci-43" value="" style="shape=image;verticalLabelPosition=bottom;verticalAlign=top;imageAspect=0;image=https://upload.wikimedia.org/wikipedia/commons/thumb/f/f4/Elasticsearch_logo.svg/512px-Elasticsearch_logo.svg.png" vertex="1" parent="1">
          <mxGeometry x="835" y="84" width="195" height="45" as="geometry" />
        </mxCell>
        <mxCell id="2P2w4gMl4hyvQ_OGWpci-44" value="" style="shape=actor;whiteSpace=wrap;html=1;" vertex="1" parent="1">
          <mxGeometry x="1330" y="593" width="120" height="125" as="geometry" />
        </mxCell>
        <mxCell id="2P2w4gMl4hyvQ_OGWpci-45" value="&lt;div&gt;predictions for &lt;br&gt;&lt;/div&gt;&lt;div&gt;users&lt;br&gt;&lt;/div&gt;" style="text;html=1;align=center;verticalAlign=middle;resizable=0;points=[];autosize=1;" vertex="1" parent="1">
          <mxGeometry x="1206" y="624" width="110" height="30" as="geometry" />
        </mxCell>
        <mxCell id="2P2w4gMl4hyvQ_OGWpci-46" value="" style="shape=image;verticalLabelPosition=bottom;verticalAlign=top;imageAspect=0;aspect=fixed;image=data:image/png,iVBORw0KGgoAAAANSUhEUgAAAWwAAAIICAYAAABKEtRoAAAgAElEQVR4nOydeXhTxfrH36zdF2gLBWTfEVSg4IKyK4qCIgiIgBsKbggIilfQixcXUEHRey+ooFfhuqGgIj/B5QoCssgmIHsrRaC0dEubNEmbfH9/hDlOTrOctElO0s7neeahtFnmzPKdmXfeeYdIIIh+HiIiBJjWqZJTgUAgqOc4KXDBhio5FQgEgnrMLVQzsQYR/UuF/AoEAkG95QTVXLBtKuRXIBAI6iUxVHOxZql72HMtEAgE9ZDdVHvBrgx7rgUCgaCeYaCabzbKU7sw510gEAjqFdMpOGINIvo2zHkXCASCekWwxJolbXizLxAIBPWDoRR8wX4zrE8gEAgE9YRzpEyEs4lom8LXis1HgUAgCDJppHzWPJSIOgTw+t5hfA6BQCCo82wh5QLMsCh8fXlYnkAgEAjqCUrF+gXuPbcF8L7W4XgIgUAgqOvMIeXCmyx7r1Kf7U2hfgiBQCCoDygV62wP710bwPuNoXwIgUAgqOsMJuWC29jD+2MDeP/iED6HQCAQ1HmKqfYbhzkKP6MqJE8gEAgE9YBWpHx2/IyPzxkQwOfcFPzHEAgEgrrP96RcaP2h9HPOBvUJBAKBoJ6gVGTXKvisvwXweenBfAiBQCCo67xBygW2lYLP0wfweQeD9xgCgUBQt9EQUQUFf6Nwv8LPBBHFB+E5BAKBoM7Tm5QLa1YAn5sRwOf+IwjPIRAIBHUeK4XODa9I4Wc7avUEAoFAUA/oSMpnwR/X4PMfCODzb63FcwgEAkGd51tSLqg1vS1G6efn1PQhBAKBoD6gVEz31uI7VgTwPQKBQCDwwJukXEj71uJ7ArkMQcyyBQKBQIaGlF84EIyZb0kA35UYhO8TCASCOsMVpFxAHwjC93UK4PueC8L3CQQCQZ3BTsrE00nBi1ut1H3QGaTvEwgEgqgnkNluMI+NvxrA944M4vcKBAJB1PI/Us+erPR7/wjy9woEAkFUolQ080Lw3T8F8P3iCjGBQFCvCSQq3z0h+P5AzDG/h+D7BQKBIGqwkXLBDBUOhd/vJOHiJxAI6inXknKx/mcI83FbAPmYF8J8CAQCQcRiJuVCmRbCfGjJFflP7Zm+QCAQRCTtSblAVoQhP18GkJ8RYciPQCAQRAw7SLlAtglDfgwB5CcU3ioCgUAQkegosmbXjMMB5CuUJhqBQCCIGF4m5cL4ShjzdX0A+doexnwJBAKBaih1o1Njg09pvkAuM4pAIBDUWe4g5YL4rQr5ezqA/C1WIX8CgUAQNvJJuSB2USF/CeQ6IBOpKwCBQCAIC00oMJPDFJVSaQB5HBLUEhIIBIIIIZsCE+xoSGVBLSGBQCCIAOJIfXENVWoZxHISCAQC1XmR1BfWUKVNQSwngUAgUB21RTXUSSAQCOoEd5P6ghrqtDxopSUQCAQqkkfqC2qoUxURaYJVYAKBQKAGyaS+mIYr9QtSmQkEAoEqFJNywSsnopIITIHMsgUCgSAqSaHAZqiN1cmmXwI5SKPG6UyBQCCoNS+QcqGL5AMogTzHdyrlUSAQCGpFILPra1TKo1ICeRax+SgQCKKKB0i5wDlVymMgbCPlz/ORSnkUCASCGlFAygXuPZXyGAh9SPnz2EjMsgUCQZSQSYGZEJLVyWbABPJMvVTKo0AgEATEaVIubNF0oe10Cky0BQKBIKIJ9AKA4epks0YEGnFQuPgJBIKI5nWq27PQg6T82X5UKY8CgUDgFw0FJtb/VSebtaI1BfaMenWyKRAIBL4ZT4GJWZw62aw1dlL+jO+plEeBQCDwiYmUC9mJAD87hlyz2z5EdDsRPUJEzxHRq0T0byJaSURruLSWiNZd/PnDi69ZRETzLr73DiLqT0SXUuADx/wAntMe4GcLBAJByOlAgc2uh5LL/S+LiEaRS0g/I5eNOJAZbKhS5cW8fEZEfyeisUR0JRFlEJEhwM/qV/NiFQgEguATyGZcfUvmWpSrQCAQBJ1AXPnqY2pf86IVCASCmhNLRLcR0VtEdITUF0NPyUFElgjIB0vl5LKl30Yuk4pAIBAEHQ0RXUJE9xBRDoVO0Kzkij+STUT7iWgVEc0molvJZR/Xhvg5WxPRjUQ0g1zuhvsv5iWfXLFBQvHMP5Nr47NhiJ9NIBDUYYzkOgBTRq6ZajBF6hy5vDV6ElEiubw/Qi3GwUBHrpVFMhFdTy6vlCoKXrnYyOU5c0W4HkggEEQniUT0NyLaS8GxRVcR0QVyzcj5dJyiQ5wDYT25P+NZCo4p5hQRLSSi1PA9ikAgiEQ0RHQVuZb+tRHoKiI6TEQfE9FNFPqQorFENIiIniWXoPmb/ZuJ6BtymTm6kzqnDq8houVEdIBqPiN3EtG75PIZFwgE9QADueylNfVxdpJr5ribiPqGMd9JRPQTEUGj0SAhIQGDBg3C+vXrIYeIYLFY3H737bff4o477kBCQgI0Gg17liXkClKlFjcS0VFy2e1rUhd7iKgBiZjbAkGd42kiOkk1m0k7yLUs704uW3M4eYNcnhW4/fbbcfDgQVRWVlYTaX+CLefw4cN45JFH2PMVkeu+RjVpQEQ3k2uTM9D6sZLrRGe0HvEXCOo9sUT0KLnEKFABsJBrM21Q2HP9F28RES677DJs2LDBp/jWRLB5Dh48iEGDBrHVw5sU/kHJE63JteF7ngKru3Iimkmu+hcIBBGMkVyeC4HE8mAz6ONENDr8WXZDQ0QPERGysrL8zqSDJdgMh8OBG264gZXJUxRZpobxRHSMAqvXPCK6XI3MCgQC77Qjl2dCoOaOL4moGUWGx0YSEZXr9XqcOXOmRkJdW8FmmEwmNGvWjM1WW6hbLNUwkmujOI+U13MFEf1HjcwKBAIXCeRaMldSYCL9TyLqqkJ+ffEyEWHJkiW1EupgCTZj7dq1bIPyRZXLxxs6cgWjOknK6/9/JG7AEQjCgoZcR5oDMXkUk8seHIk2TS0RHUlOTkZhYWEQpNoFBUmwAaCyshJt27YFEeWSa3YbqejINbAovaW+glynRwUCQQj4kAKbSf9PnWwGRGWnTp2CIqw8FETBZlx11VVsUzIaiKHAYrs8rk42BYK6xdUU2EbTBoqOQxWx5JrhwWw2B1VYgdAINgAYjUaQy70xWtAR0UhSFgOlilyTAoFAECAPkPKDLWfI5b4XLcQSkfPOO+/EihUroNfrkZeXF1RhpSALdlFRESvrBeoWXa3oQK4gU/7ak5OIlhFRvDrZFAiigzhy3baiRKSriOg7is6LXa3XXHONJIbffPMNiAgnTpwImsBSEAW7tLSUlfnT6hZbUPmMlAXzep8i224vEKjCL6TMJc9ORNdSZPkHB8JPLVq0qCaKR48eBRFh165dQRFZCpJgm81m6PV6kOvqsrqGjogeJGUz7s9VyqNAEDE0JdcsWcmM+gsi6qhONoPGKCKC1Wr1KI6//voriAj/93//V2uhpSAI9pEjR6DVakEuG3BdZwJdPP7vIznItQIUCOoVzcgVsc2fSFeSK7pbXSCeiLB161afInn48GEQEdasWVMrsaVaCva+ffuYQPVStdTCzzBSFspguFoZFAjChY5csaGVzKhvUimPoeJcVlaWIrG0Wq0gIixbtqzGgku1EOxt27axOkhXt8hU5XJSto/SSK0MCgShIoFcNmp/HaCQXEeO6xpZGo0mINEsLCyEXq/H7NmzayS6VEPBXr16NasLcVGui2HkP3b3DoqMYFkCQa1IINduvD+hPkZEWSrlMRycmj59esDiaTKZEBcXh6effjrg91INBPvdd99ls8ZMlcsrEnmK/Av38+RaRQoEUYWBXHcV+hPqU1T3fV3jiShgwWVUVlYiJSUF9957b0DvowAFe86cOSBXTGmBb5aRf3fAPqrlTiAIkMfI/6myfCJqqVYGw0zOzJkzA9VpNxwOBzIzM3HDDTcofg8FINjjxo0Dueqsrg+ewSKRiHaS7zZ+iKLzjICgntCTiErIdyPOJteNLfUFAxE5gxHUyel04tJLL0WvXr3gdDr9vp4UCvb9998PcgXSqslNLe+Rsg3kUKZXa5DvYNGN/Aea+ptquRMIPJBErk0XfzPqHmplUEV6xcbG1lqseTp37ozOnTvD4XD4fB0pEOxhw4aBiP6k2h1CejUuLg7l5eXBfExFPPzww6DI8Iu+m3yvKkvIdeZAIFCVKeTfnjdUtdypj/W///1v0IUqKysLTZo08fka8iPYHTt2BBH9EaTnfFir1aKsrCzYj+qTMWPGgFxtMBLQEtGv5Lsv/FO13AnqNW3I/z170ykybnFRExQVFYVErCZOnIgGDRrAbrd7/Dt5EWyn04l27dqBiLYE+VlH6XQ6nD59OiTP64mrr74aRHRdkJ+jtnQiV/x1X6vNJqrlTlAvKSTvDfJHctlu6zvNDAZDSAXrwQcfhNFoRGlpabW/kQfBdjgcaN26NYhoU4ieeRwR4fjx4yF9bkZSUhIocjf25pH32Dgmit5YOIIoJIOqN0IrETVUM1MRxpSMjIyQi9aDDz4IIoLNZnP7PckE2+FwICUlBUS0NsTPfTVRcCMPeoNc7S7SySf3fuIkcchGoAJywbZR/fIA8cdL119/fchFCwCWLFkCg8Hg5j1CnGBXVFQgPj4eRPRCmJ69NRHh22+/DdkzO51OkOsgS6TzFFUX7Oaq5khQ77ifvJtE1qiYr0ji2MsvvxwywZKzatUqEBGys7MB/CXYhYWFiImJARHND/PztyMix6pVq0LyvG+88QaI6OswP1MgaInoe/LcR+wkZtmCMLOLvIt2JRG1Ui1nkYH5559/DolYeeOnn34CEeHYsWMgIpw9e5bdeP6MSmWQSUSVtY086ImLtvjRKj2XPzLIu/eUlVwrEIEg7LQi7xsrTnLNMOorjjNnzgRdqPxx4MABqQ4uivXtKpdDAhE5FixYELRntNls7BkjceNuMvnebIzUTVJBPUFLRBvJ+2y7mIg6q5Y79fDl8lhfEsNIRKWPPPJIUAT7u+++AxGdrmG9hAotEW0j72WxnCJzgBHUU4aT70M0S6h+NVhnOH2SGRcvHgARQafT4auvvgp7Hsxms1ywiVyCVjB58uRaf75OpwMRXRHuCvVBB/Ieyc9JRGPVy5pA4JvD5F20nVR/XP8qd+zYEQT5U87JkydBRPj9999BRCgtLYVWq8X7778f1nyUlZV5EmxGRf/+/RXFQ/HERZOPOWy16B9fUSktJDYXBVHA7eR7qfypelkLG3mvvPJKkKXQO99//z2ICEeOHAHwl5dIfn4+iAgvvfRS2PJy/vx5X4KtIaIc/tb4QGjfvj3IFbtDbVKJ6Cx5b+MfUP1aUQqiHD0R7SPvDdpKRFeqlrvQsySQcKi14aOPPoJer0dBQYH0O6K//LCLioqg1+vx4osvhiU/F10MK/yUz47LL7/cbxArnouXFJeFvur8Mpl8ryLrc/wcQZTzAHnfNQcR/USuTam6xqONGjUKoSy6WL58OYxGY7XAS0TVj6YnJiYiWBt/vujZsyeIaKGCMtqRkpLiNR6KnIsnNdW867MBuTw9vLXlP0iEZRDUAeLJ9+W7VVT3NmY6Go3GkArjxcMjimOJ2Gw2xMbG4qabbgppvshVp5cpLKfvUlNT/X7mxUsW9oWqshTwDPmeeDyiXtYEgtAwkXzbto8RUbJquQs+KC4uDokozpkzBzExMTCbzR7/Th4EG3DdyJ6SkoIxY8aEJF92u53VZWwA5bQsPT3d62eyTVRy3fQSbjLJFTPcW5stIaJLVMiXQBAWDOT7lCSI6H2qG0vLqk8//TToonjfffchLS3N52vIi2ADrkBQLVu2DOjKMaVs3LgR5IorEygvEVUPR1taWsraRJtgVoxCFpDvdiriWwvqDe3Id2cAqX9Kr7a0J6r5BbyeGDRoELRard/XkQ/BZrRu3RqtWrUKVtYAAAMGDAC57jOsCVOI3CMPJiYmglw+/OGkFfk2f4BcNy0JBPUKLRG9SL47xnly3Z0XjRjIw6yxpgwcOBBxcXGKNulIgWA7nU5cffXVaN26dVDyx763lmV2u8FgQEFBATIzM0GueyPDhYFcg42v9jiVhLueoJ6TQf47yh4iaqxWBmvBn7Nmzaq1EF577bXo1KlTQMKp5BJep9OJgQMHon379jU+zMJ49dVXQa7N5doyglx1/nkQPksJSiYOJ4koLUz5EQiigkHkCj3pq+Osoeg6PaYjohqLIbslpnPnzgG9jxQKNuPmm29GRkZGQH7Rci7eADM9SOUWrmu0BpLv9lZJkXNvpEAQkbxEvjuRg4i+Ui13gWN64oknaiSCjRo1wmWXXRaw4FOAgg0AU6dORWJiomK/aJ5t27YFwxwSTtKJqIh8t7MNVDc2vwWCkJNKRP9H/jcmlRzQUJteOp0uYBFs3bo1brzxxhrNzqkGgg0A06dPR1JSEsrLyxW/x+FwwGAwgIhuVrugFZBJRL+Q7zZVSkRd1MqgQBDNZBLRKfLdwZxEdA9FdqzhUwMHDlQkgFVVVcjIyMDo0aMDFlwG1VCwAWDGjBmIiYmpdnrSG/Pnz2ernkgmlVyXD/tqR3YielytDAoEdYn25N/VKpJ9Y3VEhN27d/sUv6qqKhARHn744RqJLYNqIdgA8O9//xsajcbvZxQUFLByV+NQi1J2kv92875amRMI6jK3ke+422zGvYpcu/+RxG06nQ5VVVUexc9qtSIpKQlz586tsdAyqJaCDQAffPABNBoNTp065fU1qampIKIP1S5YD8QT0bfkf5DfSUSNVMqjQFBvmEr+PUpARB+Ry20wUtjnyeOjvLwc8fHxeP7552slsgwKgmADf13ue/z4cbffO51O9O/fH0R0XOXylJNBrg1pf+3iKBG1VCmPAkG95UlyhfL010HPUeR00LI+ffpIm4n5+fnQaDRYunRprQWWQUESbEC6kgv5+fnS755++ulIs1tfQq5DVv7aQSFFTjsQCOolGnKZSpTYuEtI/chq8USE8ePH48yZM9BqtVi/fn1QxJVBQRRsAPjll19ARNi1axdeeuklZnaKhOPZt5IyoTZT9J6YFQjqLGNJ2YwbRPQZETVTJ5uUSER2vV6PNWvWBE1YGRRkwQaAI0eO8HsEmSqVG5ErfvrLpMwklk9E16uTTYFAoJTeRJRNyoTbSq7Qr2ockijt1atXrU4YeoKCLNgOhwN33303E+sGKpQTkevi3d9JWZ2eJOUxuQUCQYSQSq6bQJR0cie5Yh+3DmP+dETkNBqNQRVYCrJgX/QGAanj6/4fUjabBrnqL1WFPAoEgiCSSEQvkLJOzzbUviCiTmHK3woiwrJly4IisBQkwf7qq69gNBpBRFvCVA5Erj2Jh0j5QAsiWkrqzfwFAkEIuYGI9pJyMXCSy9f4mhDnqy8RVWZkZCAnJ0dVwc7Pz0dWVhZ7/hEhfm4iV0CvseT/VCufzpMIzCQQ1CuWk/LlNm8f7UihMw/sIyJnz549UVFREVbBttlsGDJkCHvOAyF6PkYsEY0n1x5CIINnNhHFhThvAoEggmlH/mNNeEpniehtCv5dlAlE9DMRoVWrVjh8+HBIBbugoACXXXYZe6ZzFLrY4y2JaB253CsDKecqct2YbgxRvgQCQZQyioh2UODiDXIddZ5FwbuDUE9E84jIqdfr8cADD2DXrl1BEexDhw5hxowZ0Ol0LO8rgpRnnvZE9Cy5ThYGWpaVRLSIXKFQBQKBwC9jyGUCUXIox1OqINdtJp3INWuuDU3IdfNOFRFBp9Ph8ccfx88//4w//vgDhYWFsFqtcDgcICKYzWbYbDYUFRUhNzcXO3fuxOzZsxEXF8fy5iCXLb9FLfPFSCSiDuR6XhvVrLzMRPQNRXYwKYFAEOFoyeXud5hqJkT8rLGMiD4moqxa5CeeXHEzciiwwSSPXMGOgiGI7YnoHXLFjw50H0CelgUpTwKBQFCNTkT0DyIyUe2EiqVycs2ePyWip4joOnKJsppoiagnET1KRB+Qy7WvkILzvLlENInEPYkCgUAFhhDReiIqoOAImqdkIZcHySdENJ+IHiaXy90NRNSHiHqR6zRgF3LNfjtc/JmlnhdfN4iIhpLr0od55BLjTeSafYcq7+fItaoQpw8FAkHE0ZhcQmiiizbnepQc5DL7LCVh5hAIBFFIe1JfSEOdsskV5lQgEAiimgRSX1BDnQ4GrbQEAoFARYRgCwQCQZQgBFsgEAiiBCHYAoFAECUIwRYIBIIoQQi2QCAQRAlCsAUCgSBKEIItEAQDAA0BpIkkUqjSsmXLWpD6ghrSpNfrD6tdziLV+dSQAJggEISQsrIy1QU11KlLly5qF7Og7mMRgi0IOUKwBYKgIARbEHqEYAsEQUEItiD0CMEWCIKCEGxB6BGCLRAEBSHYgtAjBFsgCApCsAWhRwi2QBAUhGALQo8QbIEgKAjBFoQeIdgCQVAQgi0IPUKwBYKgIARbEHqEYAsEQUEItiD0CMEWCIKCEGxB6BGCLRAEBSHYgtAjBFsgCApCsAWhRwi2QBAUhGALQo8QbIEgKAjBFoQeIdgCQVAQgi0IPUKwBYKgIARbEHqEYAsEQUEIdqhwOp1wOBxwOp0AAIfDgaqqKjidTrdUVVUFh8MhvZb/mf8M/v/yv3t7vcPhQGVlJRwOR7U8sRQOhGDXDr6eAUj1yv+N/cz+z9oVq2P+MzwleZupqqpy+35PbZBvs+FuU/UUIdihwlMj9ySyrGPJ31NVVQW73Y7KykqvHZG9jiV+UOBf4+mzWacMRycTgl07PImiXMQ9CamnevYl2Oxz/CWHwwG73S61TyHYYUMIdqiRC7TNZoPdbnfrVLyQstdbrVaUlpYiPz8fp0+fxvHjx3H06FEcP35c+vnIkSM4evQojh49ihMnTuDs2bMoKiqCyWSCzWar9v2sg9ntduk72YAQSoRg1w5+oOZXTZ4mAJWVlbDZbLBarSgrK0N+fj5yc3Nx4sQJqa14SidPnsTp06dRUFCAsrIy2Gy2at/B8sAGAU8TCEFIEYIdCljHkTdmJpZ8hyoqKkJOTg5+/vlnrFy5Ev/617/wyiuv4Mknn8SECRNw3XXXoWPHjsjMzER6ejoaNWqE9PR0pKWlIS0tTfo5MzMTXbt2xcCBA3HPPfdg9uzZWLBgAf75z3/i448/xq5du5Cbm4vi4mKYTCa3QSPUCMGuPfJZts1mQ3l5OYqKinDq1Cls2bIFq1atwptvvokFCxZgxowZuOuuu3DdddehXbt2aNSokdRmPKVmzZrh0ksvxfXXX4/77rsPzzzzDF577TW8++67+OSTT7Bz506cO3cOxcXFKC0tlQYNtrqTmwAFIUEIthK8mRaULh/ZjDkvLw87d+7EN998g/nz52PIkCHo0aMHOnXqhIyMDOj1ejcR0Gg0UuJ/r9Vqq/3OW9JqtYiJiUFmZiYuvfRS9OrVC8OHD8fChQuxYcMG7N+/H1ar1ePS1l/iy8cXDocDp06dqtPp7NmztW5P3toXM23k5+djz549WL9+PebNm4ehQ4ciKysLHTt2RFpamtR+lLYNeZK/T6fTQavVwmAwIDMzE126dEHv3r0xcuRIvPXWW9iwYQMOHDgAk8mEyspKWK1Wj6Y4f/1GoBgh2Epgwst+li8T5ctDZn8uLi7GkSNHsGLFCjz22GMYPHgwYmJioNPpatypgpVYR2zatCluvfVWzJw5E59++imOHj2KkpISScDZ89hsNrfn4zelxJI4MNiMFPBte75w4QIOHjyId955BzNnzsTgwYPRsGFDSUjVbEN6vR4GgwFNmjTBiBEjMGvWLHz66ac4ceIEioqKpGdgJjf2M1vZ8W1LoBgh2EqQbxzKhZrZ9axWK06fPo1NmzZh0aJF6N+/PzIzM5GYmFirmU8okqe8JCYmokWLFrjpppuwbNky/PLLLygtLYXNZnNbAsttmGK2FBhsP4GVHRMzs9mMCxcuYPPmzfjHP/6Bvn37omnTpoiLi5PqK5LaED/46/V6JCYmokmTJhg5ciTef/997NixA4WFhdIGJWsvVqvVzR4uUIwQbKXIZwW8WJeWlmL37t2YN28e+vTpg6SkJGi1Wmi1WqlBq92pvIk2EwCdTufWAYkIl1xyCQYMGIBXXnkFv//+u2Q64ZPctUvgHzbgsX/Lysqwfft2zJo1CwMGDEBqair0er1HcY4kwdbr9W5tXKfTSatHrVaLxo0bY8CAAVi4cCEOHjyI8vJyOBwOaQJQVVWFiooKtasjmhCCrQR+9shEuqKiAmfOnMEHH3yAYcOGISEhQTIz8A2aF8VI6Wze8iG3l7NlN7ODT5gwAWvWrMGZM2fcZkZCsAPDbrejrKwMOTk5+OCDD3D99dcjKSnJrew91UMkCbe8TXv6l5luiAhpaWkYP3481q1bh7y8PEm0RZsJCCHYPL421dj/KyoqcOjQITzzzDNo1aoVYmJiQERudmlPnYmfcauV2Pf76+xstq3RaGAwGCTRjo2NRXx8PLp164bXXnsN2dnZkoug3CNGvtlUV/H2rN422Gw2G44ePYrZs2ejbdu2UvuR15OSQV5t0Zbn2d/ejF6vR1xcHLp27YrFixcjJycHZrNZ0aa2MLsBEILtDm/m4P1dmd1t69atGDduHC655BLExMRU8+oIZHZSE/H2tkSWz8B8fbZ84KhJp9doNNDr9Wjfvj2mTZuGgwcPSstbub8uf7ijLsL7PrMZI99+2IBms9nw448/YuLEiWjatGnAqy5Ps2++HfmagSutbyUmGE9eS0rzz79Xq9Wiffv2mDx5Mg4ePIiKigrJTMKfE2Dly7ereowQbB6HwwGLxeJmo66oqMDu3bvxwAMPID4+XpppEpG0mRhI4mevbNYRqHizjsrbnQPt9N5spIE+i1arRUZGBmbPno2jR4/CZrNJh4Pqw5KXF2gmNqztWK1WWCwW/PLLL7j33nvRsGFDr2aPmgog/ztv7cjba9jYE0YAACAASURBVHmTBTPleZpMyNtKTQWbTSzYgM8+p0WLFpg3bx4OHTok7ZOwcuQ3ZsUmpRBsN5xOJywWi7SLf+TIETz22GNo0KABtFotEhISAhZJefLVqXghjI+PR3x8PBITE5GcnIz09HS0aNEC3bp1Q58+fTBw4ED07dsXXbt2RZMmTdCgQQOkpqYiLS0NSUlJ0qAi/2zWWdj/jUZjjZ7DYDC4bTBpNBo0bNgQL7/8MkwmEyoqKiRXQKvVqnbVhgwm2Ly7GhOZ8+fP4+6770ZKSopU5jUZaOVJr9f7XN0ZDAbExMQgOTkZqampSE5Olg7HdO3aFVdffTUGDx6Mfv36oVu3bmjWrBnS09PRoEEDJCQkID4+XtqT4b9Hp9O57dHU9hl4P28iQmpqKl555RXk5+dLZSr37RYzbCHYEmxEP3/+PBYvXowOHTp4nFHUxhbNzzJ0Oh1iY2PRpUsXTJgwAU899RQWLFiA1atXY+/evcjNzZWOmpeVlcFsNsNisaCiosLtZ4vFgvLycpSUlODChQvIycnBjh078Mknn+Dll1/GE088gTvuuAMtW7ZETEyM1wM5gTwD63D879j/L7vsMqxYsQIlJSWoqKio854AfGwNu92Os2fPYuHChcjMzHTbeA7GqoY3h8TGxiImJgadO3d2az9ffPEF9u7di1OnTqG4uBhlZWUoLy9HeXk5zGYzrFarlFjbKS8vl46y5+TkYPv27fjwww/xwgsv4KmnnsKoUaPQvHlzxMbG1tgUyISa7z+sP7Cy0Wq16N27N1auXImSkhJppcJWa/Xcb7t+CzY/YjPzx3fffYd+/fp5FGe+oda042VkZKBDhw4YNWoU1q1bh1OnTqGoqEgSNU+BeXzFa/C0GcMfWmBLyIqKChQXF+Po0aNYtWoVhg0bhjZt2lTzTlAq2N6EhKWEhASMGTMG27dvr3ZYQh5wKBrwdMBF/nuLxYIff/wR1157rSRMSlZUSpLRaJRWMUyg165di5ycHBQXF7utYpioydsFP/vn8y4PQCa3FbOBqKioCNnZ2Vi+fDkGDBiAdu3aISEhQdHgLze18AO8fHVJRIiLi8PYsWOxc+dONx9uuUmE996KpvZUQ+qnYPMCyOxlRUVFePLJJ5GWliY1Ip1Op2g2wWatRK7lKJuBsgaampqKUaNGYfXq1fjtt99QXl4ubbKES7zkJzRZLJM9e/bgs88+w5AhQySPBU/PzEwnga4uMjMzsWjRIhQWFkodjm0q2e32kD5zMOGPifNCyJ7l1KlTePzxx90Oufibaco3HuXmByZqKSkpGDt2LFavXo3s7GxppqymQFmtVpjNZhw+fBhLly7Ftddei5iYGLdBireRs98r3Rxn72/dujUWLlzoNujz5S8/D1DHqZ+CLT8qu2XLFgwZMkQSJd6u66/z8Z0sNjZWEuuGDRti5MiReOedd5CdnQ2z2ezmPcCfFAznM8uPP7P8VFRU4MiRI3jttdcwZMgQpKenuwkJOxQRiGCzsomPj8c999yD/fv3S2XAosFFE/xslG2K2e12/PDDD7jhhhtgNBoV2Xh5kxhvVuI9KDIyMjB27FgsX74cOTk5UnnxgZbULD824PLBzPbv348FCxbgpptucgvBwPoFP0ApmZWzsklKSsKECRNw4MABaV9EPuniVw51mPop2KzCy8rK8N5776Fly5YeN3KU+C2zhhcXFweDwYC2bdtizpw52L17t1uYSl6keNEMdxwOJtT898tNKCUlJdi2bRsmTZqEZs2aIT4+PqAlvHxTTafTwWg0olu3bvjqq69gMpkksYsW+Bk2E4eCggIsW7YMbdq0cds8CyTOBxM0g8EAo9GILl26YPbs2fj9999hNpurCTSL66L2YMdcFdmgz3sGFRYW4qeffsKkSZPQvHlzyRzCVp+e+pi3xM/Qs7KysH79elgsFp++/3WY+inYTqcThYWFmDx5sjST5O1pgcwi2cZhv3798N577+HMmTPS8k1+dJs3gcjjkoSjsbFGzWZG/PfLfV2ZTT8nJwevv/46srKy/JqHfAkVMy81bdoU8+bNkzaUogW5aB4+fBgzZsxAgwYN/J5K9JbYLDQuLg5Dhw7FBx98gLNnz8Jisbgt9eVxW/igSmrB8sIGXt7vnK0+KioqcPLkSSxatAhXXnmlZIf3JNxKVmoxMTFo0qQJ3nrrLZw+fbo+bkLWfcGWz2arqqqwb98+jBw5stopRV9i7akT6nQ6DB48GKtWrcK5c+eqHRiR2z35OCT838LlW+rpxJg8eJM8r+zfs2fPYtGiRcjKynLz2VUyS5KXXUpKCiZPnozs7Gwpb/IlrlrID0/xdn9WV0eOHMHIkSMRHx/v1QQiLxu5a6VGo0F8fDwGDhyIzz77DPn5+W6HRuT2fn7AiCSTCMuHJxszb4bLzs7Gq6++iu7du7uVmZINbPnf4uLiMG3aNGRnZ/uMxV0HZ911W7D5TsY6w44dO3D99dfDaDRKGyF8p+JjCvN2Nn6TiLlSvfvuuzh9+rTUscK5iRgOeB9jVn4nT57ECy+8gJYtW1azTfoTbd6Gqdfrcccdd0h2SX6GpuasiS31ef9fJuIWiwVbtmxBz549pRWZkpmifGUSExODbt26YenSpcjPz5dc7aJpxREolZWVsFgsOH36NObMmYM2bdpIeyOeTn36a1OxsbEYO3Ysjh07Jp2d4AVaPmDUEeq2YLNZAOuEX375Jbp16ybtvrPNRXmD4U0kfAPS6XRo1KgR5s2bhxMnTrgtUb3dpRjNyJfiTFgtFgv279+PRx55BI0bNw44KiF7ndFoRN++fbFnzx63SxTY9WZqwK+QeHcym82GNWvWoHPnztLGck3cIVu3bo358+fjxIkTsFqtbpuJdUhYqsH6os1mQ0VFBX799Vc88sgj1dwClZYp67/XXXcdduzYAavVWm0FWZf64kXqtmCzuLtlZWVYuXIl2rRpU61RyE+eefubXq/Htddei02bNkkxMzxdcMov7aMd3obKL8PZTNhkMuE///kPunfv7jGIkSfB8hSbolu3bti0aZNkN1d7hs3cHtmzW61WfPbZZ24baEQU0Km/2NhYDBkyBBs2bHDzGGImMjY41FX4Z2WblaWlpfjiiy9wxRVXSBciBCLarF9eccUV+Omnn6TPtdls1YS7jlC3BdvhcMBsNuPrr7/GpZdequgYtny012g0aNasGZ5++mmcO3dOWn7xtk75RlBdGdX5zUi5LZW5AtpsNhw6dAiTJk1CZmam18HPW2JH3K+66ips3bpVOo6s5jPzdWuz2fDpp5+iRYsWbs9mNBoVufFptVq0atUKzzzzDE6dOiWtJLx5D9VV+AGKjxNiMpmwa9cu3H///UhKSlJ89oHfd2Kb/lu3bnW7HakOuvrVDcH2tnR3OBz44osv0KlTpxqdTNRqtejevTu+/vrragcV+M0f+RKsrsDPTvgZttw10el0wmQy4cMPP0SHDh08bkZ6K39mz2YrmO3bt7t1bnmw/3AcMOKF9LPPPkO7du38RrLjZ9788/ft2xcbN26sdmuPvL3UlUHeG/I+It9ALS4uxrvvvov27dt7bC/eYrDwPu3XXXcdtm3b5vF+0jpC3RNs3ua4bds29O7du0Z3KMbFxWHEiBHIycmp08GLgondbsf27dsxYMAAGI1Gt1mQkhWNVqvFDTfcgOPHj1cbHHj/8VDCm0G2bduG7t27+w3WxLupxcXFQa/XIz4+HiNGjMBvv/3mdlCqLs+iawJbnbJJ1oYNG9C3b1+305JyRwBfE6wBAwbg0KFD1VYvdYS6Idjy0bSsrAy7d+/G4MGDqx33VWISiYmJwf33348///xTWloJ/MOEKTs7G6NHj0ZCQoKi8madjc22x4wZg3PnzknH9+WHJEIJm/EdO3YMAwYMULyRygd5SkpKwqxZs6SDU3yc8HoeHrQa/CYv24Tds2cPhg8fXs3dVolHktFoxPjx43Hu3DlJrMUMO8JgM2q2C11QUICxY8dKdkbe5uWvAyYmJmLu3Lm4cOGCtPFUh0bokMM2Dk+fPo0JEyb4ja3B1wc7qm0wGPDEE0+gqKhI6tDM1BWOznf27FmMGDGi2oEqf4MOkesY9fPPP4/i4mK3FYEY9D3jdDqlyIH8jPiPP/7AhAkTJNdRJZMu9rf4+Hg8++yzEXMqNIjUDcHml84WiwVz586VLhvgRcHf6NygQQMsWLAA+fn50i3Wap8oiyZ4T4DKykoUFBRg6tSpiI+P9ynYngbRtLQ0LF26tNoN26Gui6KiIsyaNUsKZKR0ZcYunZ03bx5MJpPUHq1Wq5t7oBBud/jj/vxZBqfTibNnz+Lhhx+WIkoqDeuq0WiQmJiIFStWSE4CdYS6Jdh2ux2rVq1CUlKSz8rlhZsdl83IyMAbb7xR7fBLHVtShRS5W6PT6cSFCxfw97//HXFxcVJ588H8fdVRmzZtsGfPHjdvlWDXBZuFsYFh5cqVaNy4sVffYJZ3eeCm1NRUvP/++5JAMzMIy28dEo2gIj+1yfc55pL76KOPuplFlJjViAiXXnopNm7c6Fb2Ub4ZWTcEm21c7NmzBz169FB0qIF/TXJyMmbOnImysjK1H6VOIPcoOXPmDCZOnCj5ais9JKHRaHDrrbfi9OnTITlYIj/yfezYMVxzzTXSd8sHFv7UK3+jfHJyMl566SUUFRUB+Mt/XVBzmGBbrVbk5uZiwoQJbpdveGs/bBBlm94jR47EmTNn3DzHongSVncEu7CwEA8//LB0NZavZSxf4YmJiZg6dSrKy8ujKnpcJMMLFtuIPHfuHIYPH+4meEqWtkSExYsXo6SkJCRufUywL1y4gIceekiyW8uD7csFQqPRwGg0IiYmBo8//rhkRuMjHwpqDn+C2OFwSPsKnnzfvW1IajQapKSk4M0335RWPPzsPQrNU3VDsO12O7799ls0btzYp11UPhIbjUbceuutyLkYbzhKR92IgZ/ByH1hrVYrjh49iuuuu05RLGQ+dejQAZs2bQqJDZsdmf7oo4+k+DJ8h5f7lLOJABONkSNHIi8vz80dsK4fMw8H8pPDdrsdv/zyC3r06CHVjbcNYXn76tixI3bt2iV9ThQfWa8bgn3u3Dk3301/9lHW8Xr16lXtoIag5vAnIuWxttmG0o8//ohOnTopdrFky9v7778fBQUFQetkfKc9duwYBg0a5GYH9bQak9tK+/bti0OHDkkn9/gZthDs2sNPAFgZr1u3DpmZmZI5ypt5hA/eptfrcffdd0tx2PmBIMqIPsGWn0SrqqrC/PnzkZqa6ncZy3e2lJQUfPrpp24xI4Rg1x55AB4AMJlMimfT0Zq6dOkSzZtZEYu8PdntdixcuFDyHJFv/npKWq0WzZo1w8qVK6vdWBNlRJdgs5kbK/TKykrs27cPl19+OYg830UoF22tVouYmBg888wzKC4urgsbERFPfRFsQehxOp3Iy8vDmDFjAnLzMxgMGDp0KM6cOSOthKKQ6BJs+ZKb+VzLT9T58rvWarUYNGgQDh065DbSss8UBB8h2IJgwWbZGzZskGK8KNkPYfesfvHFF6ioqIhWB4PoEWw+0BCzZ+3fvx9ZWVluFxF4Emt2nxyLvPf+++9Lm4z8RkQULpGigrKyMtUFVQh23YB5j5SWluLZZ5+VDsgp8TqKjY3FqFGj3I6tRxnRJdj8jSQWiwXvvvsukpOT3SqFjz3A/06n0yEmJgZ33nmndB8c82YQMR5CS2lpqeqCKgS7bsD323379uHqq69WFBSK/dukSRP8+OOP0Rp/PPoEmz+M0b9/f0V2LFahGRkZWL16tbBVhxkxwxYEC/mhrIULF0qnaH0l/pajcePGqX4VXQ2JLsFmG45OpxNbt25FWlqaX/sV8wrRaDS46667UFxcLAQ7zAjBFgQLudfIyZMn0b9/f0WeIuzn9u3b49ixY9GoA9El2Lz/5OTJkxUdQWeCnZ6ejlWrVgl/axUQgi0IFnyskcrKSpSXl2PBggVISkryWT+8X3Z8fDz+8Y9/CJNIKGGbjQ6HAyUlJbjiiisC6lDDhg3D2bNno9X/MqoRgi0IJvykizkfBKIHOp0OQ4cORXl5ucpPEjDRJdhsc3Dt2rVo2bKlooDmLF7I888/j/LycuENogJCsAXBgs2w2VkMh8OBvLw83HPPPYrubGWa0a1bN+zevbvaQacIP/gUXYLNlkHTpk2TrmXy586j1WrRuXNnbN++3e0iWUH4EIItCBa8ey/vMfLxxx8jLS3N5z2i/P9ZvGx5fBr+HtMIJLoE2+FwoKioCKNHj1Z0TyMbTQcPHowTJ04I+7VKCMEWhAom2L/88gs6dOiguL4MBgPmzZuHioqKaLoIOboEu6qqCgcPHsRVV10lHYTxJ9qJiYl45ZVXYLFYIn30rLMIwRYEE15Y2STswoULuP/++6X68OeXrdfrMXr0aBQUFERTeIroEWzAVVGff/450tLSFHek9PR0fPnll9EcPyDqEYItCCa8LzbvPbZkyRI3UfZUT7yQt2vXDkePHnXzPotw0VZXsOU+lf5SVVUV3n33XSQkJFS7r9Fbatq0Kf73v/9Vu10kmvAUAQ9ANVtepC7phGCHH3l759uH/JosfuUp/zkS2xOvB/wzfPDBB9LK21s9sb/pdDo0aNAAO3bscDvxLL+uTG7fluchzGUUOYItb1B8QCb2e5vNhsWLFyMuLk7adPTXkQYPHozjx49HbehL/nQnH/OE3WpSVVUl3abB2+MiCSHY4YX3qOJjvfOixAc+8/R3m80WdRdQb9myBZ07d/Yo0J5SSkoK1q9f71YmnjSIhcRgQi6/YzSMK3d1BduTMDMh4pc6drsdJSUlOHLkCB599FHpbkB/FUJEmDZtGsrKyiJ6BuoP1jjKy8uxe/dufPzxx3j77bfx+eef4/DhwxEf01sIdnjhA/7zp4PNZjP279+PVatW4a233sKaNWvw+++/o6KiQmo3bGIUjTGj2TViSm8zSkxMxOLFi/HHH3/AZDLBarW6xRbihZkfzAD3C6fDGPlPPcGWL9fY9Urnzp3Dvn37sGHDBsyfPx+33XYbrrnmGlx22WVo27atm+uOkop58cUXpQYbjZuOlZWVMJlM2LRpE0aOHInmzZsjISEBer0eycnJaNOmDSZNmoQdO3bAYrEIwRaCXU1gysvL8e2332LEiBFo3rw54uPjERMTg9jYWLRr1w5TpkzBnj17YDabq/XJaJrgmEwmTJ48OaB6a968OTp06IAePXqgX79+GD9+PJYsWYLNmzfj0KFDOH/+vNtqQ27vDvPemHqC7XA4YLVaYTKZsG/fPixcuBATJkxAz549kZKSguTkZOlCXZY8XbbpT7TfeOMNt82JaGqAgOu+yuXLl6N169Zul8MajUYpKqHBYMDll1+O9evXR2ScXyHY4YUPlGY2m7Fs2TK0bNlSirfB3/jOUpcuXbB+/Xq3AynR1l/MZjNmzpxZo/rj74eMi4tDQkICMjIycM0112DSpEn45z//iSNHjqCkpMStjKLahs1GHKC6gztv6ykoKMC3336LuXPnIisrC02bNpXMHJ4E2NtFBJ5eI3/tm2++KX03X8iRhtyGz/K6ceNGdOnSxe3Z2AWw/O3RGo0Gffr0QU5OTjW/UrVNQUKwwwvf37Zt24Y2bdooOrPQr18/HD582M2mHU0rUrPZjCeffDKgCZ0vTeGT0WhEixYtMGDAALz88svYsmULSktLPeqcpwQEpT8GT7DZ0oDZnHlxtNlsKC8vx4EDB/D3v/8dffr0QXp6ujRL9HQ7dSBJr9dXu9WaVdbSpUurbShEomB7GtzKysrw4osvIiUlxWvD4htkw4YN8c4771Tb8Vd7kBKCHV74Qf/vf/97tZWqt3TJJZdg9erVUnD/aDOJWCwWzJkzR9KBQMQ6EFE3Go3IzMzEkCFDsGTJEhw7dgxlZWXVNiM9eeNEjGDzmxts45CdTFy3bh3uuusuaSbNGpAnE0dtkqfofez4KV+IkYjcr9ThcODPP//E8OHDFR0QYpeRjhkzRgi2EGyp3q+88kq35b6/NvTkk0/CYrG42bKjhbKyMsybN0/SAXaXY7DqmN3Azot3XFwcWrZsiUcffRRbt26VbmZnidm++YlYLfpjcE0iTKjtdjvy8vLwxRdf4LbbbpNmiHq9HgaDATqdrtpyvraizb+fja6dOnXC5s2b3dzg1BYvb8jd9ZxOJ/7880/ccMMNUuPw9+xarRa33nqrEOx6LtjAXyve7t27K+5jWq0Wjz32GCwWS0T3FW/Y7XasWbMGTZo0UTRA1TQxfeHNsOyClLvvvhsbNmyAyWRy87Zhq5ValmnwBJstocrKyvD999/jlltuQVxcnPRQRqPRbdPMW2HWtJDlJpWYmBhMmzYNZ86ckUa3SL670ZPfeV5eHkaNGiWN6t7s9HyHu+2224Rg13PBZvVut9vRq1cvxf0qJiYGc+fOhdVqjej9Hm9UVlbijz/+wG233ea2oRpM4Zbbx3nd0Wg0iImJQcOGDTF27FgcOHAAZWVlbpvA/P5UDQhcsHl/Tf4wh9PpxM8//4yJEyeicePGim1IvIDLC8DbLRLyOxuJyC20osFgwNixY3Hs2DG3gonkWYPcCd/hcKCgoABTpkxBTEyM140U+WXDw4cPl0xTkbLbLwQ7vLABv6SkBD179gQR+b2Rhch1kGTx4sURPbHxBdsv27ZtG3r37u1zVeHvNKS8X3lzcvD2O51Oh8aNG+Oxxx7D8ePHJbdlwLP5U2H/DFywed9DVrHnz5/H4sWL0bVr14Dc7rxtNsp/ZsdN+eu+2P+NRiMSExORlJSEli1b4vLLL8err76K3NzcwGtcRVgn471sSktL8dxzzyExMVGxYA8ZMgQXLlyoNpqr2fmEYIcfh8MVJ7pbt26KnyEzMxMrV650a4OROLnxBmvrlZWVOHDgAJ555hl07doVLVq0QFJSEgwGg5spVq4zcq2KiYlxm1AqGfTkyWAwoEePHvjyyy9RWlpa7WCg/DyKn35asxk2b2vdvXs3RowYIRUEH+NDyQPKC0n+HnYEvUWLFhg2bBgeeOABPPXUU5g7dy5eeuklLFu2DB999BE2btyInJwcmEwmVFZWSsu6aIE/Tswq0Wq14t1330VGRobXMpP/fNVVV+HkyZNS5bNBVc1b4YVgh5+qqir8/vvvaN26taKVrkajQfv27fHTTz+5rfKiaZYtd4llJ6RPnjyJjRs34oMPPsBbb72FefPmYfbs2XjyyScxadIkXH/99cjMzITBYJBW6iyinyeNCjTpdDrExMTgkUcewZ9//gmr1eom2Hx4CT8DZOCCzYS6uLgYy5YtQ9u2bd3ievDmCqU3wrDXMpFv3749hgwZgtmzZ2Pjxo3Yu3cvTpw4gbKyMukSAn6mL4+J4HA4JNekaIH3FedH3a+//hpNmzZV1DA0Gg3atGkjdTpeqNUcvIRghx+Hw4GVK1e6Dfa8h4OntnP55ZfjwIEDwdogCzv8LJW5FrODZEwLeL1gE6Ti4mIcO3YMv/76Kz7//HNMnz4dgwYNQrNmzdxW8zVpF0wDdTod9Ho9rrzySnz55ZfShiQTaoWHcGom2AUFBZgzZw4aNmzoJsqB+lKzwmBO6XfffTeWLVuG48ePSzNDuXsMXyn8iMoaGRu9oi0Ogie7lsPhwHfffYdmzZpVG+C8lWdiYiKWLl1aLciPsGHXH8FmprUHH3zQbcbo7xmysrJw5MgRt3YTTfCTNn6WLQ96xXSBfz3b32LuyTabDbt378brr7+Om2++GY0aNfI54PkSbGZ9YHXRpEkTLFq0CMXFxW59U0GZexds3p+ajwqXnZ2NYcOGSZlXKs68byQbceLi4jBgwAC8//77yMvLk4IYeTsZxIuOr/9Hm+0N8B5qdseOHWjXrp1bwCtfyWAw4LnnnkNFRYVUb2r7nwvBDi9OpxMmkwm33nqr5J+vZJbYv39/ZGdnu3k0RNOkx59uePs//355cjhcUTBPnjyJ1157DT179kRcXJxbubEy5kWayPfkSq/XY9q0aTh//ny1SagPvAu23W6XErMHHzhwADfffLObB0gg9h1mOmnSpAnGjRuH//u//0NRURFsNpvb6UjBX+Tl5WHChAluhx/83aYxduxYnDlzRpphqI0Q7PBz8OBBXH311QFFrpszZw5KS0vdfIfrY3/khZw3r1qtVvz555/45JNPMHjwYDRo0KDayWr2r5KJbGJiIqZMmYJz585JJpIaC3ZVVRXKy8ulWdrBgwdx8803VzPEK9lYNBgMiImJQUpKCu644w58//33br6e/Oii5uZYJFJZWYnXX3/do+nJW2rdujV27tzpVrbChl1/BNvhcODDDz9EgwYNFLUXItfNTJ9++qm0yo1kF9hQ42kviZlkWeQ+k8mE1atX49prr0VcXJxko1Za3kR/nZScNGkSzp07V7sZNgvVabfbceDAAfTp0yegsKZywe7Zsyc++ugjlJSUSJ/NhITfNa2oqAhJJUQrVVVVWL16tVvcFX/lHRsbi1WrVkkzBTZ6q4UQ7PBiNpvxt7/9LaBj2Zdccgl++uknSahZn6yP8Htj/ADG27qZVeD8+fNYtGgRunTpAr1e72Yq9tVX+ciJLKRETk5Ozd36mKAeP34co0aNqjbN93bix9PIPWfOHBw/flyaVfMFwhv71d4ci0Sqqqpw6NAh9OnTR/FSS6vV4uabb5Y2XMQMu34JdnZ2Nq688spqx6d95X/06NHIzc2t5nlVX/ujPAYIbwFg4Td4h4i9e/fi3nvvleIkKemrbBKm0+mQkJCAGTNmoKCgwFe2LOR0Ok185fDL6PPnz+Oee+5xcyD3lviDLWxntFOnTtIyy98mgKeNRYGLsrIyPPnkk34HR74u0tPTceTIEbdGpmb+1RbUuijYfH/lvaq+/PJLJCcne80rdRiRKQAAIABJREFU68u818OSJUvcDsNF46ZjMPGmTbx28a+tqqpCYWEhXn/9dbRq1crjQUBf5mONRoOGDRviH//4ByoqKqTJFl/HYILNu8HxIVJffPFFt1N2vkSbiTWzVw8fPhy//vqrsEnXEtYZV65cidTUVEXiwQbMKVOmoLy8XHUXLSHYoUEuqDabDVarFUOHDvVqDpEHLCIiNGvWDN9//73U/+UTN4Fv+DMUdrsd33zzDa655ho3EwlLLJ6SJ5OJVqtFo0aN8PHHH7utjLk6sFBlZaWJfSmzXTkcDqxbtw5NmzaVXFY8naeXJ71ej8TERIwbN07ypY4EL4VohlVYbm4uBgwYENDx2I4dO2LXrl2q7/YLwQ4NngT2hx9+QHp6us+8ysM8TJ48GQUFBW5uoGLFqxzebML2i7Zu3YrBgwd7HDj9naXo2LEjdu/eLcUEstls7Kv+mmHzpwcPHTqEnj17VrNT+5thx8bG4s4778TRo0clv21R4bWDdcTS0lLMmDHDLciVv2QwGDBz5kyYzWZxcKYOCjbrzMycWVRUhKFDh/oNxcuvmJOSkvD222+7XXsVbQdm1Ibfk7Pb7dIZiH379mHw4MHQ6/UBTbRY8Lo///xTWiFLJhGHw2HiR9OioiI8+uijks+0POCSty/R6XS4++67kZubW+24uKB2sMawefNmtGvXzu8ozadu3bph27Ztqs6chGCHBta/rFYr7HY7Vq9ejfT0dMX7HBqNBgMGDEBubq5b1E1+w03gH36fiA18zFKxZ88erzNtX6lBgwZYunSpJP6SYFdWVpp4e8m6devcjkJ7qmg2OrMDNEajEcOGDcOhQ4fgdDqrbVwIag5vxzp79izGjRvnd7SWnyidNWsWSktLpRWU3D4W6o4pBDs08D72ubm5GD58uNt1eb76Lwtj8Le//Q0mk0mIc4iwWq3Ytm0brrjiCkkzlXh6aTQadOvWDWfPnuWdBlwzbOamYjab3QLmK/lQjUaD7t27Y/PmzW7H2BUGMxH4gZUhE9mNGzf6Ha1Zp2UpOTkZGzdulHaeeb/3cLhSCsEODUywLRYLli5dioSEBMUhDIgInTt3xp49e+q1+16oYQcQP/roI2RmZrodsPGVWIS/2bNnw2w2/yXYVVVVJovFArvdjnXr1vl0B+JFmv2cnp6OpUuXVouRLTYbg4PcvFRUVISHH35YkUmEv8royiuvxMmTJyVfeLZkYxsboUQIduhgttI2bdoEHFFuwYIFMJlMQrBDCPPTLi8vxwsvvKBoQGUraKPRiNjYWOnUMphJpKqqCsXFxdLhDH+7mEQkxY6dPn26dPGk/Ji5MIkEBz4Yj81mw65du3DJJZf4rSNW+VqtFjExMXj88cdRVFTkdvoxHB1VCHZoqKqqQl5eHoYPHx7QKWSNxnXf6aFDh5QGHRLUED4y4Llz5zBmzBifos3qz2g0So4cEydOhNlsBviDM2vXrkVGRoaiiwfYh/bt2xeHDx+u5kTO29ZEQ6gd/EWevOvQtGnTAhaV1NRUvPPOO9I9c+EyWQnBDl25Pvzww5LnkJLTdcw3eNWqVbBarfyGliCEsJn2+vXr0blzZ591xO7CZabPSy+9FPv27QOYYJeWlmLChAkBBS1p2LAhXn/9dbcgToLQw8xNBw8eRO/evaVb6JWaSDp16oRNmza5uXAJk0hkCzZ/axA7HFNRUYGVK1dKl1vIQ6h6OpTBBHvMmDEoKirydDBDEGTY6oWVc35+PqZOnQqj0ejm7udrsI2Li8PLL7+MwsJCl2Dv27cPPXr0kCpeSQPt06cPjh07Jio8xMiXrPxm4fLly5GQkOCxY3obaIkIV199NU6ePCkFaxeCHdmCDUAaWJmDwI8//ojWrVuD6K/A+Hznl4sAc89t164dvv/+e7e9EebGJwg+vEmElfVPP/2EzMxMafPR3yYkG2RXrFhhoeLiYtO///1vqeP7m6npdDoYjUYsWrQIZrNZuO+FGPmmIx+n12w2Y8qUKZIZy5/3iEajkUb1a6+9FgcOHBCCHQWCzTb02SGKXbt2oWvXrm6HqDwN1HxEOI1Gg7i4OLz44ovSZbD8CksIdmhg5cpMIpWVlSgtLcXUqVOrTY597UNkZGSgc+fOFtq+fbvpiSeecOvs/kQ7MzMT27dvr3ZvmiD4yOM68AMjuwmDD1Sv5MBETEwM9Ho9br/9dpw8eVIIdoQLNnPdq6qqwi+//ILu3bsjNja22n2o3oRbq9XCaDRi1KhRyMvLc5tZs/4rBDs0sP7KBkV2ivTrr79GSkqK252P3vSXxc1OS0uz0JQpU0z9+vVTbArR6/WYNGkSCgsL3WZ9oa5weZhD+c/eXi9/ra/XRCq8GYQ1ADbztlqt+Oabb9C2bdtqFe1JvJmPdlxcHAwGAyZOnIj8/Hyv4SSDgRBsZbByZz/L0759+zBo0CC3mbWn/QvWl/mA+llZWdi/f7/UbtjKKlIvKuD7JN/PPUX65N/j7XPkbTtcyPsu++78/HzcdNNNijzyWDC3+Ph4C7Vp08aUlpbmt6OzZDAY8P7771czpoe6EPjv4k/r8Udq5a+Tx0jhl3/y05jRZsfjG0JJSQkWL16MtLQ0GAwGyTWTrZq8DcbMxjlw4EDs37/f7UCNEGx1BJuPEc/qt6KiAj/++CN69+4tzZb95YcFbTMYDGjdujXWrl0bVSth+cqSF1y+H3uaNHoTaU+mRbWoqqrC3LlzFZ98vNhfLZSRkWFKSkpS3DCbNWuGLVu2uD14ODYemcjywcN5weZnJnzgfj6xzsD/y/+sdiUGAp93h8OBwsJCTJ8+3U2IlQzAbCbWp08ffPfdd6ioqAj6ZRJCsJVjsVjgdDphsVhQWVkJs9mM9957Dx07dgQRSYOwEtMXESE5ORmvvvqqZP+OFpiuyGP1y8WaP10t35iX933+fVarVfXnW758OdLS0vzeTsMlC6WlpZni4+PdKtrXm2+55RZcuHDBbVQLx+yUX76xO9X27t2Lt99+G3fddRduvPFGDBgwAEOGDMHo0aMxffp0vPbaa/joo4+wbds2/Pbbbzh27BjOnz8vRTjjG0K4l0q1hV8ZsIadl5eHe++9V7pwgh+9lXTwtm3b4oMPPkBpaal0EjIYCMFWBjNVMLG+cOECFi5ciMzMzGqeH/7qk5m9nn/+eSmOTDRNSFh/l4s2s7czu/6ff/6Jw4cP47fffsN3332HVatW4YUXXsCDDz6I22+/HTfddBOGDBmCG2+8EY8++ig++ugj/Pbbb/xxb9XYu3cvevfuHUg7s1BKSoopkPgDU6dOlYRCLnihhB8cfvvtN8ycORMZGRlISkryuOHGTvfFx8cjOTkZDRo0QLNmzdC/f3/cc889ePrpp/HJJ5/g1KlTMJlMkohHC/xsgdkjzWYzsrOzMWLECBiNRjcvAV+DMe9W1LBhQ8yaNQunTp0Sgh1mwWZ1WVFRgYMHD+LOO++U2jfz8FF6TVxcXBymT5+O8+fPo6KiIirbt91ulw6OWSwWFBQU4Pjx41iyZAmefvppTJw4ET179kRmZiYaNGiApKQkxMfHS5FGPd2ClZCQgNatW+O5555Ddna2qs945swZDBs2zE2z/Ap2TEyMiTUEueh5SrNnz/ZoEw6HYFdVVeHYsWPS7e1KTmWyJBdzjUaD2NhYtGnTBtdeey2effZZfPXVV8jJyXGzlfMmF7kNTc0Rmh/AeBt8VVUV9u/fjxtvvLFa2cgF3Ft9x8bG4o477sDu3bslu7an0AN8PnztYwjBdke+POdt1xaLxe3GEiV9Ur6KSkxMxKRJk5CXl+d2UlZNk4jcBs1P9uQTQPYaq9WKgwcPYu3atZg1axauuuoqNG/eHLxFINDEH/1+4oknpFANfL8Ox8DmdDqRl5cn3ZerpJ6JyEJardak9IQjEeG5554Lm2eI/AHLysqwYMECtwoLNOCNt6TX65GQkIDLLrsMDz30EL766iucOXPGbYnKTnUyV6hItAmyDpCdnY0bbrgBcXFx1Rqst/rmf280GtG5c2csX77czRWMFxmlXiVCsN1hwswPgpWVlTh37hzmzJmDli1bKm7XbOLCxL1hw4a47777cObMmWrX/qlpEmGTC4vF4rYByMxATKDNZjNyc3Px+eefY/To0ejQoQPi4uKkC2uD1d+JCElJSfj666/dXBvZRDQc5VFQUICxY8cGkmcLEZEpkIdUU7DPnz+PW2+91e8Sv6aJH+kaNGiAyy67DPPnz8emTZukIPHyzctIgzW6yspK/PHHHxg5cqTHRs6vqnylhIQEDB06FOvWrZPs2t7EWgi2MuQb56WlpXjvvfeQlZWFmJgYnz65nhIf3W3SpEnSHhM/Y3Q6naioqAhWMwsY+SYiSyyeicViwQ8//IDJkyejY8eOiI+PdzNpKA35HEgyGAx44oknpMGTd1QIR3nUecHOzc3FDTfcILks1bbCPHUGuelEr9ejSZMmGD9+PDZu3Iji4uJqroSRCPOUOXXqFMaNG+cWIMhfGfDPzv6fkZGBWbNmYe/evSgvL3dbxvq7oUQItjtMFEpLS7F582aMHz8eKSkp1epFyeYiq6Pk5GTMmTMH5eXlUt3zIsR+Vgvm0cX7gVutVpw/fx4rV67ELbfcgtTUVK8TiQDMBoqTVqvF3XffjbKysmrtOdTUWLCjySRiNpsxd+5cxMbG1mppJJ+Ze/uZ7xR6vR5GoxHDhw/H119/jfLycpSXl4ft+QOB319gGzYzZsyA3H3TXxmycuK9Ttq0aYOXXnoJv//+u3RXpBDswATbYrHgwIEDmDx5Mpo0aeLW7gwGg+S6xzbKfH2v0WhEeno6/vWvf7m5ZMr3XdQ+Z8C74ZnNZpSWlmLFihXo27evFKqZPXNsbGxY6iw+Ph4rV6706OsdjvKokWAbjUZTILPVZ599ttpGSTg3HTdt2oT27du7CY6SmbKnZ+Hvq/T33PzrkpOTMW7cOGzcuLHaRkmknBzjGyGzv3/88cdo1aqVx+BAfJl5ivomv7iibdu2mDJlCn7++We3FQdv22eeCcXFxaoLaqhTly5dpKW0pxuXnE4nCgsL8d1332HkyJFo3rx5IAcmPP6e+c//+OOP1fyO5eck1GyH/CzfZrNh9erVGDBggOLbcXytAgOpI35QJCJcf/31UnjocLv2Op1O5OfnBy7YCQkJpkAuiJw2bZrHQynhOjhjt9vxxRdfoHv37tU2IpTeFl2bxN+Zl5GRgRkzZuD48eOw2WwRbSrhB7xrrrlGKrearFTYAK/T6dCiRQvcddddWLt2LXJycjzu9peUlKgiouFMXbp0kdooP4mxWq04ceIE/vOf/+C2225DamqqdBo1kLbJTB/Mvzo+Ph6jR4/Gr7/+6nbjudrINxR5+/nOnTtx5513ukWY9PXcnuzW8rLydSM5M53yUQx1Oh0SExPRv39/t2sN1RjgcnNzJbc+hZNmCzVo0MAUyBJk/PjxktM5v+wOxwzb4XBIy74LFy5g0aJFGD58ONq1a4e4uDjJdMGWlezgiDdRCkTAeXsis+8ye1uPHj3w3//+123nP9JEmz90UFhYiKlTp7oFEKrJYMYLj06nQ7t27fDUU09hy5Yt0mZSeXk5TCaT6oIa6tSlSxc3d9DS0lJ88803uPfee3HJJZdI7bEmm2fydpeQkIAXXnjBzbNBbZMH387kIQ5MJhP+9a9/oWXLliBy+YgHYw+KT6yv8yKt1+sRGxsLg8GA1NRUZGVlYdSoUVixYgVKSkqkumIrQX4lEI5yOnr0KPr16xdI/7NQZmamKTExUXHBdOvWDfv27as2IoVDsFmBsjsoWZyF3Nxc7N+/H7t27cLOnTuxbds2bN26FT/88AP+85//4KGHHsKgQYPQs2dPpKen11ig2PvkIqfRaJCamoqHHnoIR48ejZjOw8MfsmEnRVevXo1evXq53f3InjOQmbf8YEdqaip69uyJp556Cl9//TV27NihuqCGOnXq1Am//vorPv/8c9x3333o0aMHEhISgro5HhMTg2HDhuHnn39GRUWF1M7kvvFqwtvQ7XY7tm7diuHDhyMxMbGaqU3J4OVpf4k/DNOqVStcffXVGDJkCGbPno0VK1bghx9+wLZt27B9+3bs2LEDe/fuxW+//YYzZ85I3l7yTVmW33B5iTgcDqxZswbNmzcPpL9ZqEWLFiZ/F+/yyWAw4LPPPvMYYCmUsIFBHkdEbkvnbVH8EXQ20m/evBlvvPEGJk2ahC5duiA1NbVWG5jsoky2QXTdddfhf//7X0S6/DF4X/LTp09j+vTpyMzMDFhEvHmc8B4per0ejRs3Vl1QQ50SExPRuHFjqQzkYlQbk5xGo0GzZs3w6quvIj8/3+MhJjXssN5wOBwoLy/HypUr0aFDB2m2y1a7LCn1q+Zvy2ncuDE6deqEqVOn4u2338avv/4q3Slrs9kAVHchNJvNbv/n/5Uf+grXASOn04kXX3zRbRBS0BYsNHToUFPXrl0VNyadTof58+ejoqLCzS85HILtye+3pslsNiMvLw/ff/89pkyZgi5duiA2Nlaabcp9Yb0FG/ckWKmpqViyZImbbbGioiIiZkBA9WhmVqsV33//PQYOHIiEhARp+U5E0jFf/vlECk7y5G8td79s2LAhJk6ciP3791frb7z7WTg9HAC4xcKXn1QsKyvD3LlzkZCQoMg10dc1WRqNBvHx8ejVqxdmzpyJffv2oaioSJqs8Zu68p/5svD2d/lrg11+vAWC1y6z2YwHH3zQzaToK6rmxciLFvrmm29MkydPdttM85U0Gtc1Q/v375cqSu0gKoHC8sxiFdjtdhw/fhzvvfcebrnlFiQnJ0szIpb4jU0l5ZSWlob58+ejqKhIWgFEqqmE2fHy8/PxySefoHfv3khMTHTrSEKsg5f4suSj7/E/x8fHY+jQodiwYYNkb2XiGAkXDjBzJO+H73A4cPr0aTz44IOSOUip2YMXLtbfGjVqhHHjxmH16tXIy8uT2mo0ITdZsTrcvHmztKpVMsuOi4tDenq6hf6fvesOb7Jq30ma0d3SDS1QRpEWqOy9p8hQRJDxKSLIkvWJiAoIIqCADAcCfvjJFD62AipbkKHIKmVDCy0t3bvNTu7fH/zO8bxv1ptCm6Tkvq5zNbQlfXPG/TznmdnZ2cXLli2DQqGwGfPJ/ufNmzfThXLWNG1LYEOM2NcajQYlJSX46aefMGjQIISFhdH6w+ymEmpCCQ4OxuLFi2m9AmexM7IgGjaZA51Oh/T0dKxatQqNGjWCt7c3/fx8snGP8g2yf1jfAXnt4+ODzp07Y8uWLZSkyJ7hm0IcSV7EDkxukSRJa+zYsTQKhHUCCpkX8rs1a9bE+PHjce7cORQVFVF+IcqVK4FvDSAp+CtXruQUqbI1N/7+/oiKilKKDAZD8dGjR2lDT6Ebrl+/fkhNTeVIWFcB35bFf11SUoKCggIcPHgQPXv25ERTkGHOTGJu+Pj44MMPP6Rdqp1tnlgNgKwlOYAPHjzAd999h65du1KN203YT2eQ/UNubCEhIejXrx92796NzMxMTvsuNkuQHy7nyH1DamxrtVpkZGRg5MiRNKWc5Qpbe0Yul0Mul8Pf3x+jRo3C+fPnOf1iSR4BuRW7EviEbTAYkJCQgJiYGJuhnayS1KVLF8ycOVMp0ul0xXl5eRgwYIBdh7FmzZrYt28fvRa5kobNOinZzc+aLsgBycrKwurVq9G0aVOORmTLTEAcbmR88MEHyM3NdTrCBkxteoQsiPaUmpqKbdu2oW/fvk/spHWPx4PED4eHh+Nf//oX9u3bh4KCAo4A5af+8xULRzoXWf9HSkoKp2YNW4tdiEnEx8cHHTt2xN69e2nrQf7ndIaKg+UB3+dWUlKC5cuXcyKI+Dd3Pq/IZDJ89NFHSEpKekzYOp0OX3zxBc08sqY5soVmXnvtNWRlZZnUxjbnfXUmmHM0WHJAEJPPxYsXMWTIEHh5eZmEF7Hzw8+eJK/Dw8OxevVqTliRo7UkS+BrBESLKioqwrFjxzBlyhQ0atSIkwDBCir2tdBIgKowLGlI7L+lUin8/PzQsmVLzJo1C1euXKH1P9i5J6/562Fun1b0XmCVG7InyP7NysrCe++9x6m/bm6QKCpC4ET5CQoKwowZM5CUlGQ2pd6c89CVwCqBOp0OCQkJaNOmjdV9RPIbyO0rMjIS+/btg9FofGwS0el0SE1NRf369QUdLjLZ/v7+WLlyJbV9spqqM2gBTwtGoxEajQa5ubn4/PPPERISArlcbvW6x84jma+IiAjs3buXM1/s5nQ2sE5lEiZJNO+UlBTs3bsXb7zxBmJiYuDt7c0J1bKj7VGVGZZuXRKJBH5+foiNjcWUKVNw+PBhZGRkcBI2iOnD2cC/dbGCvKysDEuXLqWC25aJkAQ2kHmqW7cu7XDE7q/KjnipSBCFR61Wo6SkBFOmTLFaz5tfiVQsFqN///4oLCwEgMeETRZkyZIlJmmztt64cePGOH36tIl9jcREVgWwjsnS0lL873//Q4MGDUxMI5a+kvkSi8WIi4vD2bNnOVc8Z9W0+QKYbyoBHmsQjx49wrZt2zB58mTEx8cjICDAYnXAqj7IOstkMgQFBaFdu3Z47733sGfPHuTn55sIP7YWs7OCjVAhZK3VanHo0CFERkYKiiIic0JuGR06dMDvv//OEQAAV0A485wIBVlfrVaLnTt3IiIiwqZSTExKYrEYfn5+2LZtGzlvSpFery8mantBQQEaN25sc1PyvduvvPIKkpKSTNI7q4qU5F8DVSoVjh49iueee47a6oQKObFYjFdffRXJyck0a9NZ54kfO8oKGTLY7vVqtRoFBQW4fPkylixZghdeeAGNGzdGtWrVHE6klTHCw8PRtGlTDBo0COvWrcONGzdolAN7Lljic9a1Z8E3kRkMBiQmJuL55583iR+3RdpisRi9e/dGQkICxybN+pBcZV6EgFTLvHz5Mpo2bWrXfhKLxejWrRsKCgr+IWyDwVDML6RuK1WdSElyBVIoFJg6dSoePXpk1jlSFUA+Ewll0mq1OH/+PBo3bsyJzRZC3H5+fpg3bx4KCgqo1uqM88Q3c1k6VOb8FoTAs7KycPr0aYeTaUWP2rVrIyEhAUVFRdTkxd5O+J1WAHC0VWeNL2YFC1nbR48eYfjw4SZhaUL2fp8+fXDt2jWTmyUrFJz9xmEJ5nwMBoMBd+/eRZ8+fQRHWREuCQkJweXLl1lH62OnI3vI7t+/j4EDB9ptgwwKCsLy5ctRVlZGr0+kOWxVhV6vx9GjR9GwYUNOvLatuZJKpYiNjcWZM2coAbqa99sePCvFn6oi+CGfarUamzZtQo0aNazOB2vPJmejU6dOSEpKop2LnNUUaC/Y2ydfuGVlZeHf//43fH197UrH9/LywvTp02ndpP+HUmQ0GqmGTTKqfvnlF4SEhJhITlt/KDg4GMuXL0dpaSlnUaoydDodfvzxR5u3EnNSdNKkSTSUqypsXEtwE7Zrg9yoSAhf3759Bc0JS06xsbE4d+4cx5RG3tfVwZpMSYCCTqeDSqXCtGnTaAMQe/bT888/T7PJmVvZY8JmpahGo4FKpcJnn31GK2wRgrGmPRKJGhgYiIULF6KwsJCSdlUFcY6o1WosXboUpIiWEC1bLBYjICAAe/bsqTKahiW4Cdu1wcZBf/bZZzY7wvBTzYOCgrBp0yZotVqzTXhdHcSMwyY4paenY9KkSfD29qZVLIWSdmBgILZu3WpS0A6sDZtNFiFNMQcPHizImUAG8QKHhoZi3rx5NLuvKoNIVLVajddee81sVqSl4enpiX79+lEHZFWFu0WYa4MocxcuXEC7du1skjX56uHhQa/2rOO1MovGVRbYz5WUlIQxY8bQ8D026sNWhrSPjw+mTp1K6/6z9bpBCJuNsWSdJYmJiejQoQONhLBG3vyEEZlMhldffZVGjzgq8L8iQSQrSYa5cuUK4uLibGZ3kQwwsViMsLAw/Pzzzybxp1VljgA3YbsyWNJYtWqVoH6LLE906tSJZkOTGzzfYe0qsJbARMwg586dQ48ePWhQBl+rtkbWYrEYQ4YMoU2BWUc+jRIBUGzu4Uj84G+//YamTZtyspQskRBfyspkMrRp0wa7d++mkRV8r7m5SXEV8CNiysrKsGDBAnh5eXGEmLXNLZPJMHz4cDx69Ihj12MjDFwdbsJ2XZA9ePPmTbRt21ZwISeS3btz506qCLo62KgeIoD0ej1KSkqQl5eHVatWITo6WlCvWD5fKhQK2mPSSm6GZcIm5KHX67F//37aNJRfXpSfiky+suQeGBiIyZMn486dO7SYOHlv1rvqirZc1r6n1+tx48YNtGjRwmxpVv5Ckdfx8fE4f/483dj8OF1Xh5uwXRdG4+N+jLt370ZYWJjgip5yuRwjR45ETk4OLdzk6mBvCORWXVRUhEuXLmHo0KHw8/MT1F+WDLapQ/PmzXHu3DlOVI5dhM3G3Go0GuzcuRO1atUyeSA+YfO1SvI9qVSKRo0a4euvv8bDhw/N1g1wNYIiJhHWnKTX67FkyRJUq1bNrDAz99rLywuffPIJp9wrGxrk6nATtuvCaDQiPT0dr7/+OlXChPhoqlevjh07dnAaErs6CCeSzMWkpCR88MEHCA8PtzsKhG2qzIb4Worlpk5HWDGJsBofaU8fHx9P/5C5IkciEbeDBGtk9/DwgLe3N9q2bYt169bh0aNHHDMJAJciKNbmT5wEWq0W6enpaNiwIWcuLA3y8+HDh9N0ZWfuvl4euAnbdaHX63Hv3j20a9dOsPYolUrRtWtXWnnP1WzV1qDT6ZCcnIzPPvsM9erVM5t7wedBc0MikcDT0xNdu3bF2bNnzdaSYZU26nSEBcLmX8vJlf/gwYNo0aIFx+RhqTygud8hr729vdGuXTssX74cV65cMTG0s4NfdMaCqShaAAAgAElEQVSSFDKXOVXR4Jt0iHB79913aa9HsniWtGyJRIL4+Hhcv36dY7/iZxQ60zAHS2vyrIT1WZsrc69dZezYsQNRUVGC+y8GBgZi+fLlJmWMHQFz+5W9ufKFCX//ku8VFxfjr7/+wpw5cxAXFweFQmE1VM/WXMnlcvTr1w9//vknLQ7Fv1GTZ+DEYcMCYVuCTqfDxYsX0adPH1pS0VrhbVsLLJfLUb16dQwfPhwbNmxASkoKioqKOBXM2IXnEznrACC/y3qiHQGj0Yhz584hNDRU8ALKZDKsX7+eauq2BJSzDraUJFmP/Px8hxNqZRA2P8vNnPBiBbIrDLVajZkzZwo+02KxGPXq1UNKSgpnHiqDsPlNHvgVMVl/E5+w+Wul0WhQWFiI27dvY8WKFRgwYACCg4NplIwl5csSeYvFYvp//fz8MGnSJFpPhX02G5xlP2ET+82dO3cwadIkmnJpbuFsfRhzttx69ephwIABWLlyJfbt24fk5GROZTPy4VhC4DswyQZx1DXMaDTi/v37iI+P59w+rF2RpFIp5s2bZ+LEdPSBNTdYAckXluzmJ89fVFTkcEKt6BEbG8uZB36aMuvEd/T62TN0Oh1Gjx7NIR5bc9GrVy/apJtN/qhosGTNn3uyNmztHna9SO5JYmIidu3ahYULF6Jz586oU6eOSd13eytQsrWXIiMjsWjRIuTm5prlMRuwn7DZa39BQQG++eYbxMXFcdod2fNBSNMEdhKkUik8PT3h7e2NJk2aoE+fPhg5ciSWLFmCPXv24MKFC7h27Rpu3ryJ69ev4/r160hOTkZBQQGnm7sjCbugoACTJ08WnEgjkUgwePBgJCQk4ObNm7h58yZu3LiBGzdu0H87y7h165bZkZycjNzcXE6fv2dNwyZkQAg6NzcXSUlJdC2dcT2tjQsXLuDFF1+0GBnGH35+fvj22285tb4J8Vc02Bs5GRqNBjk5Obh79y6uXbuGW7du4ebNm7h27RrOnz+PvXv3Ys6cOXj11VfRp08fNGjQAAqFgta7J5/XXEAF+zNr51oqlUImk6Fdu3bYuXMnLfrGzo9AoVY+wiZvrlQqoVarceHCBQwbNoymsgslbXNOS/4EsK8VCgX8/f0RFBSEoKAghISEICIiAhEREYiOjkavXr3w0Ucf4cSJEyguLnYoYWu1WqxevZqT3m9rKBQKhIaGIiwsDKGhoahevTrCw8MRGhrqVCMsLMzsqFevHgYOHIiPPvoIx44dQ2lpKXQ63TNB2LGxsZSs8/LycODAAUycOBHdu3dHzZo1ERIS4vB1K+/g519YO9/VqlXDH3/8QRNJ2FtFZZw78jdLSkqwf/9+vPPOO+jcuTNq1aqF8PBweraCg4MRGBgIPz8/QQmBtj63NY4LDQ3FlClTcPv2bY4ySW6hVuKu+Si/hs13iGVnZ2PFihWIj4+nKepPq3i9ELsZ+SqVSlGnTh0sWbIEBQUF9LntmJQnBhFomzdvRkBAgIlwsjSIP0BocoIzDnJjqlWrFj799FPk5OQ8M1EiRqMROTk5mDJlCl13do+6ajMHe5Sw8PBwXL16laPYqdXqCj9zwD/clJSUhLFjxyI4ONjqZ7K2PvasFf93yVzJZDJ07doVW7dupV11WDs74U6WM2zAfsK2BHL9SE5OxsyZM1GnTh0TO3ZFblr+e4eGhuKbb75BaWmpiS2rokEWYteuXXTTuOphLc86kNfBwcGYP3/+M6Fhx8XFIT8/H+PHj7e7cmNVGrVr18atW7c4fozKuukaDAbk5ubigw8+sNqGqyIGUbaIryouLg7Lli3DgwcPKDeSOt9PoDg+PcIGQK8/KpUKly9fxvTp0xEVFQWRyLTH4dOcLP6VhpBGu3btcOPGDRMHXkWDbNTDhw9zko2q+iDzzrYHa9WqFRISEhz+bBU9YmNjcf78edSqVeuZEc7mRvPmzXH//v1KdTYSaDQa/PHHHzTsrjI/N8lajImJwcKFC3H79m1qx2cbWrCjHHi6hE2kKZEmZWVlOHPmDCZMmFChEo8VAOS1RCKBr68vNm7cCKPRSCevsjRsg8GAkydPon79+jaLQVWlwV6fPTw8aLd4Rz9XRY+4uDjMnTsX3t7ezzRht2/fHg8fPjQhqMqAUqnEwoULOenzlbUWoaGhWLBgAS5fvsxxuvNLTfASYez+iE+NsFnbDOk6U1RUhI0bN6J79+529T4sz+B3uBCJHjtAdu3aBQCV5vggMBqN+P333xETE1OpG8fRg83yEovFiIyMxNatWx3+XBU94uLi8OWXX8LDw8NslbZnZbRu3RopKSkmCWCVAaVSia+//hp+fn4QiUSCKgs+reHr64vBgwfjl19+gUqlMgkfZE0iT8BD9hM2afvFj3kkP9NqtcjNzcXatWvRtGlTWrmuvIQl9P+xBadIr7lBgwbR8q78ZIaKhtFoxK+//oqoqChOLVxLz2+uKJSrHXoiNKVSKV2Ldu3aITU11eHPVtEjLi4Ot2/fRo0aNcyud1US2NY+S3x8PEh9d37GbkVDo9Hg6tWraN26NUQirmnOns9Q3t+VSqXw9/fHiy++iN27d6OkpITe7El0CNG6y4nyRYloNBoTtV+pVCI7OxtHjx5F79696WQ9DXs10VqsTSiZVJIy2qhRI/z000/UfkQyrYiQqUgQgbZ9+3YEBgbaHZv+JGFEjj7I7OaOi4vD//73P+Tm5jr82Sp6xMbGQqVS4auvvrKrqp2zD3tvxZGRkbh+/bpJ1mFlwGAwoKSkBKtXr0ZERAR9fmt71VyEh6XPa+08EgWFCOuAgACMHDkSf/75JwoKCjhJO0xDAntRPg2blZwkPfzKlSsYMWIEFArFU78SCtkwYrEYMpkMnp6e6NixI/bt20cLpz8lg79gEHvVpk2b4OfnZ7d2RQSUq2ll5Jbj7e2N7t27Y/v27SgrK0NeXp7Dn62iB0mcKS4uxrp169CoUSN4eXmZKBqutqYi0T+dpIT8bmhoKK5du8apIVJZhE1u/zk5Ofjmm2/w/PPPw9PTk+PXMqf42eIrIZ+dPa8eHh60j2NISAjef/99aiaq9CgRkhRCRkFBAX744Qfa5IB96KdJ2lKpFIGBgYiJicHzzz+PZs2aoWXLlmjTpg3at2+PAQMG4NNPP8Uvv/yC9PR0egPgm0Mqw/FoND6u3rd8+XJqTxMygoKC0KZNG7Rt25aOdu3aoU2bNk412rVrZ3YMHDgQS5YswZEjR/Dw4UMag/sspKbHxcXRUsQ6nQ6JiYn4+eefMXfuXPTt2xetW7eme9XR62fvIHtYiLYdHByMgwcPcipOVmb+A2nXZzAYkJycjL179+Ljjz/Gyy+/TOe+RYsWaN68ORo1aoTatWtzzuiTchbpJMW+lsvl6Ny5Mw4ePAilUvkkJqLy1RIhG/P27duYMGECAgMDn6rmIJPJEBwcjLp162Lo0KGYM2cOli9fjiNHjuD27dsoLi6mBcRVKhVUKhUlaNZmxpIzm/5ZGRp2bm4uXn/9dcGODw8PD0yfPp2m15NmyMT85AqDFKpns7dIRw5HE2plEDb53IQwWAJRq9VQqVQoKSmBWq12+FoJHfn5+Rg0aBBHg7RGaj4+PpgzZ45JK7DKIGw2NZ2NCtPpdCgrK0NpaSlnLfLz83H79m3s2bMHS5YswaxZs9C3b1/UrFkTgYGBdkV3sXNDSm6wnOjh4YHQ0FAsXLgQaWlpT5+wCfERjZrYqo3GxxW8Dh8+jI4dO3IcTEI/FJE+7M/kcjnq1KmDl156CYsWLcL58+eRnp6OkpISkyxFfoaQuU1h7XtPC6xZiLXV6XQ63Lp1C9HR0ZykIbLR+YXgiRSeO3cuR6g487A2J/znf1YI2xxBmVMUHL129o7x48fb5UBt3rw5ioqKzGb0VTSsnR/AtLQq+1wGgwFFRUVIS0vD77//jvfffx99+vRBREQEjetmLQfmIoIsVS4lr319ffHKK6/g6tWrUKlU9BmIkLExT7brYbOx1TqdDmq1Gps2baIF+oV0oWCLqJAAc/Jh/f390aFDB6xZswaJiYk0JJA10ld2SJ69IGRN5kuv1+PQoUOc8qrmbGdEGrMx45Y2kyvjWSHsqoq5c+dSc6eQAm/R0dGc9HSNRuPoj2AX2MJRhYWFOHPmDD799FO0bNkSfn5+HKK2x9dE/o9UKkWzZs1w/PhxqNVqTqE0G5q3dQ2bXCtIjea8vDx8+eWXCAkJgUwm4xjzLT0kcQaymUdSqRRRUVEYM2YMjhw5gsLCQo4Dk9TCdvZejyxBs7cRjUaDESNGcEjaUr0BMjp06ID09HROrGZVIW03YbsuDAYDjh07hnr16gkqmSwSPY7UmjVrFj2/5Ey7CtiEF5aXMjMzsWPHDvTv3582dBAiwPiRX+R148aNsW3bNmrXVqvV5dewCRmRB87Ly8OCBQtoyBJrWLe1mUlBI5lMhvDwcEycOBHXr19HaWkpXVClUkkdmfySg85K2uT5+KnviYmJiI6OFnTQyQKOGTOGCip+6UVXh5uwXRc6nQ73799H586dBRUmI1p4q1atkJqayvEruRL43XJYs2dRURF+//13DBkyBMHBwYI78Zj7XkxMDDZu3AilUikkosa2DZs84OzZs+Hv70+vA0KSQcgCyuVyeHt749VXX8WZM2c4tXL5NXNZQcEStjOaRVgtmDynVqvFxIkTBdXBJj8PDQ3FunXrOLWUydeqADdhuy6MRiPy8vIwY8YMmgRna5A45K+++orTpNpef4ijwDor+c1EWPNwSUkJDh48iC5duti9Xwh3EmfkunXrqA3bnA/k/2Hdhk08/CtWrICvr6/N5BW2MS8ZMpkMcXFxWL9+Pcc+ba68oCstKsDVsInAOXv2LOLi4gQvnEQiQdu2bXHr1i3O+zrz57YXbsJ2XZD9ffDgQVrITUgynIeHB/r162cx09hZb82AfU5hg8GA/Px8LFy4ELVr16YJU7aUNX42c7169bBlyxbagIWYRnnp7NYJu7S0FGvWrEFERISgReJ3aPDz88Po0aNx/fp1TkqmuQ7Brgi+Zl1YWIgpU6ZY1UT4hao8PT0xbdo0FBYWOvrjVBjchO3a0Ol0SElJwcsvv0yDBmyRtUwmg5+fH9atW2dWSatKSonR+Dhy7vjx4+jduze8vb0FzRNr15ZIJHjuuefwyy+/cByRrFIIa4St1+tx5MgRNGzYUFD8JV/DrlmzJpYtW4bs7GzqcWX7l1VW9lNFgphviEQktUPsOeg1a9bEb7/9ViUEmCW4Cdu1QfwqP/zwAwIDA23OBdvApFGjRkhKSgIAE027qoAEZhgMBjx69AgzZsxAtWrVBEWP8JXcDh064ObNmyZ8+f+wTNhZWVlo3bo1J5xH6ELVr18fmzdvNsk0ZO2zVWXBtFot1Go1srKy0KZNG0GHm0hUmUyGCRMmIC8vr8rMhzm4Cdt1wd4i09LS0L9/f5uhbPzKmT179kReXh4n81FgGJtLgI2jNhgMKCgowNKlSxESEmJ1z7BRdqyJpG/fvigtLeWYWm2aRIYNG2YXWZOYxFq1amHXrl3QaDQoKysziaSoKuYQ4J+rUEFBAXr16kXrqNjqjk5eR0VF4dSpU1VmPizBTdiuC77jf9OmTVZbb/E5QSQSwdvbGx988AEKCwtN0tWrwt5nnZFEGJWUlGDt2rUW+wCwtm7WASmRSCCXyzFv3jxappVjEtHr9cVsoLharcZ//vMfuzzC5Gt8fDz27t1rNvvPlcGWR2SjZ0jN708//RQ+Pj7w8PAQFObo4eEBuVyO2bNnQ6lUulxiAfBPcgG/Tgvfs67X61FYWOhwQq0MwiaaFhvGxs6TK94u2YQwg8GA7Oxs/Otf/+LUt2ejxSxp3hEREdi+fTt1opEU8apA2Nawdu1a1KhRg557a3PE/iwmJgbHjx/n1NEGq2ET6XDt2jW0aNHCpuRkbdYSiQR16tTB3r17qWeTEFpVIWxztUk0Gg3WrVtH7XpCgujJonTt2hUPHjygdSVcLYTPXAowS0oA6Ovi4mKHE2plELZWq6Wfm9SBYaOgXJGciNJF/DR6vR4nTpygjTlYkrG19yMjI3Hq1CnqUCOKUFWGUqnEl19+SW8l1jq0i0QiTkLi4MGDUVZWxvr8lCKDwVBMpKdarcbcuXOt9kPjezbFYjGCg4Oxdu1amghDJKeraROWQDQCtriPSqXCli1baPo50TgslXDkb9xNmzbRYHlX07D5MfL8azM5kKWlpThz5gxmz57tcEKt6BEYGIiVK1fi9u3b9JCRyCg2htfVzgQrjMkts6ioCAsWLKCNQlhesDWio6Nx4MABmiznSnNRHhiNjwvBTZ8+Hb6+voJyV0Six6ZTLy8v7Nmzh72JPCZs4gV+8OABatasaTPemhA2SYqZOnUqcnJyOIvLL9jkymDNIERjXLt2LapVq0bnhe2abG0hPDw8MG3aNOTm5nJuIa6kfbHEzI7c3FycP38e//nPfzB06FDUrl2bJls5mlArY8jlcoSEhCAuLg4TJkzAtm3bcOnSJRQVFZn093MlsM9ObLXp6ekYOHCg3eVIvby80KBBA+zfv59Wd6zKIJVNU1NT0b9/f0EmU9Z3WLduXTx69IhrwyYNcydOnMiRmpYG0cDFYjG6deuGO3fumNgxXVGbIDCX0ENIKisrC3PmzEFwcLDF6401Cfriiy/iwYMH9IrJCjdn+MxCkwWI6Ss3NxeHDh3CW2+9hSZNmtAEK6F1J6raYJ1HUqkUQUFBaN68OWbMmIG///4b+fn51ExoLR7ZWWKV2b3P1vjR6XS4ceMGWrZsSfnCVpcdtmVXaGgo1q9fb6JlC0mmcyWQ+dLr9bhw4QKaNGkiaB+RPaRQKLBo0SIi2B4TtsFgQGJiouAYYnIga9asib179z5JyxunAlvHg2xKUpBFr9fj0qVLeOWVV+Dt7W2XZkHMJE2aNMHFixfNNldwFIgtnnUsseYNVvCSq75SqcSBAwcwadIkNG7cmF71HE2WzjjYhh4BAQHo0KEDPvjgA5w6dYrG7rLOWqKROXvhM7I/tm3bhlq1anHMqLYqd5Lh7++PadOm4dGjR1QBsJQRSebI1TRyNq1drVZj5cqVJlE25pQb1nTSo0cPPHjwAEajUSkyGo3FarUaH374oV0kpFAoMHHiRFr31tUm0hwMBgMtQsVe9YuKivDjjz+iZcuWgrtiswdVLBbTayC/trijDyXf3MM6mQihkGL2165dw/Lly9GuXTsEBASYaNJu0jYlJ0t7IiwsDL169cL69euRmprKKfhPyIm9zTgbCAmVlZXR8DVr131iQmUbNZOMyJ49e+LYsWPUTs5G1fDnwdUUQza5zmAwICkpCS+++KLN88LGZQcFBWHjxo3QaDRKkU6nK05LS0O3bt3sOnBxcXE4ceKE0MLbLgFWypPGwn/99RdGjRqFkJAQE3ISEp4jkUgQERGBDRs2oKysjBIiWUi2MI4zfG72dlFaWoqSkhKcPXsWb731FqKjo+Hr62viWH3a7eCq0rBU4Y7YKb28vFC/fn18+OGHuHHjBkpLS6mgVKlUThv6Rm5mJOb4s88+g6+vL+d8WJoPtsQoCYWNiorC22+/jbt379L4Y5bonOE2Wh7wk4Q0Gg1+/PFH+Pv7m5RdNTd35GxNnDgRZ8+efWwS2b17N8LDw21ONsv+Y8aMQXZ2Nif2tCqA2Onu3buH+fPno1atWnROiF1S6GGVyWSIiYnB5s2bTTQHS6FwlQ3WNkiyNknRrwMHDmDkyJGoUaMGvfLy58BcnV/3sH522MNJWkkpFArUrl0b//73v3Hu3DlK1qQWvbOBDSrQ6/UoLS3FsmXLKI/wSZr/PX42JDlfzz//PFavXo3s7GxOTQ1n8fXYC1YhI+f+7t27VEHmR9mw0XesghgXF4eXXnpJKXr48GHx/PnzqcNAyMELCAjAgQMH6ORVRoIM/zpkzlFhyVnBfx9Lv6dUKnHz5k0sXrwYDRo0oAVcWEcS6Zpjbo74Nqj69etj27Zt1KRg7jmJFlEZAs9c7DRb85yYhI4fP47Ro0fTvnbm4myFRBI9y0No/R3+78pkMtSoUQMzZsxAYmIip1epM5kGiE2W3UsFBQX4/PPPUb16dZN9wPIK66Tk8w2JPGvbti2+++473L17l/4dvn2bPAcAk31Nfmbu9yvTgckqtOyZW7duHXx8fOhn5t9Y+XvFx8cH4eHhStGaNWuKX3vtNcH1rSUSCbp06YLk5ORKtb+yk09IjiUac2TEaq7mFpzEjOfk5GD//v0YN24c6tata3YjWZsPNoOJEFyDBg2wb98+msnoaC83ucKaM8mQa/iff/6JCRMmICIiwq6bBP9Q8rVIR5OnI8i6vCYjkgUrl8sRHR2N+fPn4969e3SNiF2X7H1nQ3FxMVatWoXIyEj6mdjoEJawbZVx8PLyQuPGjfH+++/j9OnTyM3N5aR/s/Ht1mpum3OgO1roXbt2jRMxYiskWKFQICAgQClq3bp1ce3atQU7j6RSKVatWmUSUVDRRMRfALIIfI86G+vKSjT+76SlpeG3337D/Pnz0aFDB4SGhnK0aP4BtDYfhNyI2aBjx444c+YMzWJk45adwbnIpo9rNBpkZWVhwYIFiI2NpY6g8hAtS9J8QeZoEq0sorb1cyFx+uQr0bjj4+OxadMm5OfnU+EvoJ2UQ0Cebd++fYiNjTUruIVmBLPnMTIyEt27d8eqVatw7NgxFBQUmOUgfg6IueQuZzCv6PV6TJ06VVCbRWb/KEXVq1cv9vHxsWj05g8fHx/8+uuvnGD6yiAiViKy5MdfAH54lFKpRFZWFh48eIALFy5g1apVGD16NFq3bg1PT08TW5o5zdLaZBKniVgsho+PD95++22kpaVxokH4zkZHgL9htVotSkpKcOjQIfTq1YvWjrFnA1kbJGyrdu3a6Nq1q8PJtKJHSEgIWrdujaioKJsRE0LJmswj2WOvvfYaLl++TBNOnFHDZpNrLl++jG7dusHf359yC1+jFlrKgXCSQqFAUFAQOnXqhDfeeANbtmzBrVu3kJSUhMzMTJo9bEnLJmfS0UXoDAYDVqxYYa9SoxRFREQUs7YUW/+5ffv2ePjwoQlZVpZZhHim9Xo9VCoVsrKycOLECWzcuBHffvstVqxYgcWLF2P+/PmYMWMGhg0bhiZNmiAsLAzBwcGUmCyFXLHeayETKZVKIZfLUbduXWzYsAHFxcWcFHbibOQVcal0sA5OnU6He/fuYe7cuahRo4aJOcySjV7IwfL29sZzzz2Hd955B4cPH0ZqairS0tIcTqgVPWJjY5GXl4ekpCT88MMPmDRpEiIiIuDl5WVXEhGbuMbXRBUKBaKjo/HFF1/QcFpnAyFrosxlZmZi/vz5iI6ONjlTQm4k5CtrPmETdDw9PREYGIjq1aujffv2eOONNzB37lwsWrQIn3/+OZYuXYoVK1bgv//9L86fP4/s7Gx6K3dkKLLRaMSxY8fw3HPP2XPWlCJ/f/9iNgLAloY9duxY+kH5JorK+JAk3Oynn37C8OHDERsbywm54y+2vYTD/3/WbNkeHh4IDAzEuHHjkJiYyKlQyLeZ8Z0fFQXW7AOYevM1Gg1OnDiBDh06mITn8U0aQg4X+d0GDRpgzJgx2L17N1JSUjh9KZ+18qpkn966dQubN2/GiBEjEB0dLcg/ZI24yJDJZHjppZdw5coVzp5jIxEcBXavsQrdsWPH8NJLL9GoGKE+Iv7vmLN5C+1aHhYWhpYtW2LChAk4deoUVaBYX1dlCUGj0Yjk5GT06dPHntuYUuTp6VnMD9OyNpHTp0838VZXxockYWdarRaff/65oM4XTzLMETfRPMViMTw9PVGzZk1s27aNNiDg28wcBdIXjtxCiAmkuLgY3333HYKCgkzszEKIhL3SymQyKBQKNG3aFIsXL0ZKSopJLDfwOEyyqKjI4YRa0YNfD5vsV2LTvXz5Mj766CPUr19fsIOfP8g5Jf+3cePGOHLkCJ13tgSws8FoNCIzMxOLFi1CdHS0iWOfvw/LY1ISepbFYjFq166NLVu2cBQLNpChMpCRkYFBgwbZU2tHKZLL5cWshLK1kWbPnm3iba2s6AeDwYAff/wRwcHBNj3MT3OQ6A+R6DF51atXD6tWrUJGRgYnK9BZkmBIeB6btZibm4spU6bAx8cHXl5edP5sJf+wHn5yFZXJZOjXrx+2b9+OnJwcGi9szqFjMBieOQ2bXQciNEmZg7S0NHz99dfo1KkTFAqFIKHJ1yDZ3w8ODsb8+fOhVCpp3LIzEjZbi+T27duYNWsWNceZ+/xP21Ft7v0aNmyIy5cvm0SRVJZtOzs7G0OGDLEnokopkkgkxfZM1Lx58yyG0VQkjEYjCgsLMX36dMF1C8qzqJauVyTEaNGiRUhISKAkzV6p+K8dAXbTEZK4desWBgwYAJFIxBE8QiIW2DA9X19f9O7dG7t27UJubi4Ni7QUoUP2ybNSD5u/X/mCi3X4pqenY+3atWjVqhU1E9hDPOzvy+VyjB8/nmOKcjawQQFk35w5cwYzZ85EdHQ07dbEhvxV9JrJZDKsWbOGUzq5Mv0COTk5GDZsmH02bJFIZBdhz507l2OjrUzCTk9PR5s2bahJoqIWktU+AwIC0KZNG3z55ZfIy8vjZF4RgmaLsbPz4gjwbejnzp1DfHw855bA+ixszYVcLodMJkNsbCx2795NNWm2YwgJXTR36zIajc8kYQP/mEX4dWPInOn/vyTt8uXLERMTIzgyhz2jJARTKpWib9++SElJccr66vyIDTZ44M6dO5g/fz4aNGjAsXE/rbWxlOQmkUgwZMgQFBUVVaqfiSA3NxfDhg2z57OYEratMXfuXJNYx8oIQjcajcjJycH48ePh6elJ7anl1bD5Tg92g0gkj1vOv/XWWzhz5gwyMzPpc1j7nKw2VZwnkJ0AACAASURBVBmLbi5xgHxfq9Xijz/+QGxsLCdSwdaG5l/PIiIi8Pnnn+P+/fucsrnkc/IHu+HJv59VwmZhbp7IV41Gg4sXL2LatGmcEDhz62NtrTw8PNC1a1d6A2Tr/DijqYS9hSiVSqSnp2Pnzp0YMmQIbatFPicbOVOe9TEXYeLl5YWlS5dyyhyTZ6poGAwG5OTkYMSIEfZ8LqVILBYX2xN29PHHH5vYKisrpE+tVmPdunXw9vam9j9Lm9nS9/g2enINIzHDo0aNwg8//IAbN27QsDxnbGPE1whYs4ROp8Px48cRExMjKK6aOFSJNu3h4QFfX18MGDAAf/zxB9WqCQHYK5yfRRu2NfDNiaxT+MCBA+jYsSPHwS1UKSFr3KdPHyQmJlIBy2YHOhtY0ibPW1ZWhuvXr2PlypXo06cPoqKi4OfnRyv8sc5XS+ec5Qa+Y5PMU1hYGH7//XdOiF9lnnVC2HbU4VGKFApFsbkJsDTef/99jjSqzMQZvV6PgoICzJw5EwEBAYKfmR9j7OnpCR8fH8TExGDgwIH497//jaNHjyI3N5emkhO7Ftnwzga+RkvWQKPRYP/+/YiJiaHahBB7IJs2XKNGDSxYsABZWVnUDs4KBHvX2k3YXJD540cVGY1GqFQq3L9/H2PGjIGfn5+gTkb8+HmJRIKuXbsiMTGRNghwdKKIJZjLQCSDhISmpqZi165dmDRpEnr16oWIiAj4+PhQu7etPU7OP3HwisVihIeH4+uvv6bOeXM3xIqEwWDAo0eP8Morr1iMlDFL2IGBgcXEHiyE/CZOnMiZXL5zpSJBNl5eXh6+//57tG/fHtWqVeNIUjYjKiQkBDVq1ED9+vXRuHFjdO3aFe+//z527NiBkydP4ubNm7QPpbk0Vme8RhKwmhm70c+fP4/mzZubvS5bWlM2oaFhw4bYunUrrQvOCoTyhiy6Cdv82rF7ja2NodfrkZeXh2+++cZsjoG5YS7Sq3fv3rh//z5dO2e9KbJ+Ib4ySDKWye8VFhYiISEBJ0+exIYNGzBp0iR07twZjRo1Qr169RAZGUm1cXY+pFIpZDIZoqKi8MILL+DAgQMoLi7m+BlY/0JlfO6UlBT07t3b5BxaJeyQkBBOpqOtK1iXLl2QlpZmciWvDA2bnzWYlZWF8+fPY/Xq1fj0008xd+5czJ8/H8uWLcPGjRtx5MgRXL16FdnZ2SgrK6MkxDrJ+JEO5G+xCQnOqJnwzVIGgwGXLl1Cly5dqFlD6M1JLH5cl7lv377466+/qFbNpvKSv1Wea7WbsLkwp1mzSgLZ56WlpTh27BiaN29Ob0tCEsSIf0cqlWL48OFITk6moYXOBtYUwi/mxpYh5peiIK/VajVKS0tRVlaGtLQ0JCQk4ODBg/juu++wZMkSfPLJJ5g3bx7mzZuHDRs24NKlSygoKDDbtKO8N8jywGg04o8//kBcXJzg2ioikehxLRF/f3/BFdYCAgLw22+/cULYKkNym4s+4G92vrPL2iDvyX9/S3/L2UCei0QbPHjwAC+88IJVKc0WqmKHt7c3xo4di+TkZBP7Kv/vlQduwra9jpaGVqvF1atXTTLibPVPlEgkkMvlUCgUePvtt5GXl8dRUsjfdmREk605sPV7Qt6D5QT2d9k54O/zpwlWCLC3BoPBgFWrVtEACsE27Li4uOKIiAhK1LbsZR4eHvj+++/pddmZzQZVGaw5JCsrC5MnT6Z1UiwNonmzw9fXF7Nnz6b2anZzPS24CfvJoNc/bv785ptvwtPT0+6IiaCgIKxYsYIWRjJnenCf4YoB39zKzv37778PkUh4VqdYLFaKFi5cWDxw4ECOxLbl4Hj55ZeRlpbm9Hbeqgz2Srhu3TqEhYXZXHi2siA5yIsXL6ZlYPnF8p/WuroJ+8lA1iQzMxNjxoyBt7e3XYk2JBX7yJEjJnVuKtMM8CyCb3IhZsXk5GS0bt2aw7fW1lQul8PPz08punfvXvGcOXNoCrKQ4e/vjxMnTlDp4SbtygcxSZ06dQq1atUStG6EsKVSKXx9fTFjxgzk5eVRnwDR2smmchO2cxC20fi42a1Op8P9+/cxdOhQyOVyQbH1bBJYs2bNcPPmTY6TzxnKKVRlsMoPW4t++/btnIxtW7clb29vhIWFPW7Cy9bnsFVak3hc//3vf9PMP7LwblQe9Ho97t27Z1etabIpFAoFpk6ditzcXJMOJqyj0U3YzkHYbIKNVqtFSkoKTbiwdk7ZUE0PDw8oFAqMGjUKGRkZbsKuJPAdmgaDAffv38eAAQNMys1a8z/VqVMH3bt3V4qMRmPxnTt30LFjR84CW9sMHh4eaNq0Kf7+++9KjV18FsGaPtgY1ZKSEsydOxcBAQGcxp3m1oo9xB4eHhg5ciTy8/NNan+Qv+c2iTgXYbNRS+QGdOXKFXTp0oV2pRH6nNWrV8fGjRs5eQbu81tx4NuudTodfv75Z5pHYk3gikSPTSEeHh4YN24cDh069JiwNRoNxo0bJ8hbSeykMpkM7777LpRKpVOGC1UV8EO+SJzooUOHUL9+fbqo5habnwkmk8nQo0cPJCcnc1qrVfRhdRP2k4GtdU3WX6PR4NSpU2jYsKFd5Vo9PT3Rs2dPk56sbsKuGLDnV6VS4cGDB+jXr5/VteILYF9fX6xZswYajUYpMhgMxVqtFqdOnUJ4eLggzzPR5urVq4fTp0+7zSEVDNZRpNVqUVZWhlGjRploz+wamauzUrduXRw6dIjTYspN2M5P2IRYSfgs2+bqm2++QVhYGOds2jq7MpkMS5cupV1rnLU/ZFUAP0TzP//5D6dOiqU1Yr927NgRd+7cgdFofGzDJiTQt29fwRuUhBcNGjQI6enpTplcUhVAnIEajYY2Jjh48CC8vb3pglpLkCG/4+vriy+//JJmdQGg1+KKhpuwnwxsCCdbEZLckmbNmiW4wh0R5J6enjh58qQ7YKCCwfaPvHPnDtq3by/IhMUmMb733ntEWD/WsMnCX716FUFBQYLJmiz8/PnzUVJS4ui5qZIgVyli/0pNTaWCle3/Z4mwRaLHTsbhw4fTTtNsT8zK0K7chP1kMFcygc3OvXfvHrp3704di9au20TDlkqlGDduHLKzsyvsud34xweVn5+PiRMnCq7zTdawVq1aSEpKIorVY8ImZKBWqzF16lSTWtN8ZyQha/LvOnXqYMuWLbQ7ONlU5ans5oYpyKJrNBps3LhRkIRmPdANGjTApUuXHPb8bsKuGLC1L/bv34+wsDBBXYTI1zp16tDwXDfKD35iDL/tWFFREZYtWwZSAkTIIElt3333HZtJ/tjpyFZ6++uvv9CkSRMTqWxJWhNiaNasGU6fPs3ZRO5wv6cDchVOSkpC586dra4Jf3h5eWHFihVQq9UOe343YVccyDkrKCjA2LFjbSZPsYQtlUoxduxY5Ofnu80iTwASxcPyKPmeSqXCtm3bEBkZCZFIZDNsmpC1WCzGCy+8gOLiYracwGMNm60UVlxcjC+++AK+vr4cUrZU/Y3dAC1btsTp06fpJnLWko6uBCL09Ho99u7dSxdeSESATCZDp06dcO/ePYdG8rgJu2LAmko0Gg1Onz7NcUDaGh4eHmjRogVu3LjhPqdPCFbLJhE9Wq0WO3bsQJ06dSiX2jq7RJBGRkZi//79nGguEMImf4zUhs3OzsbAgQNNujTzQ4f4ryUSCVq1aoVTp05xit67UX6QDZCfn4/Ro0dzejLaOpBeXl5YtmwZ7T3pKLgJu2LAZtCRWP3Ro0dzMujMDVYLVygUWLJkiUNvYK4Oc2RdWlqKn376CQ0bNuTMvRBzplwux/Tp01FUVMSv7fPYJEL+KFtjIDExEU2bNrXZ1ZkkbRC7tkwmQ8uWLfH7779z/hh/uCW6MJB1SUhIoP0sbR1IMmJjY5Gamurw4j5uwq5YsH6jO3fu0FuYpfPKP8+vvvoqcnNzBVfNe1ZhjsP4qeekLO7mzZtRt25djk+B5EtY6/AlFovRvn17ZGZmcurRU8IGUGzu4fR6PXbt2oWaNWva1dWFaNqxsbHYtGkTrRBG/jjZXG6JLgwkIuDbb7+Fl5eXYC+zl5cXPvvsM04KsqPgJuyKAb+wEIkomjx5Mm3OyxK1pTMbGBiI3bt3mzSRdrSgdzaQWGpiiWDzI0iQRWFhIZYuXYqoqChBSYisFUMqlSI+Ph5//vknxybOnF3rhF1UVIQFCxYgKCjIYi1ldhAyIb3XQkJC8NFHHyEpKYmGkul0OmouccM2jEYjCgsLMXbsWMGthMRiMapXr46cnBzOoXYU3IRdMeBresR3dPjwYZPwXEuETV4vWbKEU37VrWGbgo0AYc8V6YqTmJiIt956izZStjVIqQjytXbt2vjxxx+p4DRT/tY6YWu1WuTn52PmzJk2q/mxtSxY47pcLkefPn3w66+/orCwkFYec28EYdBqtThz5gzi4uIE9fcTiR5r1+PHjzcpo+kouAm7YsBm0LHaXmpqKgYOHGgS4mdu3xBzZo8ePXDjxg2T7kJuxeofkLlmG7fodDrk5eVhy5YtaNGihV11XVjFKzQ0FN9++y3Kyso41TN52ciWCZstB5iVlYWxY8faLJDPPgAp60j+HRERgSlTpuDmzZt0g7lhGwaDARs2bLCZEMEOPz8/7N+/36RSmKPgJuyKAasFs/4ilUqFhQsXchLcbD1/9erVceTIEfoeJDTNrVj9A6LtkggQjUaDc+fOYdiwYQgODqaJbELqurDNg/39/bFgwQIaXsn3JxJzMqwRNr+5a2ZmJqZMmULVff4DkfhCYosh32d/z8PDA40bN8ayZcuomYTvhDRn0Acst/1i7WyufI2zVC1PpVJhwYIFdknuJk2a4MqVK5z3cGvYVZOw+c2Rydi9ezciIiJMtGpLRBIcHIwffviBZlBWNQ2b5QRLzlX+77Dcwt48NBoNEhISMGfOHERGRlrkPFumSw8PD4SFhWHp0qW0iB6rUfP7WMIaYbNXaULeaWlpmDFjBu1DJhIJCy/jtx7z9PRE48aNMXfuXFy+fBkqlYqzQdiyn/xmmezGZJ+PH5HiapvNnLfZYDAgOTkZ/fr1E9xGSCqVYsKECcjLy+NkSLoJu+oRtiUYjUbcv38fnTt3Fpxg5enpiUmTJiEnJ8dEeXB18AmZ5Q6+05atCc9mgOt0OhQXF+PMmTOYPHkyoqOj6Zm01UeVvOaXQY6MjMSqVatQVFRE/4aN+bZM2Gy3bLbVfH5+Pj7++GNUr17dZsgf+6DmSFwmkyEmJgYjR47Ezp07kZyczCmkTwSFOeJmu5mzBMcnc1cCP57TaHzcWblevXpWtSN2yGQyLF68mBMS5OgCP27CrnwolUoMHTpUcFSRSPS4Ktzdu3dd8uxYA78qJasUsVosyyPE7KFSqXD9+nVs374d/fv3p7xHyJg4DC3NqTnziFQqRa1atfDDDz+guLiYUzbXRkNzy4QN/JNlx0oo8qYbN25EvXr1aHdmaxuBaNfmkm7Y+tpNmjTB+PHjcfjwYaSmpqKoqAgajcYkNI1vMmEdAa4cQ2outvPo0aNW42r5w9/fH//973+pgGN9EY6Cm7ArH0ajEe+++67g1n9isRitWrXC7du3+aFkLg8hZE2UQ7VajczMTKSmpmL79u0YPXo0ateuDblczuEqlteEzq9MJoNMJkOzZs1w+PBhTis+rVYrJNTZuoZtzlZsMBhQWloKnU6HM2fOoEePHnZtCnMdUPhV53x9fREcHIzmzZtj1qxZWLNmDfbs2YOMjAx6vWefjx9g7qpNRfnCRqPRYMeOHQgNDTURdNaI46+//jLRGBwJN2FXLsg53bdvH2rWrCn4M8THx+PChQtVsiEJKU/MtsADAJVKhXv37mHfvn1YtWoVxo8fj6ZNmyIkJIQmqLH+I9a8yy/PYWt4e3vjjTfeQGJiIsdOTYQFUbKswHpYn7nrAqvt6vV6PHr0CPPmzUOtWrUsPji/BKilnHprLa4CAwMRGxuLdu3aoXv37ujVqxcGDhyI4cOHY9y4cfjkk0+wfft2nD59GqWlpSYJAM4eW2rOvlZaWoqvv/4a1apVExTSJ5FI0KVLF6SlpXG0azIcBTdhVy7Iut++fRsNGjSweW0nIzo6Gr/++qtJSJmrgO/nKiwsxKlTp7BhwwbMnj0bY8aMwYgRI9C/f3/07NkT3bp1Q5s2bVC/fn2zEXB8ywD/q9BmLx4eHmjUqBHWrFmDvLw8s635BPbWtG4SsTQpRCoQzZa0K+rYsSPkcjlH47bHhmbvILV92YlTKBQYPHgwzpw5wxEu7GI68yZkCbuoqAizZ8+mhbjM1XPhb6AXXniB1r0GuAWCHAU3YVc+jEYjcnNz0ahRI8EaYFhYGDZv3mwuJdoloNfroVQqodVqceDAAdqgmu/4q4j1Z88lO9/+/v548803cfHiRZOkm3LAfsLmS11C3AaDARkZGfj+++/RqFEjq9cFoRvIXvJmXzdr1gzHjx+n1x9iSnFmwuaboLKysvDmm29ybGa2CLt///60k4yzOGDdhF25IOuuVCrRvHlzwZ/Bx8cHS5YsgUaj4byPq0CtVkOlUmHTpk20pIZCoaC244rgHTKI+cTf3x8ymQwKhQJdunTBzp07acNr4v97gjktP2GzURusiq/VanH//n188MEHqFWrFry8vEzC+p508CfeUunXV199FampqRzzjg0vrEPBOnuMRiPS0tIwYMAAE2etNcIeMGCAxZh1R8FN2JUL1pfTunVrwZ9BIpFg5syZ1Pnl6H1jL/R6PW7evIn27dtDKpUKjkF/WpxEwvbi4+PxzTffIDc3l1oj2OqlT2Bqsp+wWZs2CfVjSZt4WlUqFTIzMzF79mzEx8fTLjaso/FpTxZfioaHh+PXX3/lJAI4s/ebDcEjhN27d2+bm45P2Hzfg9sk8uwRNtnvLVu2FExWEokEU6ZMcXg53vJCqVRiw4YNtI6KtfopT5u8vb290aZNG6xbtw5ZWVmckGTWJMsqt+X5iOUmbPKaP/janVarRWpqKtauXYtu3bpx0mX5zki2GIpQorb183Xr1nGcj84K/rwZDAakp6djxIgR9LrFj3vnJ9NIpVKMGTPGrWG7CZuaAonA50c6mDt7np6emD17NtRqNTWrOfOZ4aOsrAwffvhhuQiZLaVhrmGLufeUSCQICwvDiy++iH379iEjI8PETm0uyq5STSL2gjy4RqNBXl4e9u3bh3feeQdNmjSBv78/Z6KEELA9iyAWi7F27Vr6LM6sNbDXWKIZq1QqfPPNNwgJCTGpUcBe+cjPqlevjp9//tnRH8UEbsKuXLCa3MqVK2k5CZKhbI6EJBIJGjZsiKNHj1I7q6tlCyuVSnz00UdPvJbm6oGw5y4kJAStW7fGBx98gOPHj3OqHPJ9ZU+ZcyqHsInBnZCQUqlERkYGDhw4gHfeeQddu3ZFaGgoPD09qQZui6iFpsSvXr2aPstTkHAVBtaMAfxTy+XSpUvo1q2byc2DlLAl3/Py8sLgwYORk5Pj4E9iCjdhVy7INby0tBR37txBmzZt4OnpyVGM+GfK29sbw4cPR1paGqcfqzOeFUtQKpWYNWtWuQhaJBKZNdXK5XJ4e3sjPDwcL7zwAt5//32cPHkS2dnZlNNIpBy/pEYFCLuKJ2xyNSPGd7adEdlYubm5OHv2LDZv3ox33nkHsbGxqFevHqpVq0YN+fw4ZKGxkMuWLeOYcJx1E7Jx0+xVSq/X49ixYzRkUiT6xyNNTEi+vr7o16+fQzujPylI3Pkbb7whOBRUIpFg6NChSE9Pt/q+ZG5v376NZs2aCT7ICoUCS5cudWpHtTmwmXtarRZHjhxB27ZtzVbvE4vF8Pf3x6BBg3D16lXqm2Id9a6C0tJSTJs2zW7CJlmIEokEUqkUoaGhqFu3Llq3bo3p06dj586dOH/+PAoLC+m8shq0uZIYFaQcVjxhE+lDyFqj0XCuDeR75OdlZWUoKSnBgwcP8Ouvv+KLL77AjBkz8NZbb2HQoEF47rnn7HJazp8/n+P1dtbDR6Qye1DIoms0GiQlJWH58uXo0aMHIiMjERISgvr16+PFF1/E119/Te1nrnTAWBiNj+vUDBkyRDBhS6VSTJ8+nba3MgfWK5+eno4BAwbYfH+iBCgUCixYsABKpbKSZ+PJwDqcyZ5PSkrCJ598gp49e6JWrVoICAhAvXr1MGjQIBrRwO4/RydblQd5eXkYN26cYKKWSqVo0aIFBg8ejNGjR2PmzJlYuXIlTpw4gbS0NFqbmp1LfrkOAJyEQtZnVAECr+IJm8CcQ5L90Na+R7Tz3NxczJ49GwqFQnCI4Ntvv03rzPI6EDsVrM0He80qKipCamoq7t+/j4cPH6KkpMTpszgtge9Bf/DgAfr06SOYsD09PbFixQqrDTFYn0BJSQneeecdwYQtl8sxbdo0FBYWuhx5EbB7QqfTobCwEKmpqUhKSkJ6ejqKi4vNOrydGcTMCnBrVCclJaF///6CteqAgAD88MMPKCkpoWVlLWVFm+MtS3uuAs9h5RH2k8JoNEKtVmPlypWc8q62RqtWrXDjxg2niZhwwxSEtP/88080btzY6noSspVIJPDx8cGOHTus3ixYoa/T6bBixQrBAsHDwwM9e/ZEamqqe884CSxFpBkMBhw9ehTR0dGCNWx/f3+cPHmS7j8XuFm4FmFrtVqsX78e3t7egqVoaGgojhw5YuLUc8PxYA+fTqfD5s2bBffDk0ql8PHxwdGjR60SNhuDr9PpsHXrVloWU8jfqVGjBi5duuTeN04CsldYwiYk+9///tfk/Ftb28DAQFy7do0TFeMm7KcEskAHDhxAjRo1BC9KSEgIduzY4fRp6c8iWCeNWq3GF198AR8fH8EaUlRUFO0wbU3DZv/GgQMHBAsFkUiEgIAA/PLLL5U8M25YAruerB9Mr9dj6dKlgvM4xGIxmjVrhrt373I0bCe/SbkOYRPcvXsXXbt2NekZaWlRPD09MW3aNBQUFHCC2t1wLmRkZGD06NFmU4rNrauHhweGDx+OjIwMq+9L1ps4tZOSktCpUydBB5rssUWLFjmts/pZgzmHqsFgwP379zFo0CBK2LYqFCoUCowbNw45OTlPIwOxsuA6hE2uPoWFhRgxYgSkUqnNgi7kZ61bt8aNGzfoQrvhHGAdRgkJCYIaNUgkEigUCkilUixduhQArB40Nj3fYDCguLgYkydPpu/FfuUX1yIZb/Hx8SguLjZJMXaRQ16lwEZfsPbrY8eOITw83Ob+ISSuUCg4Dmu+s9FJ4VqETQ7Ihx9+SGuTCFmgunXr4vDhw1WyMLsrg9WW9u/fT1PtbdX8JnGzW7dutZlRRpzVLNHOnj3bpDm0uUNNRnh4OP7++2+OJsa3o7pReWAJlnRqWb9+PQIDA63uG1aJCw4OxsaNGznr6CbspwwiXc+cOYOYmBhBhE00snfffRdFRUVu0nYyaLVaKJVKWpVQSHkCsViMjh074s6dOzYJmxxq4J8Qv4MHD+K5557j/C22eBh/yGQyjBs3DkqlktNV3E3WjgERmGwTlUGDBlkU9Pybk0wmQ/PmzXH37l27wvWcAK5F2MBj0i4qKkKrVq0E2SFFoscRBV27dkVSUpLbhu1EIAL46tWrCAkJEaRhkzF16lQolUqbziL2ZkZINjk5Gb169aJ7w1qnI/I6JiYG9+7do6YQNjrBiQ94lQXrcPz9998RGxsrSHkj6zl48GBabdSF4FqEzR6SefPmCeolSRbJ19cXy5Ytcx8wJ4NKpcLo0aM5FQltrWm1atXw3XffCXIiswcbeBzzXVBQgBkzZiAgIMDm3iFOLG9vb3z++ee0rrHbHOIYsDZsg8GAgoICvPfeeyaVKy2Z0jw8PBAaGmrSqNpF4DqEzcZJGgwGJCQkoHr16jav0KxUfeGFF2gSBHvoWO3LjYoBO89sMsvFixcRFxcnyLxFRseOHXHr1i1q7ihPSv7JkycRFRXFuTLb+rv9+/dHWlqaq4SAVUmQyBASW3/x4kXEx8cLSoYitYgaN26MoqIiVzzvrkXYLMHm5ORgzJgxNiUraxoJDAzEmjVrOD3r+MWW3Hj64Hf8IXNeVlaG2bNnc25KttbT29sbM2fOpIV4yqvpPnr0yKSbjy3tPiAgADt37qRCwr1vHAOy5hqNBlOnTrWrGYqvry9mz57t7AkyluCahE2k686dOxEcHGyTqFktqnPnzkhMTKTkwWbauaDEdQnwkx1IQZ2LFy+iYcOGJjZjayMqKoqTTlxeR5HBYMD27dupsBBarrdTp07Iz883WwTIjYoHaxY9fPgw6tatK7iukFgsRlRUFK5evUqrhboYXI+wWY0qKSkJffv2tXrY2e42pODL4sWLUVpayjn07ituxYEVssA/juMpU6bY1WFIJBJh9OjRyMvL45S5LA9p6nQ6PHz4ED169OAkWVh7FlIl8osvvqAOT7cdu3JBlKvMzEyMHTsWCoVCkFlULBbDx8cHkyZNosXgXHDdXIuw2eIspFv7l19+iWrVqgk+8GKxGM8//zzOnTvHcTq44OK5DPg+A51Oh59++gl+fn52kbW3tzeOHDnCidJ4Eg1bpVJh/fr1nEbRQp4jNDQUZ86cMVvZzQVCw1wG5pQ0cjPetGkTqlevzgnFtHbmPTw8ULt2bRw7dowTl+9icC3CZp2DhGzT0tLQtWtXTtYav/ehOU1pyJAhyMzMdNcYqQSw9YJ1Oh0SExPRoEEDm9os26RCJpNh0qRJtMEpux/Kczsi///BgwecW5qQOHCJRIJBgwaZ7B/+/nTjycDPKiVrfffuXXTs2JHj77CVbCWXy/Hmm2+ioKDAlc+86xE26ywkzp8ff/wRERERnI40QhZw2bJltJ60RqNx9EessmDJLCsrC2+//bbgkEyypvXr18fp06epds33Z9hL2OTwazQa11w8yQAAIABJREFUbNiwAaGhoYIc2ITYq1Wrhq+++op2GGdJwK1hPznInBInNflaUFCA8ePHQy6XCzrrYrEYcrkcMTExOHbsGHQ6HW0w7HY6ViDYQ8FPJy0oKMCwYcMgl8vp9cfWIopEItSrVw979uyh9lC3VlQxIOtETBDWHMXsGpF18vb2xty5c2ko1tOwHROhr9PpkJWVhZEjRwp2XhGSqF+/Po4cOQK1Ws0JOXXXrHlymEt4Ki0txapVqyCXy6lwtXQjYr8vk8nw8ccfc/webqdjBYO1YbOHgjT4/fvvvxEXFye41yPRllq0aIE//vjDpdtrOTuIpnT48GHUqlVL8PqQg9e2bVskJCRwtGt+mKe9YKOENBoNTp8+jfDwcJsmEVJNkAiUxo0b4+LFi1QgsWYaN8oP1t9B6sFs3boVtWvXtmruJOvHFvDq0qULUlJSTPoxuk0iFQxC2gRsaJVSqcSiRYvg5+dnl6Ykl8vx0ksvISkpyYQQANBD7YZtsCGS7DzqdDr8/fffaNGiBcRiseAiT6SrzJYtWzhXWXLQniTbkFyxiUlDqVTiiy++4DQ4NifgSdYjeUYPDw/0798fd+/epe/lTsISDr6pk6wlK/iUSiUSEhLQtm1bThgmWSNz5jXysxo1auCnn36ijkZC2mStXAyuRdiWQBY9JSUFvXv3NgmkZ8P6zBGDQqHA0KFDce/ePWrP1uv19KpbXOzyU1QpMBqNKC0tpbcecjCuXbuGbt26mZiq2HA6VmtlfzZz5kzk5OQ89egLc1p6RkYGhg4dyhEoQuzaMpkMb7zxBjIyMqBSqdyEbQfY+eevCanEd+nSJTRp0kRQnXQvLy+6dnK5HO+++y4KCwsd/TGfFqoGYRPnkcFgwNmzZ/Hcc88Jso2yVby8vLwwceJEpKWlca5j7oQa+0BMDOQQ3rp1Cy+//DJkMpnZphNk/vmHUSwWo1u3bnj48GGFxTuzZEE07pMnT9JCQkSjFtK018fHB2+//Tby8vLc/hA7QfYMP/pHq9Xi6tWr6NOnD9WihYTvSaVSSKVSdOzYEdevX3f0x3uaqDqETQ6d0WjExo0bOW3EbElliUQCLy8vyGQyvPnmm8jMzOQ4Nt0RJMJAnDnEt3DlyhVaFc/cYSMaLFurmHwvOjoahw8fphXVnna8PBsXzoLE9vv6+go2q5Hh4+ODV199lQp9N4TDXAjflStX0KNHD1r73laSFeuIrFmzJs6ePVvVbjtVg7DZQHi1Wo3i4mLMmTMHAQEBgq5RLFlIJBJ0794d9+7dg0qlcjsj7QAxJZWUlODPP/9E69atLWrQljRVkehxvYe1a9dSTZ3vgHoa4IeIslq2SqXCe++9xzGt2YrrJ2Qhl8sxePBg3Lp166k8Z1UHK4zZiJCzZ8+iefPmHOehrXUgGnZERAS2bt1KtfYqhKpB2Kzjgix+amoq/vWvf8Hf358jmc0F27NSWyqVUs/yH3/8Aa1WS73/bLhWFZPcdoElUfY1ibw4evQo2rdvTx2M9mQz+vn5Ye7cuSgtLTV5/6ddPoC/Z9jww9zcXIwaNQre3t4WzSJsHDD7ORUKBQYMGIDr16/TGwJ/vsg+epbittlbEn8uyL9LSkqwe/duxMfHUwXKnHLFXwPyfX9/f3z66ae0pVsVO6dVg7AtgdQaISRNDpWQbDaZTIZWrVph+/btKCkpodoja197Vu2Uer0eRUVF1HdAbiLFxcVYv3496tWrZ1MbMmcmkclkmDJlCnJychz22Vib9v3/b+xKIkeEfg6RSARPT0/UrVsXR44cQVlZmUn8OLuX2OiFqgq+YGRJm5ytgoICrF69GlFRUYKEPD+4wMvLC5MnT0ZGRgbnxlSF5rVqEzYA3L59G71797armwnRskUiESIiIvDRRx8hIyODapBkkz0LWpE5kIOn0+noobh37x4mT56MgIAAml0mRKMm0SGenp546623qJPRUWC1ebVajWvXrqFr165mzSB8UjFnow8LC8PixYtps1dWm2ZzC56VvcTGP7NCKzU1FaNHj4a/v7/JTdiacGSVsQkTJlD/AbGDu2j4niVUbcIm4WUXL15Ez549qUQWatcmpO3l5YWBAwfi3Llz0Gg01Db2rCZHkHArnU6HkpIS7NmzB506deJ0sRcSXUF+RywW45VXXqHNJZzh5sLWP7ly5QratWtnkaht7SMvLy/0798ff/31Fyd5g2+7fRbAj8BSq9XYs2cP2rZta3LuhNyCScDAW2+9hdTUVI7GTki7CqFqEzbRYFQqFc6dO4fOnTsLKnbOt7sSLTAyMhIrVqxASkoKjbd9FkHmNDk5Ge+99x6Cg4NN5ostpmRNQJLIiuTk5AoL37MH7C2KTfy5cuUKOnTowLl92RL+fHNP3bp18dVXXyEjI8NEs3bRzDu7wJpDdDod7ty5gzlz5iAwMJATj29rXonQJDezESNG4Pbt2xyzUxVtMFG1CRvgxtpev34dw4cPNxvTKbSAPdGW9u3bB6VSSa/OrG2bjcM152RxJljKFuSn/7M2wYKCAmzYsAGdOnWiiQpCtE62mJNEIoG3tzfefvttpKSkmNQmdxT4qe+s2SIhIQEDBgzgJNSwoWTmnGL84evri/79++PXX39FSUkJJW12ntnXzrhnrMFoNFInPTGZsSUA9Ho9cnNzsWHDBrRp08au6CH2HJL9M2XKFKSlpXH2D/9rFULVJmx2wcihu3fvHsaNG4dq1apxJLUtTZBcweRyOTw8PFCtWjWMGTMGf/75J1QqFcrKyihZm2shVRFRDk8DRNth073JIGF1xLRUUlKCY8eOYdCgQQgNDbV6qMzdWoh2JJFI4O/vj1mzZiEzM5NzqB1N2JZANO+kpCSMGjUKgYGBgu2s5kZwcDAmTpyICxcuQK1Wc/oUkvkgESuupHkTMwQxebC1QAoLC3Hq1CkMHDgQvr6+nDIFloiaDPZ8ymQyhIWF4ZNPPkF2djZ9f1eap3KiahM2v40U+Xd2djY+/vhjhISEmGhHQkwlUqmUZu5FRERgwoQJuH79OvLz801slMSmxhK4M4G1KfLD27RaLZRKJfLz83H27FkMGTIEwcHBZsnZUuo/X+CJxWLUr18fa9asoaVtyU2FXS9nA5kXMh/z5s2j+4d/XRcivIj9vnr16pg6dSouXrzICWVkK9S5EhGxjkS2GuLJkycxZMgQBAUFcUqjCtGs+SbKWrVqYd26dbS2NRFyzrhvnjKqNmGzNi1+PG9ZWRm+//57NGrUSFC4HzmI7HWYlfo1atTA8OHDcfz4cRryxv5tYi5xtk3FXvnJxifPm56ejp9//hlDhgxBSEiIyRzZ06WFCLpWrVph3759nGQnVmg4qwOODb3TarUoKCjAunXraCMGc2n3lgZxlpG5I/btUaNG4cSJE7TBMLnhOON8WAKZH41Gg6ysLOzevRvdu3dHWFgYzWolJkmhTmnyuwqFAm3atMGhQ4egUqk4dVuc8fZaAaj6hM1vI0WIQa1WQ6PR4MSJE+jRowe1xVqT9ua0J9ZJIhaLoVAo0L9/f3z33XdITk5GWVmZSfypM4HvCCorK8P169fx9ddfo3Pnzpwa40LIyNLw8vLCsGHDcPHiReh0OnrYzBVhckaCIoKN9Vfo9XocO3YMPXv25PQWFHLbYMmbaJEeHh7w9vZG//79sX37dqSkpNAYbldBWVkZbt26heXLl6NVq1Yc57OtGtaWNGyR6HFN9Ndffx3Xrl2jUUpstMkzkpFctQkbACfm1Zw9Wa/XIyMjAx9++CGtH8HPsCrPkEqlqF69OoYPH45ffvkFDx8+RGlpKbVV8mtjsBEJfO2cn2hg6XOac3Cygy1mxTq3ysrKkJSUhF27duGll15CSEiIoGgaSwePdchJJBJERUVh+fLltOoee+U39/zOevDMPaPBYEBycjKmT5+OoKAgKtgtObRtlZRliTwyMhKvv/46fvvtN6SmpnJs3XzTlTUfALv+/D3F7hlzr/mx4qzpioS3lpSU4P79+9i+fTt69+5tEjVkzz4itzaS7i+Xy1GjRg38X3tnHiZFdS3wwwAOM9Nd51TDMCA7uKDIorgFV9SgqFEjouISV17cIhGDoC8qxsfTuMQliD5jNCooiisaYwQEVMQFg6AoMH1vzz7DDAPMvs95f1TVTHVNVXf1bD1L/b7vfr3cW7duV1edunXuWZYuXdqUrd5uYbgrnzftSM8X2JEw67VLSkr4nXfe4YkTJ4a5VEebLbmZIRx00EF82GGH8SWXXMLPPfcc//DDD7x///4wTyzrq1mw2UUMtFoQmC0NzPandgK/vLycCwsLedu2bbxkyRI+//zzeezYsS1miW4uMLsnDuOC69+/P0+bNo3XrFnDlZWVTYuXBl1xJh0rxmJkaWkpL1++nMePH9/0VGI9f8wxR9wIMLPp2pQpU3j27Nn87LPPspSS9+/f37Q2YvzvdqqlaDd/6+TFbKlj3AzMgtv4vUVFRbxz505esmQJX3jhhTxq1ChXv83utxprQoZHqXHu9O/fn88880zeuHFjWATIXkzvFtjWk7ahoYFDoRDfeeedPHTo0Caj/LaqA6yxnpOSknjChAl8991386pVq/irr77i/Px8LisrC8s3Z3WssM6QzGO3XpiG2qeqqopLSkpYCMEbN27k5cuX87x583jMmDG2cT7cZKE2Zs92oVKNPkaPHs0PPPAAHzhwoGlMZquTnnLhGYLM0G/n5eXx3LlzeejQoWH6VzcxVezqzZYSRl8JCQl8xBFH8H333ccrVqzgTZs2cW5uLh84cIDLy8sdhbR1Zm499611NTU1XFlZySUlJSyl5A0bNvDy5cv5pptu4iFDhnBKSkrTuJKSklr9VGqEQzXOncTERB41ahQ//vjjXFhY2HR+9+ZwEDq9U2CbZwzWpK41NTVcXl7O3377Lf/yl78M896LpZhVCuYT2awHNxYwk5OTeciQITx69Gg+7rjjeO7cufz3v/+dv/jiC05PT+esrCzOy8vjPXv2cHFxMe/fvz+s7N27l/Py8jgUCvHOnTt506ZN/Nxzz/GsWbN44sSJPG7cOE5NTeUBAwaEzX6tyQPMs7pYZoFmt/+EhAS+/PLLeefOnWF6Rjt1TU+IpGb+TaWlpU2WJJs2beJp06Y1rY24sR6xFuN/Mo6z2d3f/N8Z58/IkSP5hBNO4Jtvvpn/8Y9/8Oeff85SSs7Pz+c9e/ZwUVFRi/OnuLiYi4qKOD8/n/Py8vjnn3/m9evX87Jly/jKK6/ko446iseMGcNpaWlNTw7m/RsC1wiB2paSmJjIAwYM4Ouuu64pA5RhqWTM9j2B3UsFtlXtYBbYhlph3759/Prrr/Npp53W5pPRrJszC3E7/Z1hApeYmMhJSUk8YMAATk5OZiLitLQ0HjFiBI8ePZpHjhzJgwcPZr/fz0lJSU1tjSSldo4chuCIZBkTi/u18Tv8fj9feOGF/PHHH4fp6g29q5Puurtj2AAbTzRmS5uSkhJ+5ZVX+PTTT7d9IrE7R5wiSJpVTdG8AY2bqCEABwwYwCkpKYyIPGTIEB4xYgSPGzeOR48ezWlpaawoSti5YxSr/bN5jMY5FOtColMZMGAAn3vuubx27VouKytrUvUYT2Vm66VeTO8U2LFSUlLCy5Yt4yOOOIL79+/fQldnDa/ZU4oxqzMLEat+PykpiU844QReuXIlV1RUxPuv6jKYF3mLi4t56dKlfOSRR9ou5tqdU+0hBON53kR7b17fmT59Or///vtcXl7e2xYRY8UT2G4wZt779+/nV199lU899VTu27dvk97ObLoU74ulI4pdHsbExESeOXMmr1u3rin2cE+aObcHxlOFEVM9Pz+fV65cyVOmTAlTLxgz2mjCr7sV65Nd3759m353v379+Fe/+hWvWbMmzG+hh8YAaS88ge0GswqltraW9+7dy6tXr+ZLLrmEBw8ezAkJCa4X67pTMT/+GrPAESNG8M0338xr165tWuAyrwd4aJhVQGanjrq6Ot67dy+/+eabfPnll/PgwYMZoNmZxnyT7M7nkln1Z17jGD58OM+dO5c/++yzJgchJ+soT2C3wBPYbjAeb82BnSoqKrimpoZ//vlnvvfee3nSpEmsKEqb7be7WhkwYAAPHDiQp06dyk8//TRLKcMsWaw2wB4aVpt647057GdVVRX/9NNPvHjxYp48eTKnpKR0ayFtCGXjZmOspQQCAT755JN56dKlnJub2xSi2Gz9ZA6W5glsRzyB7QYnSwdjgdJIKbVu3Tq+5557eNiwYTEt3HW1Yqg9jjnmGH7kkUf466+/boqTYjUhtDr+eDRjNZOzxmsx2tTW1nJBQQGvWbOG77rrLh4/fnyrrZO6QjEcXqZMmcIPPfQQb968uUntYbYVN9/QnJy+PMLwBLZb7LwSrd5gDQ1aEuDc3Fxev349L1iwgGfMmMHDhg1zFIxWMym7i9T6XWsuZLtclua+jHgWF1xwAT/wwAP85Zdfcm5ublPGDjsPOY/IOJ0zdm3MVko5OTm8bt06vvPOO/mMM87gIUOGNFmHOFkVub0ROxW7c8uub6uJqtkS6ZBDDuHzzjuPlyxZwl999RXv2bMnbKITzTvRW2yMiiew24LVjdfqsFBTU8OlpaW8Y8cOfvPNN/nuu+/mo446ikeNGsWDBg0KE9J2JnhtmSFbL0bDVNB4VE1LS+Nx48bxSSedxI8++iivXr2ad+/e3eS84+Te7nmbdRzG8TZnY9m/fz9v3bqV33vvPV6wYAEff/zxPGrUKFZVNewmHE1wu7Wttwpsu4lEcnIyDx8+nEePHs2nn346P/zww/zxxx/zrl27uKysLCxIVi83w2tvPIHdFsyLbXaPdeZYD8YFuHfvXhZC8IYNG/iJJ57gBQsW8DXXXMPHHHMMBwIBTkxM5MTExKZFvljMBY3Vd8PqwLDBTUtL42nTpvGNN97ICxcu5GeeeYY3b97MGRkZTS7Odp6V1pgnXWX209jYyI3V1dxQVsb1+/dzfVER1+Xnc11ODtdmZHCtlGGlJj2da9LTuVYIrT4ri+tyc7kuP5/rCwu5fv9+bqio4MY4L5paPQ+NtQFz7I7i4mLOyMjgTz75hB9//HFeuHAhX3nllS3On6SkJE5MTAyz4XbjaWk46xjnT2JiIqempvKpp57K1113HS9cuJCfffZZ/uqrrzgzM7MpxILdE5j5+vAEd7vgCey2YHb3tZuJmgW5dSZuFowVFRWclZXF3377LW/cuJHXrl3Lr7/+Oj/22GP8+9//ni+//HI+++yz+cwzz+SzzjqLzzzzTJ4+fXrT5+nTp/PZZ5/NV199NS9YsICfeuopXrlyJa9fv543b97MP/zwAxcWFjbFVrbqDs3xKJxiS3TG7LrhwAGu3LiR9y9dyntuvJGzjj+eM8aP59DYsSxHjGA5dCiLQYNYEHVcUVUWqakshw7l0MiRHDrkEM6YMIFzZszgojvv5JKXXuLq777jxg44DtbQA9bQodZYIMb/VllZyTk5Ofz999/zF198wWvWrOHly5fzE088wfPnz+c5c+bwzJkz+ayzznIs559/Pl955ZVN58/bb7/N69ev56+//pq3b9/OBQUFTWs2VgFtds13uia8p7J2wRPYbcF6Qpr1lXZCz7zoZG7ndCEa9ruVlZVcXl7OZWVlXFZWZvu+vLycq6qqmjwLnRZKDaFgfSqw3lScFoFaM8NubGzkmp07ufSVV7hw3jzOPf98zjz6aJZpaWHCUg4dytnTpnH+lVfy3nvv5ZIXX+TyDz/kqs2bufrHH7k2K4vrDxzoEGHZNNbaWq4vLubajAyu3r6dKzds4LK33uL9f/0rF915J+fNmsWZRx/dQtCHxo7l7JNO4vwrruB9Dz/MFZ9+yg1lZbHt23KO2MUBsbZ1mtWa48kY50+kUlFRwVVVVU0R+MzniRsdtHm8VtVgV3ky6wF4AtujfWisq+PaYJAr1q7l4j/9ibNPOSVcoI0Zw9knn8z5l13G+x57jCvXr+f6/fvjPex2ozY9nUtXreLC+fM5d+ZMzpw0icXAgc03o2HDuGDuXC576y2u3r6dG8rL4z1kj+6HJ7A9Wkfdnj289777bFUUueecw6VvvdWhM+HuRl1+Phf/z/+wHDasxfHKmTGDqzZvjvcQPbo+nsD2iExjQwOXf/gh582ezZlHHdU8Yxw+nAt/9zuuXL+eazMy4r5g191obGzkusJCrt66lfc9/DBnHHFE07HNOPxwzjnnHC55+WVm76bn0YwnsD3Cqd66lfc98USYSiPruOO48PbbufyDD7ixB4RE7co0NjRw1Tff8N4//pGzTz21+T844QTe9+ijXL1tm6cP7r14Ars301hby7XZ2Vw0f37zzPnggzlzyhQuXbky3sPzMFH+wQecdcIJLIcPb7Jm2Xv//VyXl+c93fQePIHd26grKuL8OXM4NHJkk5AuuOEGrsvO5sbq6ngPz8MFDVVVXCsl77nxxibhHRo3jgvnzYvZMsWjW+EJ7J5OXV4eFy9ZwlnHHqvNoNPSuGj+fK78/HNvUbCH0FBRwWXvvcf5c+ZoduSqynkXX8xl773n/cc9C09g9zQa6+u5eutWzr/6am32NWgQZ592Gpe+8kq8h+bRSTRUVvLee+/lzAkTmuzb9//1r1yXnx/voXm0DU9g9xTKVq/WZle6mqPorrviPSSPLkJdTg5nHnlkswrs2mu50XMV7454Aru70lhby3vvuYcz9Asx89hjufyDD7ihsjLeQ/PowlR//z0XXH990wJzwW9+w/WFhfEeloc7PIHdnajLz+d9Dz3EcvBgFkScN3s2V3zyiWfm5dEqaqXkwltvbfLILJw3j+uysuI9LA9nPIHd1WkoL+fSV1/V1B2BAGdOncrV27bFe1gePYyG8nLOPffcJuG9/6mnPIuTrocnsLsqpa+91qzumDyZq3/4wdM7enQ4jQ0NXP3jj5w5darmdTlhApd/+GG8h+Wh4QnsrkTlpk2ce955mmfb1Klc9vbbnllWFyMzMzPeQ+g0GuvruWzVqqaJQ/6cOVwbDMZ7WL0ZT2DHm/qiIt67eLEW0W7ECC5auNCLH2EiLy+v0/Y1evToiPXff/89l/fSKHsNlZVccPXVWqzwtDQue/99z8Oy8/EEdryo2bWrKXJb5jHHcP2BA/EeUlz56aefWnxXX1zMTy5axGWrVvG+xx/nwltv5dwLLuCs44/n0MiRWlKD4cNZHnwwyyFDtJKWxmLwYK2kpmrRBCOV1FStDB7ME/v3Z5mWpvVz8MEshw1jOXw4h0aO5IyxY3n20KFccN11vPe++7jkpZe4Yt06rhGixaLvk08+2VmHrdNpbGjg6u3bNV23qnLOWWcxe4venYUnsDuThqoqLrjuOhYDB7IcPpzL33+/R+ql77333rDP9Xv3cuWGDbx/6VIunDeP8y6+mHOmT+fMKVM4NGoUCyJ+OSWlRdhROXw4/3HMGM49/3wuuP563nvPPbz/qae45JVXuPzDD7nik0944zPP8G2nncbV27dzzU8/cc3OnVwbDHJtZibX5eVpKcCKirhOfw0re/ZwXV4e12Zmcm1GBv9x0SKu2bmTq7dv56otW7hy0yauXL+eyz/+mMvee4/vuegiLn7wQd5z222cN3s2Z592GmeMHx825iAi35+U1DT+zEmTOPv00znv17/mwttv5wPPPssVPSQWeH1hIRfecYc26Zgyhcs//jjeQ+rpeAK7M6j6+mvOOvFEzRRv1iyuy82N95DahYayMq7+8Ueu+PhjPvDcc1x4yy2cPW0av6wovBOxWfAOGcKZRx/NuTNncv7VV3PRokV84PnnuWLNGq6VkhsbGvitt96y30dDA2/ZsiXiOJ588knbGXqlySY9muljZmYmr169OmKbdevWRaxnZi4tLeWioiJm1hxWKjZs4AMvvMBFixZx/lVXcc7ZZ3Pm0Ufzf1JTw4/RsGFaGrJFi7j0jTe46uuvu5Vn4oH/+z8OjR7NYuBAPvD88z1yItIF8AR2R9FYX8/l77+vXZCpqVz84IPxHlLMNNbXc0NlJdfv388lr7zCuRdc0DL/4eDBLIcN48xJk7ho/nwu//e/uaG6mqdOnRrTvpYsWeJYl5qaGnHb559/nk855RTbussvv5yrqqqi5hR84403oo4xy4WN8t133x21zerVq/mmm24K+66+sJDL3niD83/zG5YjR7IcMiQsY40g4uyTTuIDzz3H9YWF3FBZ2SWFYl1BAcsRI7RFyssu8wKKtS+ewG5vGuvqOO/ii1kEAhw69FCu+emnbuHYUldQwAeeeYZzZszgjAkTtIS3JmHx9Rln8IHnnuPqH3/kupycqCmudu/ezZdeeqnr/d9www2Odc8880zEbcvLy/maa66xrauqquITTzwx6v6feOKJqG1ycnKitlm8eHHUNvPmzYvaxqCxpobrCwt575YtXLpiBedfeml46rGhQzlz4kTOmz2by955p8vEK6/fu1cbqx5PvSeogLoAlcDM05n5l15pW6n44IO5WSeeGNIvpHcrPvrooniPya6UvvjiH4puu+393LPO+lmOGlUqiHgXIn+vKFWSaKMkeiz/nHNuqVy58mLrtjNmzHg5ln2NHTt2q9u2kydPfsup7sYbb1xw66233h1p+759+1Y41SHiturq6rMjbX/uuec+Hm2MH3300WWR6ufPn3+vm986ceLEN2M5joceeuhOp7qy116blXvKKb8LEj05+6CDKgVRgyBiqaoNmVOm5Bb85jdfFj/44F+4pGRmPM63ury8c0KBwBOCqCHzyCP3lL/44h/iMY4eUs4Aj7YRVJRDJNFeSVQvVHVFvMdjsMvvHySJJgcRH5FExU2zZcR9AvFnQbQ0a+DA4/Tm/QAAXXT7OADM0tu7YXkMQw5EqJsGAJ9GqE8EgAsAYIhD/f0AcHaU/b8AANdPccliAAAgAElEQVREqL8nyvYAAP/nos2RAPCui3YGEwGgj4t2CgBcZ3xggMRMxLkS8WuBWCCJGvVzoCRI9Fi6zzchXdum05Cq+kgQsUaoakWGz3dEZ+7bo5cT9PmOkkTlgogzia5hdxdVh5E5cOBZQlU/F0TlErFeELEkqpeq+qpQ1YlbAJIZICFCF2+53FUfAPiry7Z/AABy0e5CADgIAK5wqJ8GAL+OsP2D+uuzDvVPA8DzUcawBAAKItQ/AwCpEeonAcCcKPtYAADjorQx8wgAfOuy7SfRGoQABryUnHycVJSXhS7Ag4h1gqgkhPi/eQDJMYyttfTJUNVz9ZtHeWjIkNGdsE+P3koI8TKBWCARq4OIl3X2/hmgT0hRzhZELwmiH0165t1BVV0SVJRz8vz+Qa3oenWM7R+M3gQAAB510eZr/fWPDvU36K/fOdQbwmoctLxBJAOAH7Sb1XkO248H7QnjaADwObS5BQDOB4D+DvXG8ZsF9jfG4wFgsL6Phxz6sPKly3YrHfZpxy3mD+lJScNDiJdJovckUf1ORH7R5yuTiKuEqjodr3ZBKspVErE+SJQTVNWTOnJfHr2MoKJcrgvGvIwOPpHNpPt8R4YQbwqq6uYw4Uz0coaqnhth09tbsbvfxtD2fhdt3gB3wulx/fWZCP0AaDPtREvdI5bPr1k+XwvNwuzPDv2/aHp/t0ObdP3V7vecCgAplv6sKqa/WT7/w2E/5volUdoAaDcRt7P2d1y0WbRFUU4QiMsE4m5jJi4QP5KIszMRVZf7ck0I8b+E9rRaElKUE9q7f49eRNagQcdKokZJVCFUdWRH7osB+u4DQEH0F5MjRo1AzJeIc1vR5X9ibJ8EAFtctDsONEHYN0q7iXqf90ZoMxCaZ7VOKo3fmd5fF6EOAOAsCJ9tmm8CB4OmerFysen96WA/WzWeAs4DgAGWOjt1y+MQria71KZNBtgfwwBouu4HIHxG31cfm9HvQAC4ErTfaPe7EgBgIWhPGSkAcLKlvh8A7DX1dxK0vCHCYoCEENFiQVQqEI1Fzc1ZgweP2+L8xBEzUlWvEpqKZv9O7anIw8MdkuhUY7EmiNhhq7NBn2+wIHpBEGU2mWoRrQ76/SftUJRIC3Fu6AsAKwDgzBi2WQLhs0U7/qG/fhCl3av6GBZHaPOE6f2VNvXTASDN9PlJ03snNc43pvfWxcKNls8ToKWQetjyuS9o6gwDs774VLBfhO0DAMv019scxgl6nVU/v870/iPQFgffAu1YTAVNzfQGAKwytfsLNP9v/UDT2/8aNKG9DLTjPAMAhpq2Waq/PqPXT44wTgDQVXJ+//igovxRIlbrs+8CQfTWrqSkYdG2d9V/IHCHfi1s8wS3R0QyiKYLokJBVCpUNdoiUswEfb6jpGa5YQjoCoH4WkhRolkxtIVUAHjORTsEdzrnU0C78GdGaHMTNM++CJwX7BaY3vcHzdJiIWiz7snQUngCACwCTSfsdEM7DgAOA/uZ70GgCTBjFv2hTZtfAMCNpjbWRdYkALhafx9tMfNp0ARlJH4B2owa9P1Ge3Jx4hTQbnqRngQHAcBd0KyGajMZfv8vgoh/Mxbhpap+JRTllrYIWwZIMJ40JdF7URbMPXobOUlJwwVisUCszlTVq9qr311+/yCBOEsi5htmVYLo25CinNNe+4iBVQAwIkL9Sv11E0S3elkOLVUDZn6wfP7Mps21Eba/CTThYsd8AFgTYVsAgLkAcGKE+pcA4G2IbKL4VwB4E+xvTIcDwOtRxhALI0Az93NjXtmlkYpyaxBR6NZKjUJRnmyLOlESfa4L7nu59Tczj54AA/QVRDv0E+LO9ugzY8CAMRLxG0FUofdbHFKUc7rI490D4GwJYczy+gDA5ij9/BkAngJttmnlLGgpCH3Q8vcvjLIPj/Znial0KAzQN0Q0Wqrqh/p1UCkRv85ITh4afetwshUlIBALBWJ1UFEiPdl59FQE0XJdB7eM7RdtXJEOoEhVfUQQZegn5oEg0b3S7z+8PcfbjswCgEMt331l+dwHAP4eoQ9DJXA7AEwBbeZzMAB8DADHOmxzl/6aAAD/dDtYj3aFTaVTEYpyqCBaLBGrhLaQ/7lAnBVLH1JRjhdE1QKxQKjqxI4aq0cXQhBdL4kaJeKXPHVqq1a5Q0RTJOILkqhRINYHEb+URBe091g7kP6gmZpNBM3ywW6hsS+EL4AZTIZw/XEAwi0tnJgDmn75DfB0kvEibgLbzA6Ag4Sq/q8kytVVhZ+FiE5364AWQlwoEGsF0Zp0G8sWjx6ATElJ02fU9SEiNx544dv7/YcLon2GNUeI6L1ecLIkgGaDbNYdLmtDf1dHb+LRgXQJgW0lRPSAyUoq5NbeO4i4WRBxBtH8jh6jRyeRB5AsiLbrK9i/imVbgXiTRPxJ37ZKqupVQZ9vcPQtexyXgmae9wvoAQtjvZguKbANcvz+gSGi23Xfh3qhqv8OpqVFvN6yk5KGSc20cL8Xo6SbIxAfEkQcQvy7G9MgBugXQvytIJL6HX+7JPqdZ1YEAN4x6Al0aYFtJpiWNlgPwVCvO9TcH2nmLQOBG/WJ1b87KS6KR3sRVJRD9D85b3EUQbMD4KAQ0elSVQ2rjjxB5EYn29PoA5p1R1wDWbmgo0y7EqBjb0qGp2J70Zr/qtsIbDPpgcBwgbhTNxWszCU6+k2H80AifqlPtnrjNdz9EEQ/CKJGqaqnRGonES8RiAUCsVEQ7RN+/8nt6WrbTUgBLSJcGQA0gnYhNwJADQAUgbZAGMmC5iLQzPMWAsBvXO5zlmmbSFH4zAwEgBwAqDONcR+E23L3MfUbi8nguwBQAc2CrAI0axezMDT3a2fK6MSFoEUBrLX0/x3Efq4lAsAXAFAKzf8V633vBc3z024GerJp7GaBvdChHB3juDqN9QD9Mny+MwRirUCsE4ryuV27XUlJwyRRg0Tc19lhZD1cIhTlDqH9SW84tQkSTReIa3QdWUgi3tALhbTBYxB+AUcqdh6BAJrLtNHGbSjQ1aZt3AQkWhxlbLv1dv0s30djGADUR+l7kt7W/N1AF30PBU2IRjuubuJsg97O7X9ltaFfHMO2DAA3uxxTXMlITh4qVfV53ZCgUCrKrdY2EvEefbb9pF0fHnFgl98/SBDlSaIDkmiUtT5ENFoSLdX/uH1Bor+tdx+Ev6fye4jtIradyUDHC+wrXI4vH2IT2IrLfhk0j85YBHZaDH0zOEcINLg0xv5+tGy/OMbtu4XANpOJeKYkErrwfn1HSkpTMottaWkpgigjiFiXjhhLPHKP9kao6p8FEctA4ClrXSbi3CZTIVX9F3turQZWAcQAUAUA1wPAIaCF67wdAIpN9fEQ2GgzzloAmA3a7PgPlrrzLJ8jkWPT958BYBRonpoHTN9/b2kXSWD3gWa1jbmsAIAzQFORZNjUO+mi+9q0rQEtaNRhADAGAP4LtBtWrxXYZoJE7xnJGUJ+/3jjeyNxglTV9+I5vl5JnpYCK1cgHjBHCcsIBKYJzS2cBdGPIaLT4jnOLsoiCL9Ax0ZomwBaSNN4COytlnFaQ6sarNDrqy3tnTjJ0m4r2C8Gngr2Ai2SwF5raeukSx8H4eqYKod251r6O9KhncFsaBnHxYzbG1q3hgESJOKlArFOIFZJor8CAOwE8EvE/wSJykJEo+M8zN5BEHGBLpAXAwAIAAwiLjFyFkpVdasX7K1sh+aLtq0OBx0lsJMhXLi8GaXPKmgpWJ2wzq4jWW4ssOnXSWAHLO2cEjIYjLW0t7MhNt8AXrSpj5VeIbDNhPz+8YJonZEgOzcpaYREnC0QGyTRy/EeX49lG0CKIKoRRCXpAIokGiUR9wnNzfxnjm31vjdjtjA4rI19dZTAng+xCRc7NY8d/S1t3KSmagB3Avt/TG2qXfQLoFl9GNtYs9IAhN+IrAkIWkOvE9gm+khV/Vg39z0QTEoaIRB3C8San/1+NwvJHm4JEV0oiBqEqj4bQlwoiQ4IosZ0xBuyPUEdK27VIW7oKIH9nanNBpf9lkF0gXSYqb4R3NlFW61pnC7uGlObRS7HfJZpm3qberM+vD3SZ/VmgQ0Amt9FRiBwvT7R2ytV9Q2B2ChVdWn0rT0iwlog83UCsUYQbdMdW7ZKn+/UeI+tG1MI0XWsbukogW1+CrjEZb//hugCaYWpPstlv5PBncA2txni0CbadlbSTXXt8fje6wW2maCizBSIe6SmHqkXRFn7WxFnyAP0GAGavXSj0KLirWHPPbo9eBXCL9zT29BXRwls8/jGO7SxYl1MtcPswOI2K3kKRBfYR7jYtxOR9On3WuojJV6OdV8eOrmDBh0uiIJNVmWIbicJHgAAQlVv1j0QWSL+D3t20+3J8dBS31sJWpaWWOkMge32vz8Oogskc300+2en7ewE9i0u9u2m7zGWuuHQ8r+qgubY4rHiCewIpPt8qYKoVDf/y473eLoNgmiLPrteXxwIeK6l7U8GtBQERtkHWq5CN2sDHSGw+0DrBMswF9uZ62NJBRdNYD8NzsczljLJ2jEA/ByhfQloT0xusxl5AjsK6QCJengL7xjFQpBI6HqlBkH0Y2YgEM0G1cM9CaA5WEQTIB9BZDVURwhsq0mfW6yWInaY66Mlx3Xazk5gL4fox9JNOcZh/1+52PZLiH6T9QR2BPTMUSyJGjN9Pk/exIokypREjUHEPwstUletTElJi/e4ehBng6YOMS/y2RWnAFAdIbCt3n1uSXWxnbl+dgx9RxPYb5jqG0HTlbemRAq8dAxogaOi/VeRhLYnsG3ISk091dBfC6Jy7r3xhdqOJHpZIFZnJScfLIiu1w9qdlsyMXu0IABa5Dtz1DpzyXXYrjUC+wPTNm502G450sV25vrbYug7msD+m4t9txcImuVMKdj/V3sjbOsJbBOSaLJA3CcRjZjbTh69HrEQJLpWaNYiFwNo3o56PsX0kKK0h32qRzP9wV4nO8Km7SpT/VaX/Ztjc7gR2Hb7teNGiE1gv+uyX2tQKTuBfaeLfXcEfSDcYccoRzm09wQ2aPHyg0QiSFQnVPU5QcQhVX0o3uPqUWT6fBMEUaNQ1YeN74SqLhRElUGisi6cpby7chSEX+D/a9PmH6b6Apf9mr333Ajss1z2+zpEF0ibTPXpLvu1upDbCewTXOy7Ixlp2b9TVvpeLbD1yJ7f6nld/yKI7hCI9bv8/vbwIvWwwgB9BdEBgShNX/cJEZ2mxxKp2uX3R0xc4BET2dB8gf/Lpv5+U32jyz7NQsNJYJv3+7zLfrMgukCaaaqvddnv9RBdYIOljRuX9/bmJ9P+hUObXimwGaBPkGiXQGwMIj7/piZHsiRRQy9IpB1/JNEHArHKmuNNIM6SWnSu4qCiXB6v8fUgHoHmC3yTTb3ZtdqNEBgM7gT246Y2DS7HalUL2JEE7oSvGXOo1UjbmKPvOSV86EjMMc6dbIh7ncCWiCv1ydyKEMAAmZKSJon2ScQv2fPv6Dykqi4QmgXJZda6UCBwWRBxr0CslkQXxGN8PQSzV+S/beqtNtOOSVJ1ngV3AtuqhvhtlH63gDuBDaDZLhttDkTpd6pNv04C+2FLu86OcfMX076lQxvz+HpsfPgCgBSJ+LxuorfeiDckEWfoTjGPxHuMvZK8gw9ODiLWSsRv7Op/8vmOkkTlumXJHU6JO3sZ18fQ1nyBL3FoYzYz+2uEvoZCS+EXKR52raXtAId2Z0CzSsaNwLa6ezsFauoHLSP1RRLYVhf2SNYaVg4CbYZs5f4Y+ohVhx2LHXq3gAH6S8Q1QnO6+w/riSEYoI9A/Egg1gcV5ZB4j7NXo3smbQ0SlVpVJAbC7z9MEoX05J0ruHfHJGHQvBkvitLuHQi/wJ2C4nxnaXeeTZtDoDmaXZGpbSSBPRFaCsv7TPV9INys8EFL20hYczlugvAZ8VxovmEUWdpGUqO8bGmbD5GTwPaHZjPHx2zqGbQohNESHFvNCg92aCdMbSoA4MQo/XYLGKCPIPpQELFQ1X+aw6XuADhIEOVIouKQ803fo7MJqerdgoiFotzi2CYlZYhA/MhIG9ZLbbmtQvBr0HTVt4IWsP91aCnQvo/Qn9VCgkFLEvACaB6A5uiA+RBbTkdrBpdIJdHyORJO2WTsyhTLZ4zQbx/QbobWPjJBe/pYBJoZ3nvQMkOOk8A2l+/0dreBZkr4CoSHdWVwXnAE0LL2RPu93SZFWFFy8lBB9I4g4hDia3mal2wTQaKLBFGDpwLpouxITR0SJCoVqrojWjZ0PQ5uvSA6EFRVJ7vVnohbQWWUOog+M9nmop9G0GansWZN3xWl31rQBKU1B2Q0fgvRvQaN7EXm79w8nTk5tUQqbgR2tFIP0eOKRBtblxfYu5KShgmiHwVifQjxn2z5TxggQSC+Jojqs1XVLj6LR1eBAfoKVf1KINbIQYMi2mYzQN8MVb1C13GXhBBv6qxxxhFzlpNopQTcmT31hZYzPWsxstvEKrABws0HzUWCpjsGADjcUueGMWCfNLcBwgMxxdpvf9ByK7o9zqvAfpHygxj6qAVntZWZvhA5NkmXFdh5qjoyiFgkiDgUCCzeYRMygbUY+qWSKI89F/PugyS6QA/P+n9u2gcRz9BtMxsl4krr41UP5ATQHtOtOQ4bQfMCbI1+cw4A5Jn6qgEtG7k5K/hRAHCaXibE2P/hoKkzjoGWC8izIfw3xMIgAJgGAL/Q31uJVWAbjASAJ6BlNpwa0PJUngPOGdPNHAOa2ioDWgrYj0E7lk7MAs06x24/Y0BLPXaaqTjpv+NGRiBwg0QsFog1kuhqdjhmAnGh7hE9r7PH6NEObAFIFoi7BVGdJBrlZpuiQYP8hp5bEGVIRTm+o8fp0S6YPR2/aMd+x0HrBXa8OQgAztTfvw7RzS67DNsAUkJED+jXYUggznJqGwIYIIi+E0Sl2UlJwzpznB4dQEhR5pkzrbtFKsqtRhSvEGJb02l5dCwF0CxUr27Hfm839dvdgtpbk1K8EJdRxABrXojp+nWXyc6RIgEAIJSaOkR/kl7TWWP06ATSfb5USbRXIBY4mf85occx2aKfRNuCPl9vWqTsDigQPgse2o59m3Xcy9qx37Yy3UUba2LZfgDwKWiml13KJyHo9/86SJSrC99HtrhQSUqijYKIg4HAtM4Yo0ccEIgPCSKWivLHWLdlgIQQ0X0SsVoQ1UvEe7ys7R2KGzVWPwi39ihzsY3bG+4yCL8RdCUz0GMgepyV+yPUnQYATwLAle02ohjJ8fsHCsRn9YlQTojoWjfbSUU5XhBVSqINHTtCjy4BAyRKomJJVNHahAjpgcBwSST0CIJlmYhTreZFHm2mGrQFUCfnkwC0tE5xs+D0IgCUg3Po1v4Qbs3i9kbQmVyjv74EzrNluwiLdmwDdxYm7YJU1UmCqERfIPyGXU569KBN7wiihgw91LJHLyKEeJnuRPNma/tggP5BRZkpEKt1u+4fRWTnCg/3mJ1LSkBzQPkcAILQMigTQ/TYIAYvmrapAS1BwxbQHIQKwN4++zDbnjqOa6PU36i/HgQAFwPAZmips45FhXM+NN8E2p0dAAdJxE+CiLVGDCCOQS0jBg06TA+lnG5nzufRS8gGSAoS/SiIyrIQj21LX1nJyQcHVfVRgVgvtTCwfy4E8LXXWGNkAEQ29+oOWL0BI5UG0NKEucEssN2U1mSUB9DMBGMBQXuiGAqaDvcY0IJK2ZmxveLQxy9Bm1nPhtj//4Oh2aqkzTBAQpDodoFYIIg4SPRKFuK4GPvoK4jeFUQsA4FL22tsHt2cTMRLJFGDJNrQHjbYmYhTBeI3ArFBIFaF/P7r0iPHlWhvXgRN5/ov0NyruyOfQ3RvRAbNHTuWOBG/B+d0aOZSAVpwqdayEWJzRPm1w/e3AcDvLN+5sfj4EjQrl1i4ArQ4Lq2CAfpIVZ0kEL8RRBxEFBmKYhdfJiqZqnqyHhp1SyyzcY9ehET8UhBxiMguelqryEIcJ4mKm0wEOydWt9UWuQCahVoBaA4XKzphHO1BKmgBjswR/KpBi8vRVv4A4QkTGLRQsoE29ovQfON/2+U2z0ap/wc0OzT93UV/hrv7FwAwxOUYALRAWjGRDZAkiH4wznGpqgti7cOAtWBOJYKIhd/f2aooj+6G9PsPF6paKRALdvn949urXwZIyFDVmRJR6Cf27lDHeGWdBgB26p1HQfMuvNb03UjQXJU9NKaAFnXvCdCOl1P4VYNTQLO2sM4Az4XmRWg/RF4APBncCWAATX/7IDirRJwYC9FvCAb3A8Az4BymFQAAgj7fYIm4UmhWUywQHwomJbnNwWmLILpP72vZei/BgEcshBDvEoh1EvHf3M4nDwP0CSH+lyT6Xj9Bi0KIN5lDQ7aCPqCZekUyP7vK5ruhoM007UiA1utwO5NrQHO1XwX2j89poOlnF4AWE/s+0KLXmVkEWhoxKyeDJsDs2Ki/WoM3WWeY/cFZPXKnw/dOtPYG2w80VVk09ZFZzxwWhjfd55sQJHpaItYHEetCiG/vRBzTyvE0EfL7x+uz6uxgINAmoe/RyxFEawURBxXl3o4y3ctU1ZMFYrpArBNaRvhngj7f4Bi6OBm0WV00Is30bgOANaDFmDD4BrTfvEJ/7QcAwyP08U+9j2GgzQQ7Q2//KYQHqTJnx+kHAJ9E2PYm0BaG34HocT3+Zvnsh+boeAo039QjuUdb04e1dn1hLbRer3spuLcp/7NIShoptMQALIgqpKr+u738D3S38k0CsSFIFC3ut4eHO/THv3xBVJmF2GHZOhggQSjKoSE9zq/QzKB2BBGjLX6d4KL7p8HdDWcSANwAmkAwFsIGgOZwMhE0Afcnh22NmaZxQVsfq9146MXCZdDy6ScVtLH2BU114PSbFdDUBG4DXR0L4Teg1yz12/VXq4ehmQTQovAZvOpy31b6gKa6aS2jAWC+U2U60YVBoh0/I9ZKLYPL4+0dPz6EuEhos/R/eclwPToEPUN7jSTKE4pyXEfvL9/nSw0RzRNEGfoMZ58kelqmpEyOsav7wV3SWYMF4KwGANAsOOywzuDHQHiYy3dBE5JungYMUkB7lJ8DAP8FAA+BtijYD7RodHYsBYC7wN0NKpa8n5/prxdBc2hXgwmgzVzvitJHEmhqkMHQdjf6FRB5Rh+JvqALfT25x8OCKMuI4yEV5bZdfr9d9MI2kY44I0hUJhALMtpBneLhERVBdIdArJaIO0MpKbGswLcJqSjHC8RPBVGZ6cK6Ois5OVpYzFhX7fuD8ywaQHO0sELQ0gzuUNCyzgBosyjzo/RH0PKx/gnQvAzNgfg3Qks+As1G2YkbwF3oUoDYspz/N2g3CidLis/AfVS8bHA/xkjcDjE69ghVxSDRdKmq6/+jKCwQa4KIm4WixHIjjYmM5OShUpt4VGQizu6o/Xh42MIACSFVXaYLzu86e/9fAiRlBgKXSKJ9us1rbVBVc9NbXgyToHWCIZIlgp2Dxfs2+7lO/x5Ay0Ju5WfT+8Ohecb5rv46Dex15v0g+sz4gyj15jG6ZShoNx0nW/2+oN0s3NAXtJm2q9C/UXgcoriX/6Sl1PpEIFY1qdsUZV5nxH4XRJ/r18mTXggHj7jCAAcFEf+mZ2te3d4WJW6RRKOCfv81huWJvpL/3Zg+fdam+3xuvQDNRNKR2gnL1x3aTgNtxuwU/+E+0NQ1Zk82Y4Z8dCvHBwBwEtgnJLAyCCIvpJpJgOhWHZFUSU59Xguahc8NoK0DLIPw4xGN/mDRxYeILtRjuxcZC4YC8SGpqpOckgC0N5LoBYHYIIlWfekFSvPoShQC+IzVdEn0dLxjHhQC+ATRHUuSktY22coSFQURH5OIM0JE0QL+RBKIJ0G4230CAESyWX8ZNLM7O64AAGtmIAU0AXQ8OFuaJIC9asa6XzfCabWLNqD3Fc0TcBCEm8a1liGg6e6jxqYRqjpSKMqcpuzhWpES8fm2hlxoDSHEm3V39P+0NsCah0enIRB36h5fr3YlB4Asn+8oSbRGEJULxAZ9Jl4lVHVRJoBquclE8vacDeEzpiwXuz/E4fstDt8vB01onxyhTzd5IZ1szM04ZjSxwY0p3vvRm7hmOgDcYnxIB0hMT0oaHiJ6URI16OqwOt2OeXG8nvAAAEKDBp2mP2mW57fuqc7DIz7k+P0DBdF3kqhBIEb0GosXMiUlLdPvP9kIsGNc/FsQs1ampGwJEl3koHNMA01nmgruhJOTO/4GiD4DXhmhzk4vbiWSmZ0BgntrCzcB85e47CsqIUWZI4nWB4ly9YiQLBCrhaI8ma2qE108KXU4IVW9XE9+W5Hu88Waq9PDo+uQrSgBSbRaaAl+3+gKF1gkgj7f4F2KcrkkekoQbRX6LE4g1giijRLxUaEoV/TVwpKOddntfTbfTQJtoTEa10apjxYR0R+l3sCtztiNiiEJAK532R/s8vsHSVX9lUR8NIj4pX6sWVevbQ0SPR1U1ZnZw4d3KT2wUJQ5ArFKEhVLVf1VvMfj4dFuLAZIkETr9UfGbTujm+J1KYSqolSUWyXRxhdTUjLP7t+/3KQvZUm0Jkh0e9DnOyorOfngbZqdsgqaJ6LdLHqVy12Pg8gLVtGsHAY47N+KW6uSJeDOy3Cdsd8QwIACn29wyO8fH/L7r5NE75vWFVi33MgURJ9nIN640/1NptNhgD4ZRNMFUb0kKg4pytnxHpOHR4exHqCfIPqLfrGW5Hbj2AlvAvTNBkjKRFQzEecKonVhQlwLL1ut243nBIlekX7/DUkAX8e4KydvRDeC2G3oVbez11dBc2kPoxDAJ1T1/BDinwXRD+lEZW/5fDVNaozm8l2I6I5dSUnDtgAkd6U1jmiEEBfqSQhYKMqh8R6Ph0enEkL8rSSqF0QlUlVvi/d42ptsgKTQwIHjJeIMgXiTJFqqP2XssZtMA9UAAASwSURBVAgxQ+WSo5slrhWIb0lVfV4S/SkRoDpEdGFIUU7M8PmOCPp8g7nZnfnH9hqrbm1xXFBRZqYTXS2J7pSIjwjEFRLxX4Lom2l9+x5YnJRUbTP+akG0VSCukKq6INPv/5Ukmhxr0ueuBgP0E4jP6nFudsfD6sTDo0shEWc0hV1FfLir67k7gm0AKSGiKTIQuFSq6n8LxOeEpvv/dFRCwh6BuDNIlC0QC4Xm2lwniPi3iYkctArP1hRt5nhAz969W2g3jk0C8ROB+JokelAQXR8iOl0kJXWlhLwdws7k5IMF0Vv6k9LmrEGDupUKz8Ojw0kHSBREOwRio0QsTg8E3Dp0eHi0C8LvPyxIVKtnS3o3+hYeHr0c1pKW3qDP/sqkqj4d7zF59GyCRH8SRGWSqF6q6lWeC7mHRysQiMcGiT7VH023pnur8h7tRFDLPfqpPjH4rDMiUHp49BpkIHCn0IM9pSOu6MxIgR49gx0AvnTEG3UhXRkiejHeY/Lw6NGka3Gy39YvugMZRJFCoXp4gExJmSw1b8lGSZSbjtge8U48PDxiQRKdKok26s4rIqSqC+M9Jo+uQXogMEEg/lNPwVWSgXhDPGONeHh4mBCqeoUg+k4X3nkhxMu2uIj25tFzkH7/4UKzd2+URBWSaPm2ltlxPDw8uhIZijJTEJkdPObFe0weHcNigAShqh+YwgR8Fu/wvh4eHq1gPUA/qSjHS8Sv9BjFpQLxn1meDrNbk050uiD6Qnf4aRSqukz4/TGlCvPw8OjiCEU5ThC9JIy8kKr6VcjvvzZbUQLxHpuHM3tSUtIyVPVWgbhLN/HMl4iP/uAlCPDw6D0IRZkniPKMIEWSaH12SsrEzsj15+HMFoDkPL9/vCD6zIhTHiTKkYFALKnDPDw8eiIM0CfP7x8URFxg6L4lUbkg2pXpCYlOQQYCvxRE24P6048kapCBwB92+f1uclN6eHj0ZrJVdWII8S5BtN0UJGmLJHpM+P2RUnd5RCETcaxAXBQk2qDroVkSSUH0gPAi4nl4eLQVBuibEQjcIIk+F4gFJguU7cFA4M4MoqM9XXg4DNAvqCiHBIkuMqdi09cQvhOqendXTljg4eHRw8hSlLOlqm5uEbJUVfMzBg787xy/f2C8x9hZZBD9OqTF52i0HI+SkKouYndJFzw8PDw6hzy/f1BIUU6UWhaadwVRhclGuFwQ7Q4SrQ8hLpOqelUG4ph4j9kNWwD6S7//lBDi3ZLoPYG4RSDmm4WzJPqPJHpQIJ61G3GsF/XOw8Oj2/LD4MFpQlXP1xMCvCO0RL/7rLNzPbHrZoG4Smgp1e4QijInqCjnBAOBaRlER4f8/vFywIBR6T5f6g4A3w6Ag8zlTT334g6AgwoBfD/7/QMzkpOHhohGC7//sAzEY4KIZ2QQ/Trk918nEe+RREuFqn4gEHcLIwFxs/6+QSCGBNGnEvGFEOJNGcnJx7zpLsejh4eHR88kNxAYESK6MKSqCwXiixJxsyDKlJoJYpFA3CeISgRRuUCsEoi1ErHeUhp0m+V6gVirp/GqFNosv1Qg7hOIe4JEOYIoKBE/kYjPhIhu360oJ3hxNzy6Cv8Pcn18WHAGAr4AAAAASUVORK5CYII=" vertex="1" parent="1">
          <mxGeometry x="126.69999999999999" y="354" width="94.6" height="135.14" as="geometry" />
        </mxCell>
        <mxCell id="2P2w4gMl4hyvQ_OGWpci-47" value="" style="endArrow=none;html=1;entryX=0.035;entryY=0.407;entryDx=0;entryDy=0;entryPerimeter=0;" edge="1" parent="1" target="2P2w4gMl4hyvQ_OGWpci-46">
          <mxGeometry width="50" height="50" relative="1" as="geometry">
            <mxPoint x="50" y="409" as="sourcePoint" />
            <mxPoint x="100" y="359" as="targetPoint" />
          </mxGeometry>
        </mxCell>
        <mxCell id="2P2w4gMl4hyvQ_OGWpci-48" value="#AISuggestU" style="text;html=1;align=center;verticalAlign=middle;resizable=0;points=[];autosize=1;" vertex="1" parent="1">
          <mxGeometry x="300" y="269" width="100" height="20" as="geometry" />
        </mxCell>
        <mxCell id="2P2w4gMl4hyvQ_OGWpci-49" value="probably as a consumer or with kafka streaming" style="text;html=1;align=center;verticalAlign=middle;resizable=0;points=[];autosize=1;" vertex="1" parent="1">
          <mxGeometry x="292" y="451" width="310" height="20" as="geometry" />
        </mxCell>
        <mxCell id="2P2w4gMl4hyvQ_OGWpci-50" value="ElasticSearch connector" style="text;html=1;align=center;verticalAlign=middle;resizable=0;points=[];autosize=1;" vertex="1" parent="1">
          <mxGeometry x="691" y="179" width="160" height="20" as="geometry" />
        </mxCell>
        <mxCell id="2P2w4gMl4hyvQ_OGWpci-51" value="" style="endArrow=classic;html=1;entryX=1;entryY=0.75;entryDx=0;entryDy=0;exitX=0;exitY=0.683;exitDx=0;exitDy=0;exitPerimeter=0;" edge="1" parent="1" source="2P2w4gMl4hyvQ_OGWpci-44" target="2P2w4gMl4hyvQ_OGWpci-36">
          <mxGeometry width="50" height="50" relative="1" as="geometry">
            <mxPoint x="1258" y="741" as="sourcePoint" />
            <mxPoint x="1308" y="691" as="targetPoint" />
          </mxGeometry>
        </mxCell>
        <mxCell id="2P2w4gMl4hyvQ_OGWpci-52" value="&lt;div&gt;Explicit request&lt;/div&gt;&lt;div&gt; for a suggestion&lt;/div&gt;" style="text;html=1;align=center;verticalAlign=middle;resizable=0;points=[];autosize=1;" vertex="1" parent="1">
          <mxGeometry x="1217" y="691" width="110" height="30" as="geometry" />
        </mxCell>
      </root>
    </mxGraphModel>
  </diagram>
</mxfile>
